<svg xmlns="http://www.w3.org/2000/svg" width="651" height="669" viewBox="0 0 651 669">
    <g fill="#202440" fill-rule="evenodd" opacity=".08">
        <path d="M28.284 176.716L56.57 205l-28.285 28.284L0 205l28.284-28.284zm-.707 17.677L16.971 205l10.606 10.607L38.184 205l-10.607-10.607zM602.426 371l42.427 42.426-42.427 42.427L560 413.426 602.426 371zm-.707 15.556l-26.87 26.87 26.87 26.87 26.87-26.87-26.87-26.87zM92 57H102V67H92zM258 659H268V669H258zM300 0H310V10H300zM97 349H117V369H97zM621 125H651V155H621z"/>
        <rect width="15" height="15" x="42" y="456" rx="7.5"/>
        <path d="M318 319c16.569 0 30 13.431 30 30 0 16.569-13.431 30-30 30-16.569 0-30-13.431-30-30 0-16.569 13.431-30 30-30zm0 11c-10.493 0-19 8.507-19 19s8.507 19 19 19 19-8.507 19-19-8.507-19-19-19z"/>
        <rect width="15" height="15" x="393" y="592" rx="7.5"/>
        <rect width="10" height="10" x="208" y="80" rx="5"/>
        <rect width="10" height="10" x="602" y="47" rx="5"/>
        <rect width="5" height="5" x="525" y="85" rx="2.5"/>
    </g>
</svg>
