<svg xmlns="http://www.w3.org/2000/svg" width="400" height="332" viewBox="0 0 400 332">
    <g fill="none" fill-rule="evenodd">
        <path fill="#3F3D56" fill-rule="nonzero" d="M400 317.097v2.055c0 2.21-.936 4.318-2.57 5.804-1.635 1.487-3.819 2.215-6.017 2.007-16.078-1.53-32.082-4.374-48.214-3.877-29.741.909-59.729 13.086-88.517 5.563-8.12-2.122-16.148-5.81-24.501-5.016-7.495.711-14.165 4.954-21.425 6.944-22.082 6.067-44.567-9.267-67.458-8.646-15.089.411-29.536 7.766-44.608 6.948-8.735-.469-17.056-3.667-25.577-5.636-21.216-4.909-43.064-2.167-64.924-.465-1.595.122-3.168-.425-4.342-1.512C.672 320.179 0 318.652 0 317.052v-1.76c0-3.179 2.574-5.755 5.75-5.755l386.414-.313c2.082.004 4.078.835 5.548 2.311 1.47 1.477 2.292 3.477 2.288 5.562z"/>
        <path fill="#000" fill-rule="nonzero" d="M400 317.097v2.055c0 2.21-.936 4.318-2.57 5.804-1.635 1.487-3.819 2.215-6.017 2.007-16.078-1.53-32.082-4.374-48.214-3.877-29.741.909-59.729 13.086-88.517 5.563-8.12-2.122-16.148-5.81-24.501-5.016-7.495.711-14.165 4.954-21.425 6.944-22.082 6.067-44.567-9.267-67.458-8.646-15.089.411-29.536 7.766-44.608 6.948-8.735-.469-17.056-3.667-25.577-5.636-21.216-4.909-43.064-2.167-64.924-.465-1.595.122-3.168-.425-4.342-1.512C.672 320.179 0 318.652 0 317.052v-1.76c0-3.179 2.574-5.755 5.75-5.755l386.414-.313c2.082.004 4.078.835 5.548 2.311 1.47 1.477 2.292 3.477 2.288 5.562z" opacity=".1"/>
        <path fill="#3F3D56" fill-rule="nonzero" d="M400 312.708v2.053c0 .285-.016.57-.045.854-.456 4.273-4.264 7.385-8.542 6.98-16.078-1.53-32.082-4.372-48.214-3.876-29.741.912-59.729 13.075-88.517 5.556-8.12-2.119-16.148-5.802-24.501-5.01-7.495.711-14.165 4.949-21.425 6.94-22.082 6.045-44.567-9.272-67.458-8.656-15.089.41-29.536 7.757-44.608 6.944-8.735-.472-17.055-3.663-25.577-5.634-21.212-4.899-43.064-2.16-64.924-.46-2.945.227-5.584-1.814-6.103-4.722-.059-.334-.086-.672-.086-1.01v-1.758c0-3.175 2.574-5.748 5.75-5.748l96.85-.079 197.868-.164 91.696-.074c2.082.004 4.078.834 5.548 2.309 1.47 1.475 2.292 3.473 2.288 5.555z"/>
        <path fill="#000" fill-rule="nonzero" d="M305.47 306.039c0 .933-1.79 1.827-5.091 2.667-13.218 3.356-50.585 5.774-94.69 5.774-43.39 0-80.31-2.342-94.032-5.618-3.696-.882-5.749-1.831-5.749-2.823 0-.346.246-.688.731-1.026l197.842-.169c.653.393.99.773.99 1.195z" opacity=".1"/>
        <g fill-rule="nonzero" opacity=".5" transform="translate(226.696)">
            <rect width="165.427" height="49.931" fill="#36334A" rx="9.994"/>
            <path fill="#468EE5" d="M20.164 10.729H58.434000000000005V19.395H20.164z"/>
            <path fill="#6C63FF" d="M20.164 24.759H137.44400000000002V29.298000000000002H20.164zM20.164 34.663H67.076V39.202H20.164z" opacity=".3"/>
        </g>
        <g fill-rule="nonzero" opacity=".5" transform="translate(19.256 40.296)">
            <rect width="165.427" height="49.522" y=".209" fill="#36334A" rx="9.994"/>
            <path fill="#36334A" d="M20.164 10.85H58.434000000000005V19.445H20.164zM20.164 24.765H137.44400000000002V29.267H20.164zM20.164 34.588H67.076V39.09H20.164z"/>
            <rect width="165.427" height="49.522" y=".209" fill="#36334A" rx="9.994"/>
            <path fill="#468EE5" d="M20.164 10.85H58.434000000000005V19.445H20.164z"/>
            <path fill="#6C63FF" d="M20.164 24.765H137.44400000000002V29.267H20.164zM20.164 34.588H67.076V39.09H20.164z" opacity=".3"/>
        </g>
        <rect width="4.376" height="35.04" x="273.961" y="86.723" fill="#3F3D56" fill-rule="nonzero" rx="1.203"/>
        <rect width="2.626" height="11.388" x="133.042" y="59.567" fill="#3F3D56" fill-rule="nonzero" rx=".788"/>
        <rect width="2.626" height="20.148" x="133.042" y="80.591" fill="#3F3D56" fill-rule="nonzero" rx=".888"/>
        <rect width="2.626" height="20.148" x="133.042" y="107.747" fill="#3F3D56" fill-rule="nonzero" rx=".846"/>
        <rect width="141.794" height="289.077" x="134.792" y="21.9" fill="#3F3D56" fill-rule="nonzero" rx="18.743"/>
        <rect width="20.131" height="4.38" x="191.685" y="29.784" fill="#E6E8EC" fill-rule="nonzero" rx="1.334"/>
        <ellipse cx="216.63" cy="31.974" fill="#E6E8EC" fill-rule="nonzero" rx="2.188" ry="2.19"/>
        <path fill="#36334A" fill-rule="nonzero" d="M267.834 40.212v251.58c-.003 6.242-5.044 11.3-11.263 11.3H154.808c-6.219 0-11.26-5.058-11.263-11.3V40.212c0-6.243 5.042-11.304 11.263-11.304h15.228v1.983c.002 5.14 4.153 9.307 9.274 9.309h51.773c5.114-.012 9.253-4.176 9.253-9.309v-1.963h16.235c6.212 0 11.251 5.049 11.263 11.284z"/>
        <path fill="#3F3D56" fill-rule="nonzero" d="M147.046 53.435H160.17499999999998V55.187000000000005H147.046zM147.046 56.063H160.17499999999998V57.815000000000005H147.046zM147.046 58.691H160.17499999999998V60.443000000000005H147.046z"/>
        <path fill="#3F3D56" fill-rule="nonzero" d="M147.046 53.435H160.17499999999998V55.187000000000005H147.046zM147.046 56.063H160.17499999999998V57.815000000000005H147.046zM147.046 58.691H160.17499999999998V60.443000000000005H147.046zM262.066 57.503h-.355l-.137-.113c.45-.539.695-1.22.695-1.922-.008-1.615-1.317-2.917-2.922-2.909-1.606.01-2.9 1.325-2.892 2.94.009 1.615 1.317 2.917 2.923 2.908.697-.005 1.37-.252 1.907-.7l.133.115v.361l2.243 2.26.672-.676-2.267-2.264zm-2.688 0c-.82.004-1.56-.49-1.876-1.25-.315-.761-.144-1.638.434-2.222.578-.584 1.45-.76 2.207-.445.757.315 1.251 1.058 1.251 1.882.003.54-.208 1.058-.586 1.44-.379.382-.894.597-1.43.596z"/>
        <path fill="#F9E900" fill-rule="nonzero" d="M147.046 82.343H185.558V91.10300000000001H147.046z"/>
        <path fill="#6C63FF" fill-rule="nonzero" d="M147.046 96.359H264.33299999999997V100.73899999999999H147.046zM147.046 105.995H193.435V110.375H147.046z" opacity=".3"/>
        <path fill="#F9E900" fill-rule="nonzero" d="M147.046 183.082H185.558V191.84199999999998H147.046z"/>
        <path fill="#6C63FF" fill-rule="nonzero" d="M147.046 197.098H264.33299999999997V201.478H147.046zM147.046 206.734H193.435V211.114H147.046z" opacity=".3"/>
        <path fill="#468EE5" fill-rule="nonzero" d="M147.046 233.013H185.558V241.773H147.046z"/>
        <path fill="#6C63FF" fill-rule="nonzero" d="M147.046 247.029H264.33299999999997V251.409H147.046zM147.046 257.541H193.435V261.921H147.046z" opacity=".3"/>
        <path stroke="#3F3D56" stroke-width="2.101" d="M364.889 306.596c1.207-2.267-.161-5.05-1.727-7.07-1.565-2.02-3.464-4.115-3.424-6.704.06-3.704 3.903-5.889 6.974-7.856 2.28-1.455 4.381-3.184 6.261-5.148.788-.756 1.439-1.647 1.924-2.634.635-1.449.62-3.095.579-4.68-.137-5.283-.393-10.563-.769-15.84"/>
        <path fill="#57B894" fill-rule="nonzero" d="M380.734 256.853c-.087-1.943-1.16-3.707-2.844-4.678l-1.276 2.53.04-3.063c-.61-.179-1.246-.256-1.881-.227-3.134.155-5.55 2.821-5.401 5.958.15 3.137 2.808 5.561 5.943 5.418 3.134-.144 5.56-2.8 5.423-5.938h-.004zM370.482 295.629c-1.233 2.391-3.97 3.592-6.563 2.88-2.593-.714-4.333-3.146-4.171-5.833.161-2.686 2.18-4.892 4.84-5.289 2.659-.397 5.233 1.124 6.17 3.646l-3.563 2.9 3.921-.907c-.001.906-.219 1.798-.634 2.603zM367.509 284.682c-2.904.207-5.484-1.856-5.948-4.755-.465-2.9 1.34-5.678 4.16-6.405l-.032 2.343 1.277-2.55c1.494-.073 2.956.457 4.062 1.473 1.106 1.016 1.765 2.435 1.831 3.943.033.657-.048 1.314-.24 1.942-.695 2.29-2.74 3.895-5.11 4.01zM381.41 275.057c-2.408.088-4.612-1.341-5.508-3.572-.896-2.232-.291-4.784 1.511-6.378 1.803-1.595 4.415-1.889 6.528-.734l-1.011 2.765 2.079-1.993c1.115 1.015 1.782 2.43 1.855 3.933.027.529-.021 1.059-.143 1.574-.578 2.492-2.75 4.293-5.312 4.405z"/>
        <path fill="#000" fill-rule="nonzero" d="M380.089 258.626c-1.335.138-2.634.535-3.973.614-1.34.079-2.81-.224-3.66-1.22-.453-.534-.684-1.211-1.067-1.797-.366-.545-.867-.995-1.459-1.31-.952 1.9-.686 4.151.686 5.8 1.372 1.65 3.609 2.408 5.763 1.954 2.154-.454 3.848-2.04 4.365-4.088-.217.008-.435.024-.655.047zM381.537 275.054c-2.023.098-3.952-.83-5.077-2.446-1.124-1.615-1.28-3.678-.409-5.431.458.295.851.672 1.159 1.11.41.595.661 1.284 1.142 1.828.9 1.012 2.433 1.343 3.826 1.284 1.393-.06 2.737-.441 4.11-.563.193 0 .386-.028.583-.032-.587 2.4-2.765 4.135-5.334 4.25zM367.572 284.69c-2.017.098-3.942-.824-5.08-2.432-1.136-1.609-1.321-3.672-.488-5.445.482.303.902.688 1.241 1.136.451.614.732 1.323 1.262 1.89.98 1.048 2.626 1.418 4.107 1.386 1.481-.031 2.825-.37 4.253-.478-.72 2.263-2.841 3.843-5.295 3.942zM371.116 295.4c-1.342 2.822-4.86 4.085-7.858 2.823-2.999-1.262-4.342-4.573-3-7.395.491.303.932.673 1.306 1.098.57.647.942 1.386 1.596 1.997 1.218 1.126 3.182 1.597 4.935 1.633 1.01.004 2.018-.048 3.021-.156z" opacity=".1"/>
        <path fill="#656380" fill-rule="nonzero" d="M356.236 304.722s4.47-.143 5.817-1.14c1.348-.995 6.858-2.18 7.205-.585.347 1.595 6.717 7.954 1.674 7.979-5.042.025-11.723-.812-13.07-1.675-1.347-.862-1.626-4.58-1.626-4.58z"/>
        <path fill="#000" fill-rule="nonzero" d="M371.036 309.548c-5.052.04-11.735-.797-13.08-1.635-1.025-.634-1.433-2.898-1.57-3.945h-.15s.283 3.655 1.616 4.497c1.332.842 8.031 1.663 13.083 1.635 1.458 0 1.959-.536 1.93-1.313-.19.458-.743.748-1.829.76z" opacity=".2"/>
        <path fill="#3F3D56" fill-rule="nonzero" d="M263.457 136.636v34.225c0 4.33-3.485 7.84-7.785 7.84H143.545v-49.93h112.127c2.07 0 4.053.829 5.514 2.305 1.46 1.475 2.278 3.476 2.271 5.56z"/>
        <rect width="165.427" height="49.931" x="84.902" y="121.763" fill="#F2F2F2" fill-rule="nonzero" rx="9.994"/>
        <rect width="165.427" height="49.931" x="84.902" y="121.763" fill="#F5F5F8" fill-rule="nonzero" rx="9.994"/>
        <path fill="#48B6AC" fill-rule="nonzero" d="M105.033 132.274H143.54500000000002V141.034H105.033z"/>
        <path fill="#DFDFDF" fill-rule="nonzero" d="M105.033 146.29H222.32V150.67H105.033zM105.908 155.926H152.297V160.30599999999998H105.908z"/>
        <ellipse cx="37.637" cy="101.615" fill="#3F3D56" fill-rule="nonzero" rx="14.88" ry="14.892"/>
        <path fill="#3F3D56" fill-rule="nonzero" d="M29.742 216.18c1.512 10.654-.332 21.518-3.204 31.885-.537 1.93-1.114 3.876-2.118 5.609-1.004 1.732-2.401 3.222-3.581 4.852-2.458 3.399-3.9 7.407-5.249 11.374-3.716 10.978-6.837 22.15-9.35 33.466-.15.464-.15.964 0 1.428.357.823 1.439.93 2.328.926l11.496-.062c.41-.79-.348-1.646-.819-2.403-1.639-2.56-.066-5.885 1.38-8.564 3.516-6.507 6.237-13.415 8.105-20.576.787-3.017 1.426-6.1 2.704-8.943 1.545-3.449 3.966-6.416 5.933-9.642 2.286-3.75 3.954-7.82 5.61-11.906 2.31-5.67 4.641-11.412 5.55-17.47.857-5.687.435-11.481-.122-17.205.053-.346-.064-.696-.312-.94-.248-.245-.599-.355-.942-.295l-15.426-.798c-3.18-.165-3.933-.865-3.45 2.271.336 2.342 1.131 4.622 1.467 6.992z"/>
        <path fill="#000" fill-rule="nonzero" d="M29.742 216.18c1.512 10.654-.332 21.518-3.204 31.885-.537 1.93-1.114 3.876-2.118 5.609-1.004 1.732-2.401 3.222-3.581 4.852-2.458 3.399-3.9 7.407-5.249 11.374-3.716 10.978-6.837 22.15-9.35 33.466-.15.464-.15.964 0 1.428.357.823 1.439.93 2.328.926l11.496-.062c.41-.79-.348-1.646-.819-2.403-1.639-2.56-.066-5.885 1.38-8.564 3.516-6.507 6.237-13.415 8.105-20.576.787-3.017 1.426-6.1 2.704-8.943 1.545-3.449 3.966-6.416 5.933-9.642 2.286-3.75 3.954-7.82 5.61-11.906 2.31-5.67 4.641-11.412 5.55-17.47.857-5.687.435-11.481-.122-17.205.053-.346-.064-.696-.312-.94-.248-.245-.599-.355-.942-.295l-15.426-.798c-3.18-.165-3.933-.865-3.45 2.271.336 2.342 1.131 4.622 1.467 6.992z" opacity=".1"/>
        <path fill="#3F3D56" fill-rule="nonzero" d="M32.712 190.364c-3.136 4.53-6.423 9.742-5.382 15.165.791 4.118 3.915 7.31 6.862 10.295 11.782 11.883 23.367 25.085 27.376 41.37 1.033 4.209 1.533 8.528 2.423 12.765 1.615 7.7 4.51 15.063 7.379 22.38l7.674 19.51c4.886.12 9.325-2.842 11.11-7.412-1.01-.078-2.325-1.058-2.915-1.882-3.28-4.558-3.952-10.422-4.793-15.98-.93-6.144-2.172-12.239-3.419-18.329l-5.493-26.938c-.635-3.109-1.27-6.222-2.099-9.281-3.205-11.872-9.28-23.06-10.22-35.334-.139-1.804-.225-3.785-1.442-5.123-1.28-1.412-3.378-1.647-5.276-1.758-7.679-.51-14.303-1.264-21.785.552z"/>
        <path fill="#F2F2F2" fill-rule="nonzero" d="M11.211 303.496c-.845-.203-1.71-.315-2.578-.335-1.689.06-3.25.921-4.212 2.323-.485.784-.865 1.628-1.132 2.511l-1.124 3.257c-.331.955-.655 2.055-.161 2.93.364.55.893.968 1.509 1.193 2.72 1.223 5.783 1.29 8.747 1.583 2.877.284 5.73.795 8.57 1.335.978.184 1.952.372 2.943.473 2.214.226 4.444 0 6.658-.201l2.284-.222c.765-.033 1.521-.174 2.247-.418.733-.252 1.332-.795 1.658-1.503.564-1.41-.646-3.081-2.126-3.349-.602-.121-1.223-.067-1.833-.146-.69-.12-1.364-.324-2.006-.607-2.923-1.16-5.875-2.332-8.445-4.157-.713-.507-1.46-1.214-1.38-2.093.073-.377.198-.741.368-1.084.349-.898.36-1.894.033-2.8-.14-.386-.414-.792-.8-.838-1.094-.134-.961 1.478-1.123 2.093-.22.837-.618.913-1.397.837-2.239-.242-4.478-.355-6.7-.782zM76.193 314.124c.02 1.594.574 3.136 1.575 4.385.306.372.688.677 1.12.893.646.262 1.345.373 2.041.322 1.962-.042 3.9-.43 5.725-1.146.643-.288 1.304-.535 1.979-.738.85-.172 1.708-.295 2.572-.367 3.408-.486 6.4-2.476 9.694-3.484.984-.24 1.949-.554 2.886-.938 1.302-.608 2.357-1.631 3.392-2.622.609-.535 1.134-1.156 1.558-1.844.606-1.118.643-2.447.668-3.712.022-.197-.012-.396-.1-.575-.093-.129-.222-.229-.37-.29-1.002-.489-2.189-.244-3.298-.053-4.006.706-8.107.576-12.176.445-.793.108-1.561-.325-1.87-1.056l-1.547-2.448c-.44-.701-1.141-1.505-1.941-1.264-.639.192-.899.967-.874 1.631.025.665.231 1.326.103 1.975-.184.721-.661 1.335-1.319 1.696-.649.35-1.342.613-2.06.784-2.276.636-4.922 1.358-6.682 3.014-1.274 1.19-1.154 3.822-1.076 5.392z"/>
        <path fill="#FBBEBE" fill-rule="nonzero" d="M76.002 150.9c.871-.671 1.62-1.492 2.21-2.425.508-1.052.828-2.186.943-3.351l.635-4.05c.353-2.233.765-4.596 2.243-6.299 1.477-1.702 4.42-2.31 5.922-.628.656.73.915 1.735 1.077 2.71.935 5.893-.824 11.896-4.785 16.33-1.817 2.008-4.048 3.604-5.97 5.502-1.676 1.633-3.13 3.507-4.676 5.283-3.74 4.29-8.022 8.064-12.739 11.226.057-3.037.442-6.295 0-9.312-.327-2.18-1.214-3.355.879-4.78 4.857-3.331 9.76-6.344 14.26-10.206zM34.446 120.434c-.164 2.23-1.09 4.51-2.936 5.796 5.225 1.828 10.38 3.842 15.463 6.044-.982-.943-1.28-2.389-1.325-3.747-.13-3.55 1.098-7.041 2.893-10.101.286-.388.45-.852.474-1.333-.058-.99-1.233-1.446-2.197-1.677-3.291-.798-6.65-1.284-10.032-1.454-1.447-.046-3.162-.503-2.835 1.337.31 1.718.625 3.395.495 5.135z"/>
        <ellipse cx="44.201" cy="109.937" fill="#FBBEBE" fill-rule="nonzero" rx="11.816" ry="11.826"/>
        <path fill="#FF6584" fill-rule="nonzero" d="M56.37 142.597c-.419-.9-.928-1.754-1.52-2.55-2.171-3.12-4.4-6.236-7.185-8.819-2.11-1.883-4.394-3.562-6.82-5.014-1.31-.898-2.75-1.59-4.269-2.05-.901-.2-1.818-.325-2.74-.373l-3.109-.254c-.273-.037-.55-.028-.82.024-.843.213-1.228 1.263-1.048 2.112.18.848.82 1.537 1.385 2.18.139 6.352-2.683 12.617-3.064 18.96-.668 11.07 6.095 21.405 6.636 32.504.055.502.002 1.01-.156 1.488-.09.23-.225.439-.328.665-.32.697-.307 1.488-.364 2.255-.223 2.734-1.42 5.297-3.371 7.224.507.63 1.159 1.128 1.9 1.451 1.307.57 2.868.62 4.256 1.017 3.621 1.058 7.332 2.124 11.097 1.898.467-1.018.757-2.11.856-3.227.532-.332 1.147.378 1.229 1 .082.624-.037 1.35.41 1.8.446.452 1.011.382 1.556.312 2.298-.29 4.506-1.066 6.759-1.586 2.253-.521 4.661-.771 6.853-.025.442-.562.254-1.394-.107-2.009-.36-.615-.872-1.156-1.077-1.84-.103-.395-.147-.803-.131-1.21 0-3.506.72-7.048.037-10.488-.201-1.009-.52-1.993-.725-3.005-.41-1.964-.349-3.99-.295-5.995.053-2.004-.189-4.173-.23-6.207-.001-.84-.056-1.68-.164-2.513-.139-.874-.41-1.726-.483-2.608-.221-2.238.68-4.46.545-6.707-.225-3.412-4.186-5.265-5.514-8.41z"/>
        <path fill="#FBBEBE" fill-rule="nonzero" d="M29.223 141.139c-2.888 7.697-4.3 15.861-5.71 23.968l-3.264 19.042c-.926 5.381-1.856 10.795-1.82 16.255 0 1.532.099 3.094-.301 4.574-.522 1.942-1.82 3.561-2.803 5.328-1.994 3.607-2.659 7.806-1.876 11.857.334 1.7 1.248 3.631 2.966 3.828 1.411.156 2.63-.972 3.455-2.136 1.893-2.668 2.83-5.89 3.671-9.061 2.705-10.367 4.597-20.932 5.658-31.596.1-1.35.29-2.692.567-4.017.36-1.366.821-2.703 1.379-4 1.248-3.11 2.498-6.219 3.749-9.328 2.884-7.185 5.784-14.402 9.745-21.05-3.916-1.131-7.991-2.46-11.907-3.578-1.13-.336-2.342-.135-3.509-.086z"/>
        <path fill="#FF6584" fill-rule="nonzero" d="M36.216 146.692c-2.773-.598-5.64-.413-8.47-.483-.403.03-.803-.075-1.14-.297-.573-.491-.33-1.411-.04-2.109l1.37-3.301c.224-.683.599-1.306 1.097-1.824.697-.62 1.679-.772 2.603-.884 3.008-.346 6.102-.462 9.02.351 2.917.813 5.66 2.662 6.964 5.398.545 1.14.797 2.575.074 3.611-1.072 1.54-3.478 3.26-5.273 2.419-2.15-1.007-3.795-2.357-6.205-2.88z"/>
        <path fill="#3F3D56" fill-rule="nonzero" d="M50.81 91.598c-2.365-.025-4.684.644-6.673 1.923-3.837-3.636-9.334-4.924-14.386-3.37-.733-4.19-4.49-7.165-8.735-6.918-4.245.248-7.631 3.639-7.873 7.886-.242 4.246 2.737 8 6.927 8.728-1.694 5.089-.474 10.697 3.181 14.622 3.655 3.924 9.162 5.538 14.357 4.207 5.194-1.331 9.247-5.394 10.566-10.593.865.177 1.745.266 2.627.267 5.78 0 10.468-3.752 10.468-8.376s-4.689-8.376-10.46-8.376z"/>
        <path fill="#000" fill-rule="nonzero" d="M52.779 103.33c-.901.002-1.8-.092-2.682-.282-.418 1.581-1.08 3.083-1.957 4.448.827.165 1.667.249 2.51.25 5.512 0 10.038-3.457 10.62-7.883-1.962 2.11-5.037 3.466-8.491 3.466zM36.217 114.059c-4.662-.007-9.044-2.245-11.814-6.033-2.77-3.789-3.598-8.679-2.233-13.182-4.014-.713-6.942-4.236-6.942-8.353 0-.51.045-1.019.136-1.52-2.088 2.279-2.777 5.528-1.795 8.471.982 2.943 3.477 5.108 6.505 5.645-2.356 7.814 1.98 16.082 9.703 18.501 7.722 2.42 15.929-1.918 18.363-9.707-2.756 3.88-7.195 6.18-11.923 6.178z" opacity=".1"/>
    </g>
</svg>
