<?xml version="1.0" encoding="UTF-8"?>
<svg xmlns="http://www.w3.org/2000/svg" width="962.973" height="923.789" viewBox="0 0 962.973 923.789">
  <g id="Group_3207" data-name="Group 3207" transform="translate(-6509.385 -3995.371)">
    <path id="Path_126101" data-name="Path 126101" d="M7461.65,4142.207c-16.839-47.565-53.1-87.133-97.024-111.97s-95.052-35.5-145.506-34.836c-149.658,1.977-274.941,131.507-260.353,282.593,5.25,54.388,32.633,108.689,79.91,136.084,18.91,10.957,40.15,17.28,61.5,21.937a447.066,447.066,0,0,0,84.572,10.131,470.621,470.621,0,0,0,21.864,70.528c1.218,3.058,2.673,6.338,5.574,7.893,2.389,1.28,5.261,1.109,7.961.879a418.531,418.531,0,0,0,164.556-49.574c1.886-1.03,3.894-2.216,4.714-4.2.859-2.081.173-4.444-.518-6.586l-20.944-64.941c13.73-3.079,24.689-13.208,34.215-23.564C7459.513,4314.234,7489.919,4222.052,7461.65,4142.207Z" fill="#6ad1e3" style="isolation: isolate"></path>
    <path id="Path_126102" data-name="Path 126102" d="M7367.633,4254.5c-9.851,17.443-16.275,36.6-20.241,56.19-4.014,19.825-5.7,40.058-6.509,60.244-.457,11.365-.633,22.739-.779,34.111-.049,3.862,5.951,3.864,6,0,.257-20.011.6-40.048,2.417-59.99,1.773-19.489,5.024-38.934,11.148-57.559a166.765,166.765,0,0,1,13.145-29.968c1.9-3.367-3.28-6.394-5.181-3.028Z" fill="#f04e98"></path>
    <path id="Path_126103" data-name="Path 126103" d="M7229.843,4245.854q10.373,31.54,20.075,63.3,9.628,31.52,18.586,63.238,5.081,17.988,9.944,36.036c1,3.724,6.794,2.144,5.786-1.595q-8.641-32.058-17.962-63.928-9.253-31.63-19.175-63.061-5.628-17.824-11.468-35.581a3.068,3.068,0,0,0-3.691-2.095,3.031,3.031,0,0,0-2.1,3.69Z" fill="#f04e98"></path>
    <path id="Path_126104" data-name="Path 126104" d="M7119.966,4336.441a138.59,138.59,0,0,1,47.956,32.776,145.308,145.308,0,0,1,30.954,48.827,136.623,136.623,0,0,1,7.868,31.85,3.092,3.092,0,0,0,3,3c1.475,0,3.189-1.38,3-3a145.3,145.3,0,0,0-19.88-57.86,152.052,152.052,0,0,0-41.168-44.83,141.1,141.1,0,0,0-30.135-16.549c-1.5-.6-3.295.659-3.69,2.1a3.072,3.072,0,0,0,2.095,3.69Z" fill="#f04e98"></path>
    <path id="Path_126105" data-name="Path 126105" d="M7123.847,4338.789c17.34-.952,31.7-11.58,44.42-22.469,13.384-11.46,26.7-23.171,38.892-35.909a216.5,216.5,0,0,0,17.444-20.526c2.623-3.53,4.9-7.274,7.426-10.864.918-1.305,2.274-1.123,3.911-.925,2.5.3,4.988.667,7.483.991q29.858,3.885,59.875,6.364t60.107,3.542q3.716.132,7.431.242c3.862.115,3.858-5.885,0-6q-30.1-.9-60.128-3.194t-59.91-6.016c-4.956-.615-9.9-1.337-14.858-1.929a9.342,9.342,0,0,0-6.686,1.281c-1.83,1.322-2.887,3.389-4.093,5.243a175.957,175.957,0,0,1-16.02,20.8c-11.8,13.292-25.1,25.138-38.447,36.844-12.077,10.6-24.983,22.5-41.239,25.814a38.463,38.463,0,0,1-5.608.708,3.067,3.067,0,0,0-3,3,3.027,3.027,0,0,0,3,3Z" fill="#f04e98"></path>
    <g id="Group_3203" data-name="Group 3203">
      <path id="Path_126106" data-name="Path 126106" d="M7389.421,4471.669c.859-2.081.173-4.443-.519-6.586q-9.97-30.919-19.943-61.839l-79.561,24.862c-17.95,5.609-35.986,11.239-54.58,14.057-18.923,2.867-38.153,2.783-57.291,2.692l-.572,1.029q3.9.163,7.8.262a470.568,470.568,0,0,0,21.865,70.528c1.218,3.058,2.672,6.338,5.574,7.893,2.388,1.28,5.261,1.109,7.961.879a418.541,418.541,0,0,0,164.556-49.574C7386.593,4474.842,7388.6,4473.656,7389.421,4471.669Z" fill="#703dc1"></path>
      <path id="Path_126107" data-name="Path 126107" d="M7390.867,4472.068a9.7,9.7,0,0,0-.082-5.951c-.62-2.244-1.409-4.45-2.124-6.666q-2.186-6.779-4.372-13.557-4.41-13.676-8.821-27.351-2.532-7.849-5.062-15.7a1.524,1.524,0,0,0-1.846-1.048l-74.32,23.225c-12.03,3.759-24.044,7.608-36.251,10.762a222.847,222.847,0,0,1-37.292,6.512c-14.357,1.194-28.776,1.127-43.17,1.059a1.5,1.5,0,0,0-1.295.742l-.572,1.03a1.516,1.516,0,0,0,1.295,2.257q3.9.161,7.8.262l-1.446-1.1a472.573,472.573,0,0,0,15.8,54.468q2.4,6.736,5.011,13.4c1.359,3.471,2.583,7.465,5.409,10.066,3.275,3.013,7.62,2.734,11.749,2.37q6.641-.585,13.26-1.384a419.37,419.37,0,0,0,103.94-26.311q12.58-4.968,24.83-10.73,6.031-2.838,11.969-5.871c3.859-1.971,7.825-3.884,11.523-6.146a9.516,9.516,0,0,0,3.918-3.979c.8-1.743-1.787-3.27-2.59-1.515s-2.389,2.679-4.009,3.573c-1.9,1.051-3.821,2.071-5.743,3.084q-5.8,3.053-11.691,5.922-11.711,5.7-23.764,10.659a419.4,419.4,0,0,1-100.492,27.282q-6.513.919-13.054,1.623c-4.225.456-8.635,1.2-12.89,1.038a7.334,7.334,0,0,1-5.219-2.11,14.554,14.554,0,0,1-2.644-4.356c-1.785-4.079-3.288-8.307-4.83-12.481a470.724,470.724,0,0,1-16.02-52.665q-.81-3.361-1.572-6.734a1.525,1.525,0,0,0-1.447-1.1q-3.9-.1-7.8-.262l1.295,2.257.572-1.029-1.295.743c12.925.061,25.866.121,38.77-.732a223.263,223.263,0,0,0,37.345-5.664c12.2-2.923,24.185-6.666,36.155-10.407l37.637-11.761,41.924-13.1-1.845-1.047q8.591,26.638,17.182,53.276l2.454,7.611c.7,2.17,1.649,4.48.825,6.741C7387.312,4473.088,7390.21,4473.871,7390.867,4472.068Z" fill="#703dc1"></path>
    </g>
    <path id="Path_126108" data-name="Path 126108" d="M6895.6,4559.88c-3.913-46.109-7.9-93.282-25.279-136.646-7.364-18.38-17.366-36.474-32.818-49.291-14.282-11.848-32.236-18.012-50.675-18.89a106.475,106.475,0,0,0-54.06,12.172c-16.844,8.835-31.012,22.266-42.213,37.518-25.543,34.781-34.569,78.057-37.4,120.336-.794,11.858-1.142,23.741-1.328,35.622-.168,10.74-.744,21.651.141,32.371.7,8.473,2.561,17.138,7.949,23.941,6.364,8.036,16.308,10.508,26.023,11.739,46.927,5.946,93.769-8.695,137.273-24.766a1005.5,1005.5,0,0,0,122.6-55.437c40.091-21.272,78.972-44.762,117.071-69.406,38.046-24.609,75.326-50.375,112.417-76.393,18.323-12.854,36.294-27.155,56.361-37.228,7.64-3.834,19.022-10.538,26.56-3.164,6.508,6.366,2.9,17.839-.856,24.752-4.227,7.774-11.08,13.718-19.76,15.819l3.69,3.69c3.061-18.871,23.178-33.577,41.121-22.446,7.628,4.731,12.584,13.56,10.14,22.569-2.463,9.084-10.926,16.254-20.543,15.388l3,3c.433-11.27,13.108-17.951,23.348-16.607,12.779,1.678,20.384,14.981,22.13,26.627,2.29,15.278-4.463,30.295-11.6,43.374-6.867,12.576-14.406,24.812-22.29,36.773-31.268,47.433-69.445,89.972-111.318,128.257-42.483,38.842-88.72,73.37-136.512,105.375-48.265,32.322-98.142,62.221-148.409,91.308-54.749,31.68-112.713,62.82-176.356,71.023q-11.492,1.481-23.081,1.9c-3.849.146-3.868,6.146,0,6,66.446-2.505,127.759-31.531,184.713-63.593,53.5-30.118,106.308-61.86,157.531-95.713,49.94-33,98.341-68.623,142.779-108.8,43.787-39.592,83.639-83.786,116.128-133.171,8.315-12.64,16.345-25.579,23.415-38.963,7.1-13.439,13.071-28.547,10.982-44.021-1.68-12.437-8.484-24.984-20.341-30.3-10.207-4.574-23.189-1.792-30.944,6.207a21.5,21.5,0,0,0-6.17,14.325,3.065,3.065,0,0,0,3,3c18.617,1.677,32.389-19.71,24.987-36.26-7.637-17.078-30.013-22.448-45.179-12.286a38.249,38.249,0,0,0-16.312,25.44c-.363,2.241,1.3,4.269,3.691,3.691,16.638-4.027,29.169-21.427,28.534-38.513a18.065,18.065,0,0,0-13.435-16.718c-4.355-1.118-8.418-.277-12.562,1.207a119.709,119.709,0,0,0-14.682,6.457c-19.6,10.15-37.257,24.128-55.277,36.767q-27.691,19.422-55.593,38.541c-36.9,25.179-74.285,49.688-112.647,72.595s-77.689,44.2-118.308,62.8q-30.489,13.965-61.923,25.72c-21.863,8.129-44.071,15.659-66.874,20.7-22.858,5.051-46.541,7.478-69.868,4.556-10.172-1.274-19.929-4.25-24.793-14.022-3.985-8.008-4.178-17.575-4.163-26.331.081-45.07.5-91.87,16.617-134.593,13.464-35.7,39.112-69.466,76.511-81.8,17.537-5.783,36.786-7,54.686-2.117,19.172,5.229,34.522,17.648,45.386,34.106,11.833,17.927,19.009,38.827,24.324,59.5,5.8,22.577,9.04,45.718,11.421,68.878,1.144,11.129,2.1,22.277,3.042,33.424.324,3.819,6.327,3.854,6,0Z" fill="#360484"></path>
    <path id="Path_126109" data-name="Path 126109" d="M6867.05,4419.861q33.555-30.809,66.225-62.561t64.41-64.428c20.235-20.828,39.866-42.229,60.091-63.062,18.888-19.456,38.738-38.3,61.458-53.257q4.1-2.7,8.316-5.217a73.46,73.46,0,0,1,8.5-4.768,12.092,12.092,0,0,1,12.365,1.847,11.631,11.631,0,0,1,3.9,11.941,14.763,14.763,0,0,1-9.622,10.141,10.428,10.428,0,0,1-6.682-.117l1.323,5.014c8.97-7.566,20.237-16.933,32.81-13.146,4.378,1.318,8.594,4.306,9.922,8.872,1.433,4.929-.694,9.716-3.947,13.4-4.334,4.914-10.028,8.439-15.785,11.448l4.407,3.387c2.975-9.327,13.757-14.944,23.027-11.63a19.122,19.122,0,0,1,10.179,9.053c2.827,5.33,2.07,11.253.531,16.862-3.208,11.687-7.4,23.2-11.632,34.545q-6.237,16.719-13.49,33.034a597.847,597.847,0,0,1-73.592,123.014,589.824,589.824,0,0,1-47.388,53.885q-3.189,3.207-6.428,6.366c-2.767,2.7,1.477,6.943,4.243,4.243a590.711,590.711,0,0,0,50.325-55.8,603.4,603.4,0,0,0,42.9-61.6,597.03,597.03,0,0,0,34.773-66.3q7.71-17.26,14.341-34.977,3.313-8.873,6.34-17.847c2.062-6.114,4.253-12.272,5.8-18.539,1.575-6.367,1.776-12.818-1.026-18.858a24.988,24.988,0,0,0-10.991-11.435c-10.283-5.314-22.87-2-29.871,7.057a23.635,23.635,0,0,0-3.834,7.337c-.836,2.62,2.2,4.542,4.407,3.388,10.908-5.7,25.1-15.451,22.92-29.63-.967-6.295-5.623-11.326-11.33-13.843a27.117,27.117,0,0,0-19.653-.818c-8.489,2.825-15.47,8.607-22.207,14.291-1.85,1.56-.627,4.338,1.324,5.014,11.709,4.055,24.107-6.914,24.294-18.61.186-11.631-11.678-20.407-22.769-17.275-3.188.9-6.087,2.768-8.932,4.412q-4.5,2.6-8.87,5.418c-5.918,3.81-11.655,7.9-17.232,12.188a378.768,378.768,0,0,0-32.221,28.1c-21.328,20.628-41.147,42.787-61.686,64.188q-32.893,34.275-66.8,67.559t-68.783,65.538q-4.3,3.976-8.614,7.937c-2.851,2.617,1.4,6.851,4.242,4.242Z" fill="#360484"></path>
    <path id="Path_126110" data-name="Path 126110" d="M6808.061,4363.713c1.119,17.246-6.236,34.3-18.947,46.028a54.223,54.223,0,0,1-10.207,7.437,52.626,52.626,0,0,1-5.492,2.712,12.289,12.289,0,0,1-3.239,1.055,4.293,4.293,0,0,1-.865-.017c.176.019.47.14,0-.032-.157-.057-.328-.1-.487-.148.643.217-.014-.068-.158-.122-.421-.159-.106-.084.037.048-.144-.133-.278-.281-.422-.413-.311-.284.253.4.024.045-.11-.172-.223-.339-.323-.518-.081-.146-.153-.3-.226-.447.248.516.051.127.014,0-.125-.433-.263-.856-.354-1.3-.037-.182-.07-.366-.1-.55.091.569,0-.056-.011-.2-.027-.444-.056-.885-.057-1.33,0-.4.01-.807.034-1.209.012-.211.138-1.478.078-1.027a26.686,26.686,0,0,1,1.487-5.6,10.339,10.339,0,0,1,1.41-2.749,4.2,4.2,0,0,1,1.787-1.4,4.66,4.66,0,0,1,2.02-.33,7.061,7.061,0,0,1,2.673.543,9.228,9.228,0,0,1,3.968,3c2.532,3.37,3.137,7.915,2.462,11.907-1.67,9.871-9.8,17.443-16.583,24.171-15.32,15.2-32.595,28.222-50.4,40.355q-13.441,9.162-27.2,17.866c-8.747,5.52-17.95,10.81-28.2,12.883a41.384,41.384,0,0,1-7.359.795c-3.855.079-3.869,6.08,0,6,11.783-.244,22.719-5.058,32.734-10.924s19.688-12.433,29.321-18.912c19.529-13.135,38.6-27.21,55.344-43.82,7.691-7.63,16.614-16.334,18.242-27.575.756-5.221.11-10.832-2.863-15.314-2.772-4.18-7.639-7.274-12.8-6.954a10.53,10.53,0,0,0-7.141,3.19,18.651,18.651,0,0,0-3.711,7.162c-1.268,3.885-1.878,8.423-.731,12.416a8.486,8.486,0,0,0,10.852,6.095,47.5,47.5,0,0,0,13.41-6.761,65.092,65.092,0,0,0,28-49.149,55.969,55.969,0,0,0-.03-6.9,3.071,3.071,0,0,0-3-3,3.026,3.026,0,0,0-3,3Z" fill="#360484"></path>
    <path id="Path_126111" data-name="Path 126111" d="M6783.658,4456.123a66.959,66.959,0,0,0-19.51,11.77c-2.859,2.485-6.347,5.409-7.521,9.142-1.37,4.36,1.526,7.865,5.472,9.259a24.1,24.1,0,0,0,11.111.7,34.477,34.477,0,0,0,10.524-3.373,45.851,45.851,0,0,0,9.521-6.439c2.919-2.514,5.774-5.44,7-9.18a8.889,8.889,0,0,0-4-10.532c-3.133-1.8-7-1.989-10.526-1.788a3.067,3.067,0,0,0-3,3,3.027,3.027,0,0,0,3,3,16.367,16.367,0,0,1,6.826.64c.53.19-.571-.311.274.115a7.622,7.622,0,0,1,.779.446c.509.336.19.146.1.063a4.767,4.767,0,0,1,.614.626c-.345-.438.185.366.193.383-.2-.38.07.167.087.229a3,3,0,0,1,.039,1.655c-.687,2.757-3.114,4.887-5.157,6.694a40.313,40.313,0,0,1-7.132,5.046c-4.81,2.67-10.4,4.324-15.922,3.57a10.143,10.143,0,0,1-3.3-.911c-.778-.437-1.054-.629-.707-1.607a8.83,8.83,0,0,1,2.178-2.9q1.676-1.728,3.485-3.321a58.585,58.585,0,0,1,17.177-10.5,3.091,3.091,0,0,0,2.1-3.69,3.022,3.022,0,0,0-3.69-2.1Z" fill="#360484"></path>
    <path id="Path_126112" data-name="Path 126112" d="M6790.461,4457.574a5.017,5.017,0,0,0-3.711-.355,6,6,0,0,0-3.04,2.3c-1.343,1.848-1.112,4.3-.719,6.4a11.061,11.061,0,0,0,1.585,4.367,6.115,6.115,0,0,0,5.6,2.81,6.783,6.783,0,0,0,3.276-1.129,9.483,9.483,0,0,0,2.386-2.453,9.2,9.2,0,0,0,1.272-2.735,5.77,5.77,0,0,0-.4-4.1,6.939,6.939,0,0,0-2.235-2.413,11.148,11.148,0,0,0-1.944-1.18,6.764,6.764,0,0,0-3.484-.816,5.433,5.433,0,0,0-4.014,2.378c-2.452,3.32-1.708,8.819,2.242,10.652a6.154,6.154,0,0,0,6.5-.518,6.972,6.972,0,0,0,2.632-5.448,9.4,9.4,0,0,0-2.3-5.838c-1.5-1.917-4.057-3.465-6.458-2.069-2.361,1.373-2.38,4.515-1.864,6.866a9.837,9.837,0,0,0,2.759,4.92,3.966,3.966,0,0,0,4.781.742,4.661,4.661,0,0,0,2.037-3.885,7.8,7.8,0,0,0-2.09-5.7,4.359,4.359,0,0,0-3.856-1.54,4.429,4.429,0,0,0-3.429,3.067,7.147,7.147,0,0,0-.211,3.677,10.6,10.6,0,0,0,1.006,2.906,19.674,19.674,0,0,0,1.277,2.2,3,3,0,0,0,5.181-3.028,18.7,18.7,0,0,1-1.459-2.6l.3.716a7.6,7.6,0,0,1-.523-1.791l.107.8a5.358,5.358,0,0,1-.015-1.157l-.107.8a3.947,3.947,0,0,1,.227-.925l-.3.717c.057-.121.4-.634.058-.178q-.275.333-.048.1-.672.464-.274.268l-.716.3.123-.035-.8.107a.859.859,0,0,1,.262-.011l-.8-.107a.905.905,0,0,1,.277.077l-.716-.3a1.426,1.426,0,0,1,.252.146q-.612-.489-.27-.181c.071.069.141.141.208.215q.3.348-.186-.261a11.462,11.462,0,0,1,.584,1.041l-.3-.717a5.411,5.411,0,0,1,.312,1.152l-.107-.8a5.177,5.177,0,0,1,.016,1.192l.107-.8a2.84,2.84,0,0,1-.163.653l.3-.717a1.45,1.45,0,0,1-.122.229,2.116,2.116,0,0,1,.724-.752l.717-.3a.669.669,0,0,1-.234.061l.8-.107-.14-.005.8.107a.847.847,0,0,1-.265-.085l.717.3c-.434-.253.383.388.2.167-.079-.1-.182-.18-.267-.272s-.167-.2-.254-.292c-.221-.244.449.645.142.177a8.781,8.781,0,0,1-.744-1.351l.3.717a7.851,7.851,0,0,1-.492-1.784l.107.8a7.285,7.285,0,0,1-.014-1.841l-.107.8a3.06,3.06,0,0,1,.146-.571l-.3.716q.213-.4-.24.247-.658.442-.268.238l-.717.3a.958.958,0,0,1,.249-.061l-.8.107a1.147,1.147,0,0,1,.259,0l-.8-.107a2.424,2.424,0,0,1,.4.1l-.716-.3c.159.07.3.157.452.24.261.144-.595-.525-.14-.1a9.626,9.626,0,0,1,.681.75c.386.448-.4-.593-.08-.1.087.134.181.263.266.4a7.679,7.679,0,0,1,.519.981l-.3-.717a6.048,6.048,0,0,1,.416,1.513l-.107-.8a4.832,4.832,0,0,1-.011,1.114l.107-.8a4.844,4.844,0,0,1-.289,1.057l.3-.717a4.454,4.454,0,0,1-.278.544c-.063.1-.273.377.044-.025.346-.439.051-.071-.021.006s-.127.123-.19.186c-.3.3.29-.245.295-.221.014.066-.522.289-.59.317l.717-.3a3.526,3.526,0,0,1-.646.17l.8-.107a3.671,3.671,0,0,1-.8.007l.8.107a3.954,3.954,0,0,1-.908-.236l.717.3a4.24,4.24,0,0,1-.544-.275c-.056-.034-.259-.122-.282-.19.018.054.626.529.244.162-.065-.063-.124-.132-.188-.2-.245-.241.423.631.177.233a5.045,5.045,0,0,1-.34-.64l.3.717a4.736,4.736,0,0,1-.269-1.018l.107.8a5.267,5.267,0,0,1,0-1.212l-.107.8a5.65,5.65,0,0,1,.363-1.326l-.3.716c.146-.327.384-.616.526-.937-.3.373-.376.475-.223.3a2.01,2.01,0,0,1,.163-.166q-.621.446-.239.188a1.976,1.976,0,0,1,.284-.142l-.717.3a2.994,2.994,0,0,1,.457-.124l-.8.107a3.139,3.139,0,0,1,.628-.008l-.8-.107a4.576,4.576,0,0,1,1.109.309l-.716-.3a11.308,11.308,0,0,1,1.877,1.068c.554.384-.476-.437-.078-.068.107.1.218.191.32.295.067.068.131.138.193.211l-.3-.384c.1.023.234.4.273.487l-.3-.717a3.028,3.028,0,0,1,.159.57l-.107-.8a3.419,3.419,0,0,1,0,.663l.107-.8a4.874,4.874,0,0,1-.319,1.135l.3-.716a8.929,8.929,0,0,1-.46.92c-.091.156-.185.308-.287.457-.147.215-.5.472.1-.117a5.564,5.564,0,0,0-.641.652q.618-.46.245-.19l-.127.085a4.339,4.339,0,0,1-.541.292l.717-.3a4.427,4.427,0,0,1-1.032.3l.8-.107a3.883,3.883,0,0,1-.91,0l.8.107a3.551,3.551,0,0,1-.73-.2l.716.3c-.2-.09-.371-.221-.564-.316.6.3.471.389.22.143-.075-.074-.139-.162-.216-.233-.2-.185.44.663.2.249-.055-.094-.117-.183-.172-.277a6.133,6.133,0,0,1-.324-.655l.3.716a14.4,14.4,0,0,1-.841-3.382l.107.8a7.438,7.438,0,0,1-.055-1.712l-.107.8a4.651,4.651,0,0,1,.241-.985l-.3.716a4.814,4.814,0,0,1,.243-.464c.237-.419-.51.544-.137.193.273-.258.34-.139-.206.124.154-.074.294-.183.451-.257l-.717.3a2.639,2.639,0,0,1,.6-.172l-.8.107a2.276,2.276,0,0,1,.493.005l-.8-.108a2.594,2.594,0,0,1,.363.1l-.717-.3.118.053a3.27,3.27,0,0,0,2.312.3,3,3,0,0,0,2.095-3.69,2.9,2.9,0,0,0-1.379-1.793Z" fill="#360484"></path>
    <path id="Path_126113" data-name="Path 126113" d="M6843.211,4433.667a66.933,66.933,0,0,0-19.509,11.77c-2.86,2.485-6.348,5.409-7.521,9.142-1.371,4.359,1.526,7.864,5.471,9.259a24.117,24.117,0,0,0,11.111.7,34.512,34.512,0,0,0,10.524-3.373,45.9,45.9,0,0,0,9.521-6.439c2.919-2.514,5.774-5.441,7-9.181a8.887,8.887,0,0,0-4-10.531c-3.132-1.8-7-1.989-10.526-1.788a3.067,3.067,0,0,0-3,3,3.029,3.029,0,0,0,3,3,16.341,16.341,0,0,1,6.826.64c.531.19-.571-.312.275.115a7.913,7.913,0,0,1,.778.446c.509.335.19.145.095.063a4.762,4.762,0,0,1,.614.625c-.344-.438.185.367.193.383-.2-.379.07.167.087.23a2.99,2.99,0,0,1,.039,1.655c-.687,2.756-3.113,4.886-5.157,6.694a40.251,40.251,0,0,1-7.132,5.045c-4.809,2.671-10.4,4.325-15.921,3.571a10.139,10.139,0,0,1-3.305-.912c-.779-.436-1.055-.628-.708-1.606a8.835,8.835,0,0,1,2.178-2.9q1.677-1.728,3.485-3.322a58.582,58.582,0,0,1,17.177-10.5,3.09,3.09,0,0,0,2.095-3.69,3.02,3.02,0,0,0-3.69-2.1Z" fill="#360484"></path>
    <path id="Path_126114" data-name="Path 126114" d="M6850.015,4435.117a5.033,5.033,0,0,0-3.712-.355,6.006,6.006,0,0,0-3.04,2.3c-1.343,1.848-1.111,4.3-.719,6.405a11.081,11.081,0,0,0,1.585,4.368,6.115,6.115,0,0,0,5.6,2.809,6.782,6.782,0,0,0,3.277-1.128,9.47,9.47,0,0,0,2.385-2.454,9.228,9.228,0,0,0,1.273-2.735,5.775,5.775,0,0,0-.4-4.1,6.946,6.946,0,0,0-2.235-2.413,11.246,11.246,0,0,0-1.944-1.181,6.759,6.759,0,0,0-3.485-.815,5.434,5.434,0,0,0-4.014,2.378c-2.452,3.319-1.708,8.818,2.243,10.652a6.154,6.154,0,0,0,6.5-.518,6.975,6.975,0,0,0,2.633-5.449,9.4,9.4,0,0,0-2.3-5.837c-1.5-1.918-4.057-3.466-6.458-2.07-2.361,1.373-2.379,4.516-1.864,6.867a9.842,9.842,0,0,0,2.759,4.92,3.968,3.968,0,0,0,4.782.742,4.661,4.661,0,0,0,2.036-3.886,7.8,7.8,0,0,0-2.09-5.7,4.356,4.356,0,0,0-3.855-1.54,4.424,4.424,0,0,0-3.429,3.067,7.146,7.146,0,0,0-.212,3.677,10.655,10.655,0,0,0,1.006,2.906,20.009,20.009,0,0,0,1.277,2.2,3,3,0,1,0,5.181-3.028,18.662,18.662,0,0,1-1.458-2.6l.3.717a7.544,7.544,0,0,1-.522-1.792l.107.8a5.266,5.266,0,0,1-.016-1.157l-.107.8a4.013,4.013,0,0,1,.227-.924l-.3.717c.056-.121.4-.635.058-.179q-.278.334-.049.1-.672.463-.273.269l-.717.3.123-.035-.8.107a.826.826,0,0,1,.262-.011l-.8-.108a.963.963,0,0,1,.277.078l-.717-.3a1.445,1.445,0,0,1,.252.147q-.612-.489-.27-.181c.072.069.141.141.208.215q.3.348-.185-.261a11.445,11.445,0,0,1,.584,1.04l-.3-.716a5.471,5.471,0,0,1,.313,1.152l-.107-.8a5.232,5.232,0,0,1,.015,1.192l.107-.8a2.754,2.754,0,0,1-.163.652l.3-.716a1.457,1.457,0,0,1-.122.228,2.146,2.146,0,0,1,.723-.752l.717-.3a.644.644,0,0,1-.233.06l.8-.107-.14-.005.8.108a.848.848,0,0,1-.264-.086l.716.3c-.434-.253.383.387.2.166-.08-.1-.182-.179-.268-.272s-.167-.2-.253-.291c-.222-.244.448.644.141.177a8.791,8.791,0,0,1-.743-1.351l.3.716a7.905,7.905,0,0,1-.491-1.783l.107.8a7.308,7.308,0,0,1-.015-1.841l-.107.8a2.941,2.941,0,0,1,.147-.572l-.3.717q.213-.4-.24.247c-.438.294-.528.373-.268.237l-.716.3a.944.944,0,0,1,.248-.062l-.8.107a1.124,1.124,0,0,1,.259,0l-.8-.107a2.293,2.293,0,0,1,.4.1l-.717-.3c.16.069.3.157.452.24.261.144-.6-.525-.14-.1a9.638,9.638,0,0,1,.682.75c.386.448-.4-.593-.081-.1.087.134.182.263.267.4a7.8,7.8,0,0,1,.518.981l-.3-.716a6.06,6.06,0,0,1,.415,1.512l-.107-.8a4.888,4.888,0,0,1-.01,1.114l.107-.8a4.844,4.844,0,0,1-.29,1.057l.3-.716a4.526,4.526,0,0,1-.278.544c-.063.1-.272.376.045-.026.346-.439.051-.07-.021.006s-.127.124-.19.187c-.3.3.29-.246.295-.221.013.065-.523.288-.591.317l.717-.3a3.432,3.432,0,0,1-.646.171l.8-.107a3.676,3.676,0,0,1-.8.007l.8.107a4.044,4.044,0,0,1-.907-.236l.716.3a4.148,4.148,0,0,1-.544-.275c-.055-.034-.259-.121-.282-.189.018.053.627.529.245.161-.066-.063-.124-.132-.189-.195-.245-.241.424.631.177.233a4.92,4.92,0,0,1-.339-.64l.3.716a4.636,4.636,0,0,1-.268-1.018l.107.8a5.24,5.24,0,0,1,0-1.212l-.107.8a5.642,5.642,0,0,1,.364-1.326l-.3.717c.146-.328.384-.616.526-.938-.3.374-.376.475-.223.3.051-.058.106-.114.163-.167q-.62.446-.239.189a2.061,2.061,0,0,1,.284-.143l-.717.3a2.983,2.983,0,0,1,.457-.124l-.8.107a3.213,3.213,0,0,1,.628-.009l-.8-.107a4.6,4.6,0,0,1,1.11.31l-.717-.3a11.277,11.277,0,0,1,1.878,1.069c.554.383-.476-.437-.079-.069.107.1.218.191.32.295.067.068.132.139.193.211l-.3-.384c.1.023.234.4.273.488l-.3-.717a3.037,3.037,0,0,1,.159.569l-.107-.8a3.343,3.343,0,0,1,0,.663l.107-.8a4.9,4.9,0,0,1-.32,1.136l.3-.717a9.044,9.044,0,0,1-.46.921c-.09.155-.185.308-.286.456-.147.215-.5.473.1-.117a5.641,5.641,0,0,0-.641.652q.618-.46.246-.189l-.128.085a4.571,4.571,0,0,1-.54.292l.716-.3a4.464,4.464,0,0,1-1.032.3l.8-.108a3.887,3.887,0,0,1-.91,0l.8.107a3.585,3.585,0,0,1-.731-.2l.717.3c-.2-.09-.372-.22-.564-.316.6.3.47.39.219.143-.075-.073-.139-.162-.216-.233-.2-.184.44.663.2.249-.054-.093-.117-.182-.172-.276a6.334,6.334,0,0,1-.324-.656l.3.717a14.411,14.411,0,0,1-.841-3.383l.107.8a7.44,7.44,0,0,1-.054-1.712l-.108.8a4.58,4.58,0,0,1,.242-.985l-.3.717a4.785,4.785,0,0,1,.243-.465c.237-.418-.509.544-.137.194.274-.258.341-.139-.206.124.154-.074.294-.183.451-.258l-.716.3a2.648,2.648,0,0,1,.6-.173l-.8.108a2.312,2.312,0,0,1,.493,0l-.8-.107a2.385,2.385,0,0,1,.362.1l-.717-.3.118.052a3.265,3.265,0,0,0,2.312.3,3.06,3.06,0,0,0,1.793-1.379,3.027,3.027,0,0,0,.3-2.312,2.911,2.911,0,0,0-1.378-1.793Z" fill="#360484"></path>
    <path id="Path_126115" data-name="Path 126115" d="M6810.764,4451.758a303.661,303.661,0,0,1,21.552,31.321l2.59-4.514-14.093,1.72c-2.19.267-3.825,2.359-2.59,4.514,1.073,1.873,2.067,3.789,2.96,5.755q.6,1.332,1.132,2.693c.153.4.274.853.46,1.234q.149.591.106.348a1.716,1.716,0,0,1,.379-.974,19.173,19.173,0,0,0-2.081.874,14.991,14.991,0,0,1-2.234.523,22.067,22.067,0,0,1-5.887-.066,67.707,67.707,0,0,1-11.284-2.789c-4.181-1.3-8.291-2.815-12.326-4.514-1.494-.629-3.3.677-3.69,2.1a3.079,3.079,0,0,0,2.1,3.691,135.33,135.33,0,0,0,14.121,5.059c4.556,1.348,9.269,2.593,14.05,2.665a21.863,21.863,0,0,0,6.948-.939c2.274-.73,5.13-1.867,5.76-4.456.622-2.554-1-5.364-1.992-7.627a68.482,68.482,0,0,0-3.336-6.6l-2.591,4.514,14.093-1.72c2.152-.263,3.876-2.376,2.59-4.515a315.58,315.58,0,0,0-22.489-32.535c-1-1.274-3.193-1.05-4.243,0a3.074,3.074,0,0,0,0,4.243Z" fill="#360484"></path>
    <path id="Path_126116" data-name="Path 126116" d="M7204.739,4448.9a223.28,223.28,0,0,0,74.949-8.891q10.215-3.03,20.1-7.044a3.1,3.1,0,0,0,2.1-3.69c-.392-1.423-2.18-2.708-3.691-2.1A218.29,218.29,0,0,1,7226.035,4443q-10.644.474-21.3-.092a3,3,0,0,0,0,6Z" fill="#6ad1e3"></path>
    <path id="Path_126117" data-name="Path 126117" d="M7213.913,4477.714a412.528,412.528,0,0,0,56.337-9.653q7.876-1.928,15.671-4.169c3.705-1.063,2.13-6.854-1.595-5.785a406.593,406.593,0,0,1-54.872,11.729c-5.166.735-10.349,1.351-15.541,1.878a3.084,3.084,0,0,0-3,3,3.021,3.021,0,0,0,3,3Z" fill="#6ad1e3"></path>
    <path id="Path_126118" data-name="Path 126118" d="M7232.413,4497.36a172.9,172.9,0,0,0,52.234-10.915,3.085,3.085,0,0,0,2.1-3.69,3.023,3.023,0,0,0-3.69-2.1,167.594,167.594,0,0,1-50.639,10.7,3.064,3.064,0,0,0-3,3,3.028,3.028,0,0,0,3,3Z" fill="#6ad1e3"></path>
    <path id="Path_126119" data-name="Path 126119" d="M7261.476,4509.913l13.253-4.42a3,3,0,0,0-1.6-5.786l-13.253,4.421a3,3,0,0,0,1.6,5.785Z" fill="#6ad1e3"></path>
    <path id="Path_126120" data-name="Path 126120" d="M7345.081,4417.54a65.483,65.483,0,0,1-7.27,34.04,3.067,3.067,0,0,0,1.076,4.1,3.033,3.033,0,0,0,4.1-1.077,71.522,71.522,0,0,0,8.089-37.068,3.066,3.066,0,0,0-3-3,3.027,3.027,0,0,0-3,3Z" fill="#6ad1e3"></path>
    <path id="Path_126121" data-name="Path 126121" d="M7362.523,4417.394a192.723,192.723,0,0,1-12.286,44.891c-.614,1.5.666,3.3,2.1,3.69a3.073,3.073,0,0,0,3.69-2.1,192.662,192.662,0,0,0,12.286-44.891,3.1,3.1,0,0,0-2.1-3.69c-1.413-.388-3.453.482-3.69,2.1Z" fill="#6ad1e3"></path>
    <path id="Path_126122" data-name="Path 126122" d="M7372.541,4443.787a75.332,75.332,0,0,1-12.131,30.315,3,3,0,1,0,5.181,3.028,79.444,79.444,0,0,0,12.736-31.748,3.091,3.091,0,0,0-2.1-3.69,3.024,3.024,0,0,0-3.691,2.1Z" fill="#6ad1e3"></path>
    <path id="Path_126123" data-name="Path 126123" d="M7341.8,4442.635a113.347,113.347,0,0,1,35.485,21.256,3.071,3.071,0,0,0,4.242,0,3.028,3.028,0,0,0,0-4.243,121.228,121.228,0,0,0-38.132-22.8,3.027,3.027,0,0,0-3.69,2.1,3.064,3.064,0,0,0,2.095,3.69Z" fill="#6ad1e3"></path>
    <path id="Path_126124" data-name="Path 126124" d="M7351.1,4421.15a155.717,155.717,0,0,1,22.6,18.627c2.74,2.727,6.985-1.514,4.242-4.242a163.814,163.814,0,0,0-23.814-19.565,3,3,0,1,0-3.029,5.18Z" fill="#6ad1e3"></path>
    <path id="Path_126125" data-name="Path 126125" d="M7331.961,4476.6a15.8,15.8,0,0,1,3.331.078l-.8-.107a15.886,15.886,0,0,1,2.6.581,3,3,0,0,0,3.69-2.095,3.04,3.04,0,0,0-.3-2.312,3.231,3.231,0,0,0-1.793-1.379,17.836,17.836,0,0,0-6.732-.766,3.211,3.211,0,0,0-2.121.879,3,3,0,0,0,0,4.242,2.946,2.946,0,0,0,2.121.879Z" fill="#6ad1e3"></path>
    <path id="Path_126126" data-name="Path 126126" d="M7347.786,4481.516" fill="none" stroke="#6ad1e3" stroke-miterlimit="10" stroke-width="2"></path>
    <g id="Group_3204" data-name="Group 3204">
      <path id="Path_126127" data-name="Path 126127" d="M7130,4339.554a22.683,22.683,0,0,0,4.193-18.9c-.715-3.057-2.226-6.119-4.919-7.733a15.326,15.326,0,0,0-5.839-1.67,27.207,27.207,0,0,0-8.21-.25,14.714,14.714,0,1,0,12.847,24.883" fill="#fff"></path>
      <path id="Path_126128" data-name="Path 126128" d="M7117.471,4342.512a16.749,16.749,0,0,1-7.524-1.745,17.077,17.077,0,0,1,4.889-32.1,29.313,29.313,0,0,1,8.924.241,17.252,17.252,0,0,1,6.725,1.984c3.7,2.216,5.307,6.238,6.006,9.22a24.909,24.909,0,0,1-4.637,20.9l-3.169-2.494A17.561,17.561,0,0,1,7117.471,4342.512Zm.614-29.372a15.072,15.072,0,0,0-2.478.189,12.351,12.351,0,1,0,10.786,20.887l2.647,2.629a20.48,20.48,0,0,0,2.85-15.655c-.4-1.715-1.434-4.807-3.833-6.246a13.3,13.3,0,0,0-4.953-1.356A36.653,36.653,0,0,0,7118.085,4313.14Z" fill="#fff"></path>
    </g>
    <g id="Group_3205" data-name="Group 3205">
      <path id="Path_126129" data-name="Path 126129" d="M7242.053,4255.423a22.679,22.679,0,0,0,4.194-18.9c-.716-3.057-2.226-6.119-4.919-7.733a15.324,15.324,0,0,0-5.839-1.67,27.222,27.222,0,0,0-8.21-.251,14.714,14.714,0,1,0,12.847,24.884" fill="#fff"></path>
      <path id="Path_126130" data-name="Path 126130" d="M7229.527,4258.381a16.732,16.732,0,0,1-7.523-1.745,17.077,17.077,0,0,1,4.889-32.1,29.408,29.408,0,0,1,8.924.242,17.243,17.243,0,0,1,6.726,1.984c3.7,2.214,5.306,6.236,6,9.219a24.913,24.913,0,0,1-4.637,20.9l-3.17-2.493A17.566,17.566,0,0,1,7229.527,4258.381Zm.611-29.373a15.161,15.161,0,0,0-2.473.189,12.352,12.352,0,1,0,10.784,20.888l2.648,2.629a20.479,20.479,0,0,0,2.849-15.656c-.4-1.715-1.433-4.807-3.832-6.244a13.285,13.285,0,0,0-4.953-1.357A36.512,36.512,0,0,0,7230.138,4229.008Z" fill="#fff"></path>
    </g>
    <g id="Group_3206" data-name="Group 3206">
      <path id="Path_126131" data-name="Path 126131" d="M7381.378,4270.108a22.68,22.68,0,0,0,4.194-18.9c-.716-3.057-2.226-6.12-4.919-7.734a15.321,15.321,0,0,0-5.839-1.669,27.24,27.24,0,0,0-8.21-.251,14.715,14.715,0,1,0,12.847,24.884" fill="#fff"></path>
      <path id="Path_126132" data-name="Path 126132" d="M7368.853,4273.066a16.73,16.73,0,0,1-7.525-1.745,17.077,17.077,0,0,1,4.889-32.1,29.388,29.388,0,0,1,8.925.242,17.266,17.266,0,0,1,6.725,1.983c3.7,2.216,5.308,6.239,6,9.222a24.9,24.9,0,0,1-4.638,20.9l-3.169-2.493A17.556,17.556,0,0,1,7368.853,4273.066Zm.609-29.373a15.166,15.166,0,0,0-2.473.19,12.352,12.352,0,1,0,10.784,20.888l2.649,2.628a20.473,20.473,0,0,0,2.849-15.654c-.4-1.716-1.432-4.807-3.833-6.245a13.256,13.256,0,0,0-4.953-1.357A36.357,36.357,0,0,0,7369.462,4243.693Z" fill="#fff"></path>
    </g>
    <path id="Path_126133" data-name="Path 126133" d="M6986.1,4226.61l-4.694-.552a223.391,223.391,0,0,1,82.354-147.727l2.937,3.7A218.624,218.624,0,0,0,6986.1,4226.61Z" fill="#fff"></path>
    <path id="Path_126134" data-name="Path 126134" d="M7021.965,4212.875l-4.633-.936a172.976,172.976,0,0,1,60.054-99.529l2.986,3.662A170.579,170.579,0,0,0,7021.965,4212.875Z" fill="#fff"></path>
    <path id="Path_126135" data-name="Path 126135" d="M7058.6,4198.409l-4.684-.633c1.028-7.609,2.424-15.695,5.646-23.28a54.11,54.11,0,0,1,17.1-21.938l2.854,3.765a49.4,49.4,0,0,0-15.6,20.021C7060.9,4183.414,7059.578,4191.127,7058.6,4198.409Z" fill="#fff"></path>
    <path id="Path_126136" data-name="Path 126136" d="M7073.3,4164.289c-17.274-13.661-35.181-26.976-53.224-39.574l2.705-3.875c18.12,12.652,36.1,26.023,53.45,39.742Z" fill="#fff"></path>
    <path id="Path_126137" data-name="Path 126137" d="M7083.161,4148.2a390.447,390.447,0,0,0-40.047-45.739l3.3-3.381a395.258,395.258,0,0,1,40.533,46.294Z" fill="#fff"></path>
    <rect id="Rectangle_3258" data-name="Rectangle 3258" width="4.725" height="37.229" transform="translate(7004.064 4171.625) rotate(-66.831)" fill="#fff"></rect>
    <path id="Path_126138" data-name="Path 126138" d="M7036.17,4223.479l-3.166-3.507a20.093,20.093,0,0,1,5.975-3.734l1.765,4.383A15.418,15.418,0,0,0,7036.17,4223.479Z" fill="#fff"></path>
    <rect id="Rectangle_3259" data-name="Rectangle 3259" width="2.949" height="4.726" transform="translate(7050.236 4215.369) rotate(-63.308)" fill="#fff"></rect>
    <path id="Path_126139" data-name="Path 126139" d="M7103.161,4156.449" fill="#fff"></path>
    <path id="Path_126140" data-name="Path 126140" d="M6986.792,4255.48a12.978,12.978,0,0,1-3.634-.512l1.324-4.537a8.712,8.712,0,0,0,7.72-1.552l2.973,3.674A13.4,13.4,0,0,1,6986.792,4255.48Z" fill="#fff"></path>
    <path id="Path_126141" data-name="Path 126141" d="M7104.447,4105.014l-2.58-3.959a28.939,28.939,0,0,0,6.73-6.076l3.675,2.968A33.644,33.644,0,0,1,7104.447,4105.014Z" fill="#fff"></path>
    <path id="Path_126142" data-name="Path 126142" d="M7079.384,4092.545l-3.856-2.732a58.972,58.972,0,0,0,6.326-11.42l4.362,1.818A63.788,63.788,0,0,1,7079.384,4092.545Z" fill="#fff"></path>
    <path id="Path_126143" data-name="Path 126143" d="M7089.019,4060.339l-2.041-4.262a26.527,26.527,0,0,1,15.933-2.184l-.818,4.654A21.747,21.747,0,0,0,7089.019,4060.339Z" fill="#fff"></path>
    <path id="Path_126144" data-name="Path 126144" d="M7133.588,4086.634a11.146,11.146,0,0,0-7.077-4.319l.767-4.662a15.914,15.914,0,0,1,10.1,6.164Z" fill="#fff"></path>
    <path id="Path_126145" data-name="Path 126145" d="M7159.727,4061.87l-4.44-1.617a5.406,5.406,0,0,0-8.682-5.88l-3.15-3.523a10.131,10.131,0,0,1,16.272,11.02Z" fill="#fff"></path>
    <path id="Path_126146" data-name="Path 126146" d="M7153.977,4112.01c-.117,0-.233,0-.349-.006l.168-4.723a5.615,5.615,0,0,0,4.271-1.852l3.563,3.1A10.239,10.239,0,0,1,7153.977,4112.01Z" fill="#fff"></path>
    <path id="Path_126147" data-name="Path 126147" d="M6560.253,4238.641c1.663-6.961,7.272-12.259,13.852-14.732a26.744,26.744,0,0,1,11.027-1.842,28.792,28.792,0,0,1,11.25,2.984c15.59,7.663,25.307,25.934,26.317,42.852.528,8.852-1.252,17.71-6.358,25.1a17.827,17.827,0,0,1-9.015,6.825,7.763,7.763,0,0,1-4.686.091,6.058,6.058,0,0,1-3.279-2.759,8.87,8.87,0,0,1-1-4.778,15.154,15.154,0,0,1,1.2-5.375,23.882,23.882,0,0,1,2.417-4.034,23.167,23.167,0,0,1,1.891-2.073q.446-.435.915-.846.234-.207.474-.406c-.012.01.714-.571.371-.308a23.9,23.9,0,0,1,9.617-4.5,20.538,20.538,0,0,1,4.976-.652q1.335-.037,2.668.055a13.847,13.847,0,0,1,2.458.322,19.469,19.469,0,0,1,9.337,4.316,31.566,31.566,0,0,1,7.987,10.7,61.4,61.4,0,0,1,4.27,12.857,99.571,99.571,0,0,1,2.4,16.448c.17,2.784.221,5.572.173,8.361-.066,3.862,5.934,3.863,6,0,.2-11.811-1.292-24.155-5.385-35.289-3.474-9.449-9.424-18.283-19.146-22.017-8.028-3.084-17.464-2-24.958,2.027-7.787,4.184-14.225,12.555-13.637,21.757.329,5.141,2.987,9.749,7.9,11.7,4.518,1.8,9.692.385,13.665-2.087,8.8-5.476,13.14-16.088,14.424-25.989,2.6-20.008-6.828-42.022-23.114-53.923-7.822-5.715-17.4-8.472-27.016-6.85-8.635,1.458-17.11,6.591-21.409,14.371a24.408,24.408,0,0,0-2.37,6.1c-.9,3.754,4.888,5.355,5.786,1.6Z" fill="#6ad1e3"></path>
    <path id="Path_126148" data-name="Path 126148" d="M6744.817,4173.6a853.08,853.08,0,0,1,14.045,88.694q1.323,12.671,2.269,25.376a3.074,3.074,0,0,0,3,3,3.024,3.024,0,0,0,3-3,867.989,867.989,0,0,0-11.6-90.669q-2.28-12.534-4.932-25a3,3,0,0,0-5.785,1.6Z" fill="#6ad1e3"></path>
    <path id="Path_126149" data-name="Path 126149" d="M6879.828,4157.1q-2.54,45.849-8.194,91.451-1.563,12.584-3.371,25.138a3.1,3.1,0,0,0,2.095,3.69c1.409.387,3.458-.481,3.69-2.095q6.6-45.849,10.083-92.071.977-13.047,1.7-26.113a3,3,0,0,0-6,0Z" fill="#6ad1e3"></path>
    <path id="Path_126150" data-name="Path 126150" d="M6510.845,4381.268a274.183,274.183,0,0,1,42.791,23.557q5.755,3.877,11.307,8.043c1.3.972,3.352.21,4.1-1.076a3.074,3.074,0,0,0-1.077-4.1,274.153,274.153,0,0,0-41.538-25.7q-6.2-3.109-12.56-5.9a3.1,3.1,0,0,0-4.1,1.076c-.746,1.274-.415,3.449,1.076,4.1Z" fill="#6ad1e3"></path>
    <path id="Path_126151" data-name="Path 126151" d="M7114.465,4810.6q31.032-22.668,60.008-47.985,28.805-25.2,55.313-52.874,14.834-15.494,28.889-31.709a3.075,3.075,0,0,0,0-4.243,3.028,3.028,0,0,0-4.243,0q-25,28.833-52.461,55.394-27.275,26.364-56.784,50.274-16.547,13.4-33.75,25.962a3.088,3.088,0,0,0-1.076,4.1,3.023,3.023,0,0,0,4.1,1.076Z" fill="#6ad1e3"></path>
    <path id="Path_126152" data-name="Path 126152" d="M7216.85,4815.447l51.137-52.479,14.611-14.994c2.7-2.767-1.542-7.014-4.242-4.242l-51.138,52.479-14.611,14.993c-2.7,2.768,1.542,7.015,4.243,4.243Z" fill="#6ad1e3"></path>
  </g>
</svg>
