<?xml version="1.0" encoding="UTF-8"?>
<svg xmlns="http://www.w3.org/2000/svg" width="960" height="662.637" viewBox="0 0 960 662.637">
  <g id="Group_3686" data-name="Group 3686" transform="translate(16258.58 -12478.17)">
    <path id="Path_127840" data-name="Path 127840" d="M6508.118,6963.5a14.486,14.486,0,0,0-4.723.1,74.108,74.108,0,0,0-35.571,16.593,9.356,9.356,0,0,1-3.8,2.363c-2.195.5-4.394-.653-6.339-1.747-13.79-7.747-29.723-14.651-45.326-11.242-2.862.625-5.809,1.705-7.561,3.951-2.125,2.724-1.983,6.433-1.748,9.82.844,12.1,1.481,24.207,2.089,36.318.3,5.95.691,11.9.893,17.857.156,4.581-.073,9.494,2.9,13.4,3.5,4.592,8.727,7.666,13.814,10.622l15.824,9.2c2.617,1.521,5.308,3.069,8.323,3.6,3.837.674,7.756-.376,11.477-1.5a250.376,250.376,0,0,0,33.037-12.591c5.406-2.512,10.973-5.441,14.092-10.342,2.369-3.72,3.051-8.165,3.685-12.474q3.9-26.481,7.792-52.967c1.225-8.326.9-19.4-8.859-20.959" transform="translate(-22319.766 5922.996)" fill="#703dc1"></path>
    <path id="Path_127841" data-name="Path 127841" d="M6449.406,7076.8a16.8,16.8,0,0,1-2.9-.245c-3.447-.6-6.433-2.34-9.065-3.87l-15.826-9.2c-4.988-2.9-10.644-6.187-14.473-11.2-3.094-4.062-3.213-8.921-3.321-13.207-.011-.5-.024-.992-.041-1.482-.135-3.963-.359-8-.574-11.912-.109-1.969-.219-3.94-.317-5.91-.55-10.944-1.208-23.676-2.087-36.273-.216-3.116-.542-7.825,2.221-11.365,1.792-2.3,4.688-3.857,8.857-4.768,16.9-3.691,33.947,4.2,46.913,11.479,1.731.974,3.4,1.82,4.731,1.516a7.357,7.357,0,0,0,2.7-1.763l.133-.114a75.877,75.877,0,0,1,36.66-17.106,16.659,16.659,0,0,1,5.459-.108c8.942,1.434,12.754,9.785,10.734,23.516l-7.792,52.967c-.631,4.3-1.348,9.17-4.012,13.358-3.491,5.484-9.6,8.644-15.046,11.176a253.343,253.343,0,0,1-33.336,12.705,33.661,33.661,0,0,1-9.617,1.807m-28.647-105.858a37.112,37.112,0,0,0-7.919.832c-3.095.679-5.145,1.7-6.262,3.137-1.569,2.01-1.5,5.062-1.276,8.276.881,12.637,1.541,25.4,2.091,36.359q.149,2.944.315,5.888c.218,3.932.442,8,.58,12.006.017.506.029,1.014.043,1.524.1,3.953.19,7.685,2.4,10.582,3.284,4.3,8.3,7.22,13.152,10.039l15.826,9.2c2.419,1.4,4.921,2.86,7.578,3.327,3.317.584,6.827-.347,10.434-1.439a248.776,248.776,0,0,0,32.74-12.475c4.87-2.263,10.3-5.05,13.139-9.508,2.148-3.375,2.761-7.551,3.356-11.59l7.792-52.967c1.132-7.7.841-17.15-6.984-18.4h0a12.213,12.213,0,0,0-3.988.1,72.335,72.335,0,0,0-34.48,16.081l-.131.112a11.018,11.018,0,0,1-4.632,2.737c-3.145.722-6.037-.9-7.95-1.979-10.178-5.718-22.963-11.839-35.821-11.839" transform="translate(-22319.766 5922.996)" fill="#703dc1"></path>
    <path id="Path_127842" data-name="Path 127842" d="M6518.038,7189.31a7.635,7.635,0,0,0-1.139-4.11c-3.139-4.145-9.566,1.01-14.736.461-6.187-.658-11.316-9.714-16.511-6.287-1.6,1.053-2.322,3-3.554,4.462-3.414,4.069-9.705,3.666-14.923,2.669-10.474-2-21.116-5.149-29.238-12.058-8.645-7.354-13.661-18.313-22.46-25.482-10.485-8.542-25.985-11.494-32.646-23.263-6.465-11.419-1.793-26.821-8.62-38.029-4.678-7.683-13.809-11.565-22.7-12.961s-2.431-.79-11.354-1.942a11.007,11.007,0,0,1-5.747-1.978c-1.789-1.49-2.537-3.862-3.137-6.112a133.58,133.58,0,0,1-4.013-42.534c.823-13.452,4.6-25.729,7.324-38.784,1.392-6.67.437-13.645-5.588-17.7-11.7-7.88-28.936-6.1-39.291,3.266-20.24,18.31-20.683,48.372-21.92,73.6-1.75,35.618-2.511,71.26-2.511,106.919.051,17.88.246,35.743.246,53.622.058,1.484.19,3.136,1.29,4.133a5.68,5.68,0,0,0,3.794,1l224.017,4.444c6.933.138,14.765-.084,19.481-5.168,4.342-4.681,4.419-11.8,3.933-18.168" transform="translate(-22319.766 5922.996)" fill="#f04e98"></path>
    <rect id="Rectangle_4005" data-name="Rectangle 4005" width="252.96" height="251.98" transform="translate(-16054.486 12883.686)" fill="none"></rect>
    <path id="Path_127843" data-name="Path 127843" d="M6457.79,6723.489c7.026-.428,13.691,2.836,19.973,6.015L6705.58,6844.83c18.657,9.444,37.785,19.246,51.66,34.891,23.168,26.122,27.6,63.429,30.461,98.226q9.563,116.172,11.612,232.8l161.388.071q-2.045-116.58-11.614-232.866c-2.864-34.8-7.293-72.1-30.461-98.226-13.875-15.645-33-25.447-51.66-34.891L6639.149,6729.5c-6.282-3.179-12.946-6.443-19.974-6.015-5.2.318-156.666-3.126-161.342-.83q-1.089.532-2.146,1.07c.694-.113,1.4-.2,2.1-.24" transform="translate(-22319.766 5922.996)" fill="#6ad1e3"></path>
    <rect id="Rectangle_4006" data-name="Rectangle 4006" width="505.01" height="488.95" transform="translate(-15864.076 12644.855)" fill="none"></rect>
    <rect id="Rectangle_4007" data-name="Rectangle 4007" width="960" height="4.514" transform="translate(-16258.58 13131.441)" fill="#360484"></rect>
    <path id="Path_127844" data-name="Path 127844" d="M6797.06,7210.853c-1.357-77.334-5.262-155.632-11.607-232.719-3.022-36.714-7.583-71.752-29.9-96.916-13.781-15.537-33.55-25.545-50.991-34.374l-227.818-115.326c-5.722-2.9-12.21-6.187-18.817-5.776-4.875.3-9.648,2.64-13.859,4.707a2291.479,2291.479,0,0,0-261.5,150.525c-6.527,4.355-14.649,9.775-18.679,17.569-4.145,8.013-3.744,17.789-3.391,26.414l11.715,285.485-4.509.185-11.714-285.484c-.359-8.731-.805-19.6,3.889-28.673,4.567-8.828,13.226-14.607,20.184-19.25A2296.047,2296.047,0,0,1,6442.081,6726.4c4.59-2.253,9.794-4.807,15.57-5.16,7.833-.475,15.206,3.255,21.131,6.255L6706.6,6842.817c17.8,9.012,37.979,19.226,52.33,35.407,23.221,26.182,28.057,63.53,31.022,99.539,6.353,77.185,10.262,155.58,11.621,233.012Z" transform="translate(-22319.766 5922.996)" fill="#360484"></path>
    <path id="Path_127845" data-name="Path 127845" d="M6918.627,6879.721c-13.875-15.645-33-25.446-51.661-34.891L6639.149,6729.5c-6.281-3.18-12.946-6.445-19.973-6.015-5.2.316-156.667-3.126-161.343-.831q-1.089.532-2.146,1.069c.694-.112,1.4-.195,2.1-.238,7.027-.43,13.692,2.835,19.973,6.015L6705.58,6844.83c18.657,9.445,37.786,19.246,51.661,34.891a88.654,88.654,0,0,1,9.026,12.175h161.386a88.654,88.654,0,0,0-9.026-12.175" transform="translate(-22319.766 5922.996)" fill="#360484"></path>
    <path id="Path_127846" data-name="Path 127846" d="M6931.706,6894.152H6765.011l-.662-1.068a86.926,86.926,0,0,0-8.8-11.866c-13.78-15.538-33.55-25.545-50.992-34.375l-227.817-115.325c-5.721-2.9-12.209-6.179-18.817-5.776a18.856,18.856,0,0,0-1.881.214l-14.332,2.316,12.953-6.557q1.072-.541,2.171-1.082c2.878-1.412,33.924-1.374,127.765.154,18.439.3,33.008.537,34.435.45,7.83-.478,15.205,3.254,21.131,6.254l227.817,115.326c17.8,9.011,37.977,19.225,52.329,35.407a91.358,91.358,0,0,1,9.256,12.484Zm-164.192-4.513h155.978a85.115,85.115,0,0,0-6.554-8.421c-13.781-15.539-33.549-25.546-50.991-34.375l-227.816-115.325c-5.723-2.9-12.208-6.18-18.818-5.776-1.53.092-12.981-.087-34.784-.443-32.789-.533-87.527-1.425-112.722-1.127,2.485,1.046,4.826,2.231,6.976,3.319L6706.6,6842.817c17.8,9.012,37.979,19.225,52.33,35.407a90.9,90.9,0,0,1,8.585,11.415" transform="translate(-22319.766 5922.996)" fill="#360484"></path>
    <path id="Path_127847" data-name="Path 127847" d="M6404.672,7089.317a62.678,62.678,0,0,1-30.826-8.352c-13.615-7.755-25.243-20.549-33.629-37l4.021-2.049c7.984,15.664,18.994,27.811,31.841,35.128,14.57,8.3,31.635,10.065,45.644,4.728,11.6-4.424,21.972-13.977,29.192-26.9,5.734-10.264,9.632-22.337,12.64-39.153.381-2.134.683-4.343-.168-5.837a2.33,2.33,0,0,0-1.6-1.007,6.057,6.057,0,0,1-2,1.057l-6.1,1.864,3.575-5.286a4.829,4.829,0,0,1,2.234-1.794,2.76,2.76,0,0,0,.242-.566,2.117,2.117,0,0,0-.237-1.921,1.951,1.951,0,0,0-1.415-.625,4.605,4.605,0,0,1-4.309,2.12l-3.4-.33,1.633-3a6.191,6.191,0,0,1,2.591-2.51,1.244,1.244,0,0,0-.272-.732c-1.35-1.427-4.256-.988-5.441-.735-10.236,2.2-17.2,10.575-24.582,19.445-2.727,3.28-5.548,6.673-8.538,9.7-2.088,2.116-4.667,4.354-7.98,4.925-3.944.682-7.54-1.131-10.84-3.187-10.8-6.727-21.145-15.516-32.555-27.659-9.63-10.244-20.7-24.1-20.848-40.421-.106-11.653,5.34-22.313,10.145-31.719,3.575-7,8.475-16.588,17.38-20.828,8.86-4.22,19.09-2.115,28.828.789,6.979,2.081,14.811,4.835,19.419,11.2,4.445,6.145,4.738,14.222,4.5,20.572a128.066,128.066,0,0,1-4.322,28.43l-4.357-1.176a123.383,123.383,0,0,0,4.168-27.426c.228-5.975-.027-12.757-3.644-17.755-3.779-5.224-10.5-7.569-17.051-9.525-8.873-2.645-18.116-4.6-25.6-1.038-6.958,3.311-11.046,10.476-15.3,18.807-4.569,8.943-9.747,19.078-9.651,29.624.133,14.759,10.557,27.726,19.623,37.373,11.135,11.849,21.193,20.4,31.653,26.918,2.543,1.584,5.235,2.993,7.688,2.568,2.049-.351,3.87-1.96,5.532-3.646,2.855-2.9,5.615-6.212,8.283-9.421,7.543-9.069,15.342-18.448,27.106-20.969,4.144-.889,7.572-.162,9.662,2.042a5.685,5.685,0,0,1,1.46,3.123,6.315,6.315,0,0,1,3.928,2.2,6.493,6.493,0,0,1,1.2,5.537,6.618,6.618,0,0,1,3.1,2.736c1.595,2.8,1.19,6.046.687,8.865-3.1,17.33-7.153,29.839-13.143,40.559-7.735,13.845-18.931,24.114-31.523,28.915a52.381,52.381,0,0,1-18.659,3.329" transform="translate(-22319.766 5922.996)" fill="#360484"></path>
    <path id="Path_127848" data-name="Path 127848" d="M6384.546,6956.668l-1.536-3.41a8.127,8.127,0,0,1,.261-6.976l-1.1-1.171a3.583,3.583,0,0,1,2.7-.964c.149-.138.3-.271.464-.4l.446.567c.1.029.192.061.287.1a4.649,4.649,0,0,1,2.956,3.837c.2,2.41-1.29,4.324-2.183,5.466Zm-.015-8.019h0l0-.017a.033.033,0,0,1,0,.017" transform="translate(-22319.766 5922.996)" fill="#360484"></path>
    <path id="Path_127849" data-name="Path 127849" d="M6402.972,6956.668l-1.536-3.41a8.127,8.127,0,0,1,.261-6.976l-1.1-1.17a3.532,3.532,0,0,1,2.7-.965c.148-.138.3-.271.463-.4l.446.565c.1.031.192.063.288.1a4.651,4.651,0,0,1,2.956,3.837c.2,2.41-1.29,4.324-2.183,5.466Zm-.015-8.019h0l0-.017a.049.049,0,0,1,0,.017" transform="translate(-22319.766 5922.996)" fill="#360484"></path>
    <path id="Path_127850" data-name="Path 127850" d="M6351.03,6946.151a39.581,39.581,0,0,1-9.2-1.077l1.05-4.389c11.053,2.645,23.4-.529,32.138-7.818a8.6,8.6,0,0,1-1.81-6.062,6.737,6.737,0,0,1,2.46-4.733,6.1,6.1,0,0,1,6.99-.166,5.139,5.139,0,0,1,2.56,5.465,7.68,7.68,0,0,1-1.655,3.152q-.671.855-1.385,1.668a14.7,14.7,0,0,0,2.747.466c11.32.888,21.727-6.86,31.413-14.88l2.877,3.475c-10.4,8.611-21.646,16.947-34.645,15.9a16.654,16.654,0,0,1-5.89-1.455,42.048,42.048,0,0,1-27.645,10.45m28.117-20.739a1.093,1.093,0,0,0-.677.193,2.3,2.3,0,0,0-.773,1.616,4.154,4.154,0,0,0,.615,2.51q.886-.963,1.694-1.992a4.034,4.034,0,0,0,.793-1.306c.067-.316-.461-.653-.521-.69a2.216,2.216,0,0,0-1.131-.331" transform="translate(-22319.766 5922.996)" fill="#360484"></path>
    <path id="Path_127851" data-name="Path 127851" d="M6462.942,7190.021a25.3,25.3,0,0,1-2.7-.143c-10.942-1.17-20.692-9.541-28.979-24.879l-.573-1.066a38.866,38.866,0,0,0-5.09-7.933c-3.4-3.754-8.148-5.933-13.171-8.239-1.382-.636-2.761-1.268-4.11-1.934a77.379,77.379,0,0,1-26.065-20.994l3.528-2.814a72.838,72.838,0,0,0,24.535,19.761c1.311.647,2.652,1.263,3.994,1.88,5.216,2.394,10.609,4.87,14.633,9.309a42.845,42.845,0,0,1,5.724,8.832l.565,1.053c7.537,13.952,16.114,21.534,25.489,22.536,11.457,1.229,21.918-7.522,30.819-15.816l8.08-7.529c3.438-3.2,6.568-6.4,7.092-10.2a6.336,6.336,0,0,0-2.252-5.4,3.04,3.04,0,0,0-2.962-.7,10.816,10.816,0,0,0-2.89,1.991c-1.945,1.636-4.363,3.679-7.586,2.705-3.709-1.116-4.62-5.328-5.058-7.353a107.985,107.985,0,0,0-48.246-68l2.357-3.847a112.573,112.573,0,0,1,50.3,70.894c.366,1.693.918,3.675,1.949,3.985.82.25,1.824-.529,3.376-1.836a14.4,14.4,0,0,1,4.274-2.787,7.476,7.476,0,0,1,7.33,1.442,10.823,10.823,0,0,1,3.879,9.518c-.727,5.275-4.429,9.106-8.487,12.887l-8.079,7.528c-8.976,8.365-19.484,17.146-31.68,17.146" transform="translate(-22319.766 5922.996)" fill="#360484"></path>
    <path id="Path_127852" data-name="Path 127852" d="M6502.941,7183.533a18.539,18.539,0,0,1-11.859-4.212l2.892-3.465a14.305,14.305,0,0,0,15.83,1.374c3.295-1.9,5.784-5.11,8.192-8.218l15.275-19.712a12.235,12.235,0,0,0,2.1-3.393c1.044-3.223-1.941-6.968-5.308-8.161-4.032-1.432-8.762-.6-12.936.129l-2.336.408-.292-2.353c-3.589-28.877-11.97-50.523-25.62-66.171-1.691-1.94-3.561-3.861-5.779-4.783l1.733-4.166c3.075,1.278,5.4,3.63,7.448,5.982,13.885,15.919,22.529,37.6,26.393,66.243,4.01-.639,8.6-1.065,12.9.456,5.442,1.931,9.992,7.94,8.093,13.807a15.815,15.815,0,0,1-2.831,4.765l-15.274,19.713c-2.551,3.292-5.442,7.023-9.507,9.365a18.27,18.27,0,0,1-9.116,2.392" transform="translate(-22319.766 5922.996)" fill="#360484"></path>
    <path id="Path_127853" data-name="Path 127853" d="M6385.466,6975.831a63.571,63.571,0,0,1-7.153-4.094,19.968,19.968,0,0,1-4.171-3.452,9.627,9.627,0,0,1-2.5-5.657l4.5-.293a5.261,5.261,0,0,0,1.394,2.987,16.018,16.018,0,0,0,3.26,2.653,58.893,58.893,0,0,0,6.643,3.8Z" transform="translate(-22319.766 5922.996)" fill="#360484"></path>
    <path id="Path_127854" data-name="Path 127854" d="M6363.51,7074.886a125.466,125.466,0,0,0-17.925-1.762c-9.308-.467-18.933-.952-27.827-4.6l1.716-4.174c8.177,3.358,17,3.8,26.339,4.272a129.04,129.04,0,0,1,18.575,1.841Z" transform="translate(-22319.766 5922.996)" fill="#360484"></path>
    <path id="Path_127855" data-name="Path 127855" d="M6385.174,7139.817c-4.709-7.53-5.517-16.357-6.3-24.892-.576-6.291-1.171-12.8-3.361-18.537l4.217-1.607c2.411,6.321,3.035,13.138,3.638,19.733.767,8.378,1.491,16.291,5.63,22.911Z" transform="translate(-22319.766 5922.996)" fill="#360484"></path>
    <path id="Path_127856" data-name="Path 127856" d="M6284.507,7076.36l-4.139-1.8a16.154,16.154,0,0,1,10.611-9.029l1.115,4.373a11.554,11.554,0,0,0-7.587,6.456" transform="translate(-22319.766 5922.996)" fill="#f04e98"></path>
    <rect id="Rectangle_4008" data-name="Rectangle 4008" width="11.264" height="4.513" transform="translate(-16025.082 13023.9) rotate(-26.099)" fill="#f04e98"></rect>
    <path id="Path_127857" data-name="Path 127857" d="M6322.834,7086.652a15.838,15.838,0,0,0-7.376-.549l-.731-4.454a20.326,20.326,0,0,1,9.49.708Z" transform="translate(-22319.766 5922.996)" fill="#f04e98"></path>
    <path id="Path_127858" data-name="Path 127858" d="M6330.559,7110.816a1.562,1.562,0,0,0-1.891-.67l-2.018-4.036a6.047,6.047,0,0,1,8.019,2.846Z" transform="translate(-22319.766 5922.996)" fill="#f04e98"></path>
    <rect id="Rectangle_4009" data-name="Rectangle 4009" width="2.519" height="4.514" transform="translate(-15984.533 13069.201)" fill="#f04e98"></rect>
    <path id="Path_127859" data-name="Path 127859" d="M6286.654,7158.1l-4.4-.984a19.921,19.921,0,0,1,9.981-13.1l2.115,3.986a15.354,15.354,0,0,0-7.692,10.093" transform="translate(-22319.766 5922.996)" fill="#f04e98"></path>
    <path id="Path_127860" data-name="Path 127860" d="M6356.664,7138.541a3.151,3.151,0,0,0-2.428-.442l-1.047-4.391a7.7,7.7,0,0,1,6,1.1Z" transform="translate(-22319.766 5922.996)" fill="#f04e98"></path>
    <path id="Path_127861" data-name="Path 127861" d="M6358.272,7171.833a5.356,5.356,0,0,1-1.934-.422l.779-2.025a1.828,1.828,0,0,0,1.431,1l.479-4.489a2.74,2.74,0,0,1,2.391,2.245,3.081,3.081,0,0,1-1.543,3.3,3.407,3.407,0,0,1-1.6.389m-.392-4.434.078-.2a2.443,2.443,0,0,0,.375.125.97.97,0,0,0-.453.076" transform="translate(-22319.766 5922.996)" fill="#f04e98"></path>
    <rect id="Rectangle_4010" data-name="Rectangle 4010" width="4.513" height="15.204" transform="translate(-16006.588 13104.125) rotate(-84.732)" fill="#f04e98"></rect>
    <path id="Path_127862" data-name="Path 127862" d="M6414.743,7187.374a12.376,12.376,0,0,0-7.805-1.411l-.673-4.463a16.882,16.882,0,0,1,10.671,1.931Z" transform="translate(-22319.766 5922.996)" fill="#f04e98"></path>
    <path id="Path_127863" data-name="Path 127863" d="M6409.8,7162.856a12,12,0,0,0-8.522-1.167l-1.051-4.388a16.564,16.564,0,0,1,11.765,1.611Z" transform="translate(-22319.766 5922.996)" fill="#f04e98"></path>
    <rect id="Rectangle_4011" data-name="Rectangle 4011" width="0.52" height="4.514" transform="translate(-15858.59 13122.938)" fill="#f04e98"></rect>
    <path id="Path_127864" data-name="Path 127864" d="M6300.7,7029.941a7.809,7.809,0,0,1-4.547-1.4l2.621-3.674a4.14,4.14,0,0,0,5.891-2.071l4.343,1.222a8.243,8.243,0,0,1-5.318,5.41,9,9,0,0,1-2.99.518" transform="translate(-22319.766 5922.996)" fill="#f04e98"></path>
    <path id="Path_127865" data-name="Path 127865" d="M6300.466,6988.412l-1.092-4.379a52.191,52.191,0,0,1,12.337-1.55l.024,4.515a47.642,47.642,0,0,0-11.269,1.414" transform="translate(-22319.766 5922.996)" fill="#f04e98"></path>
    <rect id="Rectangle_4012" data-name="Rectangle 4012" width="4.514" height="5.878" transform="matrix(0.007, -1, 1, 0.007, -16002.18, 12900.551)" fill="#f04e98"></rect>
    <path id="Path_127866" data-name="Path 127866" d="M6479.418,7003.272l-3.056-3.319a45.367,45.367,0,0,1,22.213-11.184l.847,4.434a41.423,41.423,0,0,0-20,10.069" transform="translate(-22319.766 5922.996)" fill="#f04e98"></path>
    <path id="Path_127867" data-name="Path 127867" d="M6484.938,7017.244l-3.769-2.482a21.16,21.16,0,0,1,13.978-9.084l.738,4.453a16.573,16.573,0,0,0-10.947,7.113" transform="translate(-22319.766 5922.996)" fill="#f04e98"></path>
    <path id="Path_127868" data-name="Path 127868" d="M6840.149,7064.373a4.852,4.852,0,0,1-2.351-.527c-2.2-1.177-2.47-3.81-2.586-4.934L6826.1,6971.1l4.489-.464,9.108,87.8a4.7,4.7,0,0,0,.288,1.423c.122,0,.394-.013.555-.019l73.682-2.925c1.649-.065,2.979-.164,3.86-.8,1.92-1.377,1.689-5.178,1.347-7.917l-9.026-72.447c-24.378.557-49.533,1.1-74.331.387l.129-4.511c25.378.728,51.182.138,76.137-.435l2.039-.047,9.531,76.494c.524,4.211.635,9.4-3.2,12.143-2.049,1.471-4.512,1.567-6.31,1.639l-73.684,2.924c-.172.007-.364.014-.571.014" transform="translate(-22319.766 5922.996)" fill="#f04e98"></path>
    <rect id="Rectangle_4013" data-name="Rectangle 4013" width="4.513" height="91.07" transform="translate(-15451.14 12895.602) rotate(-6.278)" fill="#f04e98"></rect>
    <path id="Path_127869" data-name="Path 127869" d="M6189.075,6686.1l-.174-4.51,48.474-1.859a11.927,11.927,0,0,1-1.468-4.982,14.6,14.6,0,0,1,6.25-13.267c6.034-3.837,13.155-3.094,18.63-1.475a43.115,43.115,0,0,1,.851-29.942c4.617-11.98,13.55-21.093,24.5-25s23.639-2.508,34.8,3.843c9.551,5.436,16.554,13.683,19.774,23.1,6.839-9.471,15.3-17.937,26.532-17.4,10.366.5,18.625,8.317,24.61,23.267a15.7,15.7,0,0,1,10.861-8.4c8.628-1.59,15.984,4.143,22.47,9.206,1.023.8,2.039,1.59,3.044,2.344,4.906,3.673,11.182,5.6,15.622,4.787a7.419,7.419,0,0,0,5.161-3.34l3.806,2.425a11.914,11.914,0,0,1-8.157,5.355c-6.909,1.26-14.624-2.237-19.136-5.614-1.029-.771-2.068-1.582-3.117-2.4-6.017-4.7-12.241-9.55-18.873-8.325a11.4,11.4,0,0,0-8.786,12.4l-4.391,1c-5.485-18.232-13.336-27.721-23.332-28.2-10.58-.515-18.747,9.537-25.353,19.43l-3.04,4.551-1.051-5.372c-1.98-10.124-8.86-19.2-18.875-24.9s-21.333-6.981-31.048-3.515-17.667,11.623-21.811,22.374-3.726,22.134,1.149,31.226l3.129,5.835-6.042-2.71c-4.528-2.033-13.085-4.832-19.5-.749a10.119,10.119,0,0,0-4.173,9.1c.118,1.494.708,4.172,3.341,5.314l9.091,3.945Z" transform="translate(-22319.766 5922.996)" fill="#360484"></path>
    <path id="Path_127870" data-name="Path 127870" d="M6868.126,6703.878l-1.728-15.812c-.584-5.346-1.188-10.875-3.588-15.6-2.469-4.859-6.834-8.044-11.121-8.113-5.391-.128-10.087,4.353-13.559,8.231l-2.537,2.835-1.272-3.585c-3.384-9.543-7.755-19.968-16.828-22.875-5.427-1.739-11.14-.164-14.978,1.463-14.988,6.357-24.538,23.609-22.157,39.682a6.845,6.845,0,0,1,.23,1.479l-4.473.514c-.06-.327-.116-.656-.168-.984a3.073,3.073,0,0,0-1.495-1.567,5.868,5.868,0,0,0-5.444.015c-3.1,1.855-4.709,5.771-6.211,9.962l-.611,1.706-1.8-.229a173.443,173.443,0,0,0-33.414-1l-.3-4.5a177.938,177.938,0,0,1,32.5.811c1.648-4.344,3.637-8.3,7.522-10.618a10.325,10.325,0,0,1,8.8-.62c.057-16.249,10.219-32.419,25.264-38.8,4.541-1.925,11.369-3.767,18.117-1.606,9.446,3.026,14.579,12.18,18.441,22.232,3.748-3.685,8.476-7.055,14.211-7.055l.241,0c5.937.1,11.853,4.251,15.07,10.581a34.848,34.848,0,0,1,3.048,9.644,18.111,18.111,0,0,1,4.1-3.643,16.8,16.8,0,0,1,13.128-2.445c5.642,1.409,9.73,5.4,13.684,9.258,1.327,1.3,2.581,2.52,3.9,3.654,4.792,4.143,11.991,6.531,15.888,2.8l3.119,3.262c-5.89,5.631-15.5,2.928-21.959-2.65-1.416-1.224-2.778-2.554-4.095-3.84-3.687-3.6-7.168-7-11.625-8.108a12.962,12.962,0,0,0-15.149,9.851Z" transform="translate(-22319.766 5922.996)" fill="#360484"></path>
    <path id="Path_127871" data-name="Path 127871" d="M6538.724,6617.129l-1.338-4.311a125.5,125.5,0,0,1,31.8-5.519,15.711,15.711,0,0,1,17.126-23.693c-.515-10.4,5.9-21.207,15.832-25.8,10.525-4.866,23.949-2.853,33.4,5.011a38.891,38.891,0,0,1,13.189,24.5,27.243,27.243,0,0,1,7.791-7.188c5.211-3.009,13.166-3.4,17.642,1.8,2.339,2.718,3.013,6.049,3.663,9.271.5,2.465.968,4.793,2.151,6.611a8.215,8.215,0,0,0,9.142,3.18l1.439,4.277a12.734,12.734,0,0,1-14.364-5c-1.653-2.54-2.232-5.407-2.791-8.179s-1.091-5.4-2.66-7.219c-2.788-3.238-8.272-2.967-11.963-.835-4.292,2.479-7.33,7.058-10.011,11.1l-4.252,6.409.115-7.69c.164-10.888-4.314-21.193-11.976-27.567-8.143-6.773-19.645-8.534-28.621-4.383-9.337,4.316-14.956,15.134-12.792,24.626l1.121,4.911L6587.96,6589a11.3,11.3,0,0,0-12.572,18.684l4.918,3.98-6.326.031a120.923,120.923,0,0,0-35.256,5.431" transform="translate(-22319.766 5922.996)" fill="#360484"></path>
    <path id="Path_127872" data-name="Path 127872" d="M6281.992,6917.221l-4.409-.972a53.3,53.3,0,0,0-6.461-38.864c-2.379-3.906-7.4-10.52-14.314-10.909a11.935,11.935,0,0,0-4.427.6q.993,5.459,1.52,11.005c.679,7.156.972,16.438-2.813,24.75-1.811,3.976-5.428,8.053-10.21,7.577a9.519,9.519,0,0,1-5.381-2.608c-4.106-3.687-6.169-9.677-5.519-16.022.482-4.715,2.333-9.565,5.823-15.265,2.259-3.687,6.164-8.96,11.469-12.046a125.115,125.115,0,0,0-6.706-21.752c-2.482-6.042-6.6-14.708-13.632-20.192-5.6-4.368-14.489-7.055-21.719-3.211l-2.117-3.985c7.806-4.15,18.5-2.689,26.612,3.636,7.88,6.145,12.353,15.52,15.03,22.037a129.556,129.556,0,0,1,6.752,21.627,16.2,16.2,0,0,1,5.572-.653c6.649.374,13.011,5.016,17.914,13.068a57.873,57.873,0,0,1,7.016,42.183m-33.813-48a33.092,33.092,0,0,0-8.529,9.64c-3.125,5.1-4.772,9.35-5.184,13.368-.495,4.842,1.055,9.518,4.047,12.205a5.417,5.417,0,0,0,2.817,1.476c2.4.237,4.542-2.52,5.65-4.957,3.343-7.342,3.054-15.857,2.427-22.456q-.442-4.665-1.228-9.276" transform="translate(-22319.766 5922.996)" fill="#360484"></path>
    <path id="Path_127873" data-name="Path 127873" d="M6344.5,6852.281a843.739,843.739,0,0,1-37.7-80.891l4.186-1.687a839.911,839.911,0,0,0,37.5,80.458Z" transform="translate(-22319.766 5922.996)" fill="#360484"></path>
    <rect id="Rectangle_4014" data-name="Rectangle 4014" width="4.513" height="56.681" transform="translate(-15925.938 12703.715) rotate(-0.332)" fill="#360484"></rect>
    <path id="Path_127874" data-name="Path 127874" d="M6464.517,6843.163l-4.273-1.452a542.669,542.669,0,0,1,21.3-53.206l4.1,1.9a537.863,537.863,0,0,0-21.12,52.761" transform="translate(-22319.766 5922.996)" fill="#360484"></path>
    <path id="Path_127875" data-name="Path 127875" d="M6478.8,6916.587c-7.1-7.079-8.3-19.4-2.718-28.052,4.323-6.7,12.388-10.843,20.557-10.986,1.676-13.212,9.464-25.781,21.378-31.938,5.417-2.8,10.45-3.467,14.557-1.937L6531,6847.9c-3.64-1.358-7.942.185-10.908,1.719-10.551,5.45-17.463,16.562-18.993,28.256.447.077.892.164,1.335.267,5.1,1.168,11.247,4.64,13.221,10.878a17.18,17.18,0,0,1-1.194,12.179,8.456,8.456,0,0,1-2.687,3.567,5.807,5.807,0,0,1-5,.844c-3.345-.9-5.9-4.2-7.07-6.738a38.291,38.291,0,0,1-3.4-16.813,20.557,20.557,0,0,0-16.432,8.919c-4.471,6.932-3.543,16.775,2.111,22.41Zm21.977-34.181a33.979,33.979,0,0,0,3.028,14.581c.943,2.05,2.727,3.885,4.149,4.269a1.336,1.336,0,0,0,1.229-.185,4.49,4.49,0,0,0,1.166-1.737,12.724,12.724,0,0,0,1-8.95c-1.4-4.424-6.046-6.951-9.927-7.842-.214-.048-.43-.093-.645-.136" transform="translate(-22319.766 5922.996)" fill="#360484"></path>
    <path id="Path_127876" data-name="Path 127876" d="M6831.553,7217.81l7.778-17.091c5.768-12.673,11.732-25.776,13.82-39.674,2.278-15.143-.859-29.278-8.607-38.779a8.421,8.421,0,0,0-3.705-2.981c-1.619-.458-3.594.22-5.311.942a48.24,48.24,0,0,0-28.708,39.625l-1.3,16.022-3.158-15.762c-.644-3.215-3.23-13.662-9.536-13.328-4.215.232-6.9,5.477-7.864,7.721a43.584,43.584,0,0,0-2.8,24.579l-4.344,1.167a172.327,172.327,0,0,0-21.734-41.379c-4-5.613-8.994-11.528-15.64-12.85-5.613-1.114-12.063,1.417-16.437,6.452-3.775,4.346-6.178,10.365-7.143,17.894a56.735,56.735,0,0,0,7.169,35.5l-3.832,2.378a12.6,12.6,0,1,0-15,19.022l-1.546,4.24a16.968,16.968,0,0,1,6.607-33.009,19.006,19.006,0,0,1,5.8,1.149,61.321,61.321,0,0,1-3.67-29.853c1.08-8.426,3.844-15.249,8.213-20.278,5.418-6.237,13.548-9.349,20.726-7.919,8.191,1.63,13.914,8.322,18.431,14.654a176.79,176.79,0,0,1,17.47,30.5,47.835,47.835,0,0,1,3.584-14.021c2.772-6.475,6.949-10.188,11.766-10.452,4.706-.264,8.651,2.633,11.365,8.147,4.177-15.089,15.382-28.279,29.838-34.358,2.434-1.024,5.322-1.956,8.283-1.128a12.409,12.409,0,0,1,5.981,4.475c8.549,10.485,12.039,25.9,9.572,42.3-1.537,10.227-5.015,19.9-9,29.244a17.959,17.959,0,0,1,7.324-3.184,13.243,13.243,0,0,1,12.282,5.052,8.763,8.763,0,0,1,1.248,9.292l-4.073-1.94a4.37,4.37,0,0,0-.768-4.619,8.679,8.679,0,0,0-7.906-3.34c-5.414.955-9.506,5.666-13.563,10.826Z" transform="translate(-22319.766 5922.996)" fill="#360484"></path>
    <path id="Path_127877" data-name="Path 127877" d="M6253.959,7211.983c-1.06-5.966-5.432-11.32-11.7-14.32s-13.177-3.052-18.49-.139l-2.965,1.627-.363-3.361a59.853,59.853,0,0,0-7.754-23.555,7.142,7.142,0,0,0-2.684-3.079c-.96-.442-2.31-.387-4.247.177a26.274,26.274,0,0,0-16.253,13.919l-2,4.284-2.071-4.25a117.06,117.06,0,0,0-21.275-30.306c-3.927-4.042-8.727-8.353-14.554-9.665-8.764-1.969-18.793,3.977-22.352,13.266-2.676,6.988-1.96,15.489,1.769,23.156a11.4,11.4,0,0,1,3.088,5.466l2.776,11.692-6.828-9.889a40.371,40.371,0,0,1-2.7-4.507,9.3,9.3,0,0,0-1.906-1.257,10.2,10.2,0,0,0-8.385-.416c-4.776,2.054-8.006,7.758-7.855,13.874a19.342,19.342,0,0,0,4.267,11.615l-3.51,2.837a23.881,23.881,0,0,1-5.268-14.341c-.2-7.913,4.157-15.368,10.583-18.132a14.321,14.321,0,0,1,9.489-.519,32.649,32.649,0,0,1,.264-21.193c4.328-11.3,16.688-18.506,27.558-16.053,6.981,1.571,12.41,6.4,16.8,10.922a121.509,121.509,0,0,1,20.168,27.687A30.917,30.917,0,0,1,6204.5,7165c1.913-.558,4.762-1.157,7.4.059a11.122,11.122,0,0,1,4.692,4.9,64.478,64.478,0,0,1,7.935,22.286,25.541,25.541,0,0,1,19.688,1.347c7.573,3.627,12.877,10.207,14.19,17.6Z" transform="translate(-22319.766 5922.996)" fill="#360484"></path>
    <path id="Path_127878" data-name="Path 127878" d="M6724.736,7110.156c-18.19,0-37.941-.755-55.827-7.561-3.534-1.345-7.117-3.041-9.4-6.323-2.356-3.385-2.636-7.659-2.841-10.779a753.369,753.369,0,0,1-.826-83.328c.455-9.969,1.6-21.195,9.4-28.269,5.531-5.013,13.032-6.57,20.242-7.735a429.192,429.192,0,0,1,89.289-4.97l-.22,4.509a424.628,424.628,0,0,0-88.349,4.916c-6.541,1.057-13.314,2.439-17.932,6.623-6.52,5.91-7.507,16.072-7.921,25.131a749.2,749.2,0,0,0,.821,82.827c.221,3.361.527,6.32,2.042,8.5,1.583,2.277,4.445,3.6,7.3,4.682,19.686,7.494,42.153,7.356,61.984,7.235l63.522-.386.026,4.513-63.521.387c-2.556.016-5.157.031-7.789.031" transform="translate(-22319.766 5922.996)" fill="#360484"></path>
    <path id="Path_127879" data-name="Path 127879" d="M6731.463,6964.948l-1.422-1.543a154.308,154.308,0,0,1-23.166-32.876l4-2.1a149.863,149.863,0,0,0,21.077,30.362l1.085-.863,2.81,3.531Z" transform="translate(-22319.766 5922.996)" fill="#360484"></path>
    <path id="Path_127880" data-name="Path 127880" d="M6739.343,6960.6l-3.288-3.092A51.9,51.9,0,0,0,6749.977,6923l4.513.056a56.473,56.473,0,0,1-15.147,37.542" transform="translate(-22319.766 5922.996)" fill="#360484"></path>
    <path id="Path_127881" data-name="Path 127881" d="M6668.5,7212.74l-4.513-.1c.565-25.593.194-51.537-1.1-77.111a5.011,5.011,0,0,0-.448-2.3c-.424-.564-1.623-.814-2.784-1.056-.286-.06-.57-.12-.848-.183a18.7,18.7,0,0,1-12.618-24.4,10.1,10.1,0,0,1,3.78-4.883,12.012,12.012,0,0,1,5.368-1.524,77.7,77.7,0,0,1,30.386,3.051l-1.332,4.313a73.205,73.205,0,0,0-28.606-2.874,8.2,8.2,0,0,0-3.405.848,5.814,5.814,0,0,0-2.018,2.787,14.207,14.207,0,0,0,9.455,18.282c.249.058.5.112.761.165,1.793.374,4.024.841,5.469,2.764a8.371,8.371,0,0,1,1.347,4.779c1.3,25.682,1.675,51.738,1.109,77.438" transform="translate(-22319.766 5922.996)" fill="#360484"></path>
  </g>
</svg>
