<?xml version="1.0" encoding="UTF-8"?>
<svg xmlns="http://www.w3.org/2000/svg" width="898.051" height="967.215" viewBox="0 0 898.051 967.215">
  <g id="Group_3749" data-name="Group 3749" transform="translate(20702.486 -15133.911)">
    <path id="Path_128804" data-name="Path 128804" d="M1942.958,11974.554c-15.4-13.225-36.351-18.373-56.486-22.514a1091.383,1091.383,0,0,0-248.256-21.949l-.143-5.387a1096.476,1096.476,0,0,1,249.485,22.059c20.826,4.282,42.53,9.641,58.91,23.7Z" transform="translate(-22196.766 3901.996)" fill="#6ad1e3"></path>
    <path id="Path_128805" data-name="Path 128805" d="M2312.4,11296q-147.3-31.525-295.3-59.6l122.529,107.412c32.252,28.271,64.581,56.605,99.7,81.229a295.8,295.8,0,0,0,2.439-74.141q66.484-16.375,131.15-39.222l-42.774-14.983" transform="translate(-22196.766 3901.996)" fill="#f04e98"></path>
    <path id="Path_128806" data-name="Path 128806" d="M2241.306,11429.724l-3.526-2.473c-35.274-24.735-68.142-53.547-99.926-81.409l-129.961-113.927,9.709,1.842c98.23,18.63,197.6,38.687,295.366,59.609l-1.127,5.269c-94.5-20.225-190.507-39.639-285.528-57.737l115.093,100.892c30.6,26.829,62.214,54.539,95.915,78.539a292.968,292.968,0,0,0,1.761-69.173l-.216-2.312,2.254-.556c41.582-10.241,83.139-22.544,123.646-36.6l-35.516-12.439,1.782-5.086,50,17.515-7.219,2.551c-42.231,14.924-85.671,27.953-129.159,38.742a298.271,298.271,0,0,1-2.667,72.5Z" transform="translate(-22196.766 3901.996)" fill="#f04e98"></path>
    <path id="Path_128807" data-name="Path 128807" d="M2238.812,11352.635l-142.859,17.295c-5.368.65-10.974,1.389-15.412,4.477-7.619,5.3-9.432,15.64-10.3,24.881-6.066,64.629,2.614,129.632,11.276,193.964,1.511,11.223,3.945,23.93,13.6,29.846,5.729,3.511,12.81,3.767,19.53,3.791,73.421.275,145.921-14.979,217.668-30.571,21.672-4.71,46.6-12.119,54.6-32.8,3.7-9.572,2.865-20.225,1.86-30.439a1403.314,1403.314,0,0,0-22.335-146.74c-2.635-12.741-6.475-26.908-17.767-33.371-15.063-8.621-35.485,1.072-50.919-6.866" transform="translate(-22196.766 3901.996)" fill="#6ad1e3"></path>
    <path id="Path_128808" data-name="Path 128808" d="M2116.586,11629.585l-1.946,0c-7.174-.027-14.7-.374-20.927-4.188-10.645-6.521-13.255-19.825-14.865-31.784-8.561-63.579-17.413-129.321-11.289-194.574.938-9.989,3.032-20.989,11.443-26.842,5.092-3.543,11.487-4.317,16.627-4.938l142.858-17.3.649,5.351-142.86,17.295c-4.783.578-10.2,1.234-14.2,4.011-6.585,4.582-8.292,13.726-9.156,22.924-6.067,64.639,2.743,130.073,11.264,193.352,1.445,10.73,3.71,22.622,12.339,27.909,5.045,3.09,11.456,3.367,18.132,3.394.64,0,1.285,0,1.925,0,74.757,0,149.313-16.2,215.161-30.515,23.028-5,45.346-12.241,52.658-31.143,3.367-8.7,2.758-18.374,1.692-29.2a1406.09,1406.09,0,0,0-22.292-146.458c-2.515-12.159-6.07-25.629-16.467-31.579-7-4.008-15.442-3.669-24.378-3.315-8.964.358-18.233.726-26.435-3.494l2.464-4.791c6.942,3.572,15.111,3.249,23.756,2.9,9.311-.369,18.927-.752,27.269,4.023,11.757,6.729,16.112,20.876,19.068,35.163a1411.747,1411.747,0,0,1,22.377,147.022c1.135,11.529,1.766,21.87-2.028,31.676-8.254,21.336-33.213,29.395-56.539,34.463-66.113,14.369-140.973,30.637-216.3,30.637" transform="translate(-22196.766 3901.996)" fill="#6ad1e3"></path>
    <path id="Path_128809" data-name="Path 128809" d="M1943.166,11847.125l-4.133-3.457c38.385-45.875,123.84-165.871,149.727-212.859,11.1-20.149,23.647-46.491,22.126-71.562a15.844,15.844,0,0,0-8.782-13.314,15.446,15.446,0,0,0-11.791-.954,12.879,12.879,0,0,1-4.719,2.26l-15.5,3.8,13.6-8.809a21.2,21.2,0,0,1,3.971-2.027,10.493,10.493,0,0,0,2.907-4.921c1.226-4.259.248-8.977-2.432-11.738-5.919-6.1-16.334-4.974-22.59-.432q-.339.246-.665.5a34.1,34.1,0,0,1-12.779,23.726l-5.648,4.448,1.334-7.064c1.372-7.264,4.534-16.9,11.813-23.681a21.767,21.767,0,0,0-1.177-6.863,20.969,20.969,0,0,0-11.314-11.879,17.306,17.306,0,0,0-13.871-.487c-6.821,2.906-11.158,9.906-15.351,16.677a639.216,639.216,0,0,1-214.357,211.043c-20.611,12.326-36.762,14.446-48,6.3-7.727-5.6-11.189-14.888-13.779-24.088a267.557,267.557,0,0,1-8.174-102.133c1.7-14.77,10.156-63.63,47.62-72.262,12.09-2.784,26.118-.589,40.566,6.352,32.726,15.723,55.674,49.271,58.462,85.471l-5.373.414c-2.642-34.317-24.4-66.123-55.423-81.027-9.3-4.469-23.269-9.128-37.023-5.959-8.6,1.982-37.157,12.718-43.476,67.627a262.1,262.1,0,0,0,8.008,100.059c2.325,8.263,5.36,16.549,11.754,21.184,9.327,6.764,23.481,4.555,42.07-6.562a633.8,633.8,0,0,0,212.542-209.256c4.418-7.134,9.428-15.221,17.82-18.8a22.626,22.626,0,0,1,18.162.517,26.451,26.451,0,0,1,14.223,15.035,26.007,26.007,0,0,1,1.176,4.865c8.269-4.659,19.991-5.026,27.314,2.52,4.043,4.166,5.512,10.831,3.744,16.979a17.677,17.677,0,0,1-.735,2.066h.012a21.4,21.4,0,0,1,21.237,20.088c1.6,26.451-11.334,53.7-22.787,74.487-26.005,47.205-111.792,167.681-150.312,213.717" transform="translate(-22196.766 3901.996)" fill="#360484"></path>
    <path id="Path_128810" data-name="Path 128810" d="M1656.708,11814.272c-25.061-50.121-45.189-245.385-33.652-326.457,1.156-8.124,2.642-15.892,8.028-21.634a20.785,20.785,0,0,1,15.18-6.255h.013a20.773,20.773,0,0,1,15.173,6.237c.33.349.644.713.946,1.088.135-.161.274-.321.415-.479,7.319-8.229,19.467-10.823,28.252-6.029a17.421,17.421,0,0,1,5.566,4.907,16.129,16.129,0,0,1,11.277-5.65,11.524,11.524,0,0,1,9.259,3.506c2.8,3.015,3.56,7.167,4.116,10.2,5.355,29.3,9.983,59.133,13.75,88.66l-5.345.682c-3.755-29.432-8.367-59.164-13.707-88.373-.562-3.083-1.16-5.775-2.76-7.5a6.226,6.226,0,0,0-5.022-1.795,10.69,10.69,0,0,0-7.711,4.077,14,14,0,0,0-1.017,1.572,19.709,19.709,0,0,1,.868,3.514,16.11,16.11,0,0,1-4.045,13.822l-4.353,4.467-.269-6.231c-.22-5.065-.1-10.679,1.909-15.71a12.685,12.685,0,0,0-5.095-5.419c-6.534-3.561-16.041-1.419-21.649,4.882a22.972,22.972,0,0,0-1.536,1.934,21.994,21.994,0,0,1,1.451,9.414,20.783,20.783,0,0,1-7.172,14.768l-3.823,3.172-.573-4.933a38.053,38.053,0,0,1,3.965-22.733,13.225,13.225,0,0,0-1.621-2.121,15.384,15.384,0,0,0-11.248-4.541h-.012a15.379,15.379,0,0,0-11.252,4.556c-4.311,4.595-5.594,11.47-6.624,18.705-5.305,37.271-4.055,104.022,3.261,174.206,7.255,69.609,18.7,126.734,29.875,149.081Zm4.691-333.53a32.551,32.551,0,0,0-.953,5.244,17.126,17.126,0,0,0,.925-4.616c.013-.21.021-.42.028-.628" transform="translate(-22196.766 3901.996)" fill="#360484"></path>
    <path id="Path_128811" data-name="Path 128811" d="M1631.924,12121.372h-.09c-31.11-.04-63.008-20.422-81.261-51.925-13.7-23.646-20.86-52.664-22.412-91.024a21.065,21.065,0,0,1-14.26,1.115c-8.256-2.076-15.308-8.218-17.964-15.646-5.155-14.418,2.476-29.887,12.325-38.821,10.428-9.458,24.152-14.379,36.262-18.721,11.14-3.994,25-8.966,38.59-6.568,14.8,2.611,28.341,14.043,36.23,30.58a94.169,94.169,0,0,1,6.26,17.866,448.613,448.613,0,0,1,49.6-182.063l4.784,2.482a442.947,442.947,0,0,0-49.612,208.074l-5.366.373c-1.939-15.052-3.945-30.616-10.527-44.412-7.141-14.969-19.217-25.284-32.3-27.594-12.182-2.151-24.745,2.358-35.836,6.334-11.637,4.172-24.826,8.9-34.46,17.638-8.522,7.732-15.189,20.939-10.871,33.018,2.067,5.783,7.642,10.586,14.2,12.234,5.266,1.327,10.25.311,13.669-2.781l4.337-3.919.163,5.843c1.106,39.83,8.051,69.474,21.852,93.292,17.308,29.873,47.378,49.2,76.606,49.237h.082c28.649,0,56.848-19.4,67.077-46.163.436-1.14.859-2.309,1.285-3.488,2.779-7.681,5.928-16.386,13.915-20.162,4.928-2.33,10.536-2.053,15.041-1.822l98.023,4.914-.27,5.381-98.022-4.915c-4.107-.2-8.764-.437-12.469,1.313-5.978,2.827-8.608,10.1-11.151,17.124-.438,1.211-.872,2.41-1.319,3.579a79.128,79.128,0,0,1-72.11,49.628" transform="translate(-22196.766 3901.996)" fill="#360484"></path>
    <path id="Path_128812" data-name="Path 128812" d="M1937.385,12199.13a41.451,41.451,0,0,1-11.94-1.757c-17.58-5.261-28.461-20.925-38.962-37.889l-60.219-97.294,4.582-2.837,60.219,97.295c9.932,16.047,20.155,30.843,35.924,35.563,27.212,8.146,53.131-19.441,63.015-31.678a308.418,308.418,0,0,0,27.692-40.519c2.413-4.218,7.442-14.575,2.055-19.659-4.159-3.929-9.485-1.714-17.826,2.229-4.9,2.313-9.957,4.7-15.147,5.2l-1.881.179-.809-1.707a471.681,471.681,0,0,1-44.15-235.242l5.375.386a466.283,466.283,0,0,0,42.794,230.745c3.728-.75,7.678-2.616,11.516-4.43,7.864-3.716,16.78-7.929,23.827-1.276,5.837,5.51,5.456,14.835-1.077,26.255a313.909,313.909,0,0,1-28.177,41.227c-11.311,14-32.467,35.212-56.811,35.212" transform="translate(-22196.766 3901.996)" fill="#360484"></path>
    <path id="Path_128813" data-name="Path 128813" d="M2159.544,11368.979a130.953,130.953,0,0,0,5.782,49.557c.751,2.357,1.775,4.932,4.016,5.98a9.393,9.393,0,0,0,4.558.484l60.838-3.626c1.39-.083,2.95-.25,3.824-1.334a5,5,0,0,0,.676-3.455c-1.259-23.038-9.645-33.361-6.76-56.252" transform="translate(-22196.766 3901.996)" fill="#360484"></path>
    <path id="Path_128814" data-name="Path 128814" d="M2172.334,11427.755a9.646,9.646,0,0,1-4.133-.8c-3.549-1.661-4.827-5.675-5.442-7.6a134.5,134.5,0,0,1-5.9-50.579l5.373.41a129.038,129.038,0,0,0,5.664,48.534c.582,1.827,1.344,3.774,2.589,4.356a7.589,7.589,0,0,0,3.256.236l60.838-3.627c1.41-.083,1.791-.249,1.894-.341a4.019,4.019,0,0,0,.076-1.612c-.51-9.339-2.221-16.532-3.875-23.487-2.373-9.972-4.613-19.392-2.867-33.247l5.345.673c-1.624,12.886.41,21.433,2.764,31.328,1.709,7.187,3.478,14.617,4.014,24.44a7.488,7.488,0,0,1-1.269,5.293c-1.686,2.092-4.338,2.247-5.762,2.332l-60.837,3.627c-.522.03-1.1.064-1.726.064" transform="translate(-22196.766 3901.996)" fill="#360484"></path>
    <path id="Path_128815" data-name="Path 128815" d="M1720.335,11669.459l-.681-2.452c-.905-3.259.582-6.722,3.788-8.822s6.976-2.077,9.6.055l-2.654,3.268a157.97,157.97,0,0,0,39.611-17.059c10.449-6.31,34.617-23.6,33.362-47.817-.014-.285-.036-.594-.067-.922a12.086,12.086,0,0,1-2.436,1.127,10.114,10.114,0,0,1-9.018-1.559,7.464,7.464,0,0,1-3.135-6.285,7.3,7.3,0,0,1,4.233-6.229,9.868,9.868,0,0,1,9.65.382,11.5,11.5,0,0,1,2.674,2.467q.251-.431.482-.852a77.074,77.074,0,0,0,8.135-51.038l5.291-1.014a82.548,82.548,0,0,1-8.711,54.662,34.367,34.367,0,0,1-2.475,3.909,24.743,24.743,0,0,1,.758,5.071c1.406,27.131-24.678,45.9-35.958,52.71a163.422,163.422,0,0,1-49.965,19.859Zm8.092-7.435a3.66,3.66,0,0,0-1.618.429q.833-.209,1.665-.429Zm69.078-74.955a4.712,4.712,0,0,0-2.116.492,2.086,2.086,0,0,0-1.3,1.66,2.169,2.169,0,0,0,1,1.754,4.713,4.713,0,0,0,4.076.745,7.573,7.573,0,0,0,2.634-1.587,6.731,6.731,0,0,0-2.18-2.5,3.86,3.86,0,0,0-2.111-.569" transform="translate(-22196.766 3901.996)" fill="#360484"></path>
    <path id="Path_128816" data-name="Path 128816" d="M1832.452,11618.833a7.97,7.97,0,0,1-8.346-9.036c.263-4.789,3.579-9.333,8.657-11.858,4.218-2.1,8.918-2.62,13.066-3.079l.592,5.355c-3.882.43-7.9.873-11.258,2.547-3.294,1.64-5.523,4.516-5.676,7.329a3.411,3.411,0,0,0,1.03,2.9c.931.659,2.7.469,3.943.266a38.96,38.96,0,0,0,8.008-2.187c3.648-1.428,5.959-3.138,7.066-5.229a5.363,5.363,0,0,0,.328-3.99,2.936,2.936,0,0,0-1.428-1.793l2.338-4.855a8.252,8.252,0,0,1,4.208,4.965,10.7,10.7,0,0,1-.684,8.194c-1.737,3.281-4.963,5.808-9.865,7.726a44.384,44.384,0,0,1-9.114,2.489,18.128,18.128,0,0,1-2.865.259" transform="translate(-22196.766 3901.996)" fill="#360484"></path>
    <path id="Path_128817" data-name="Path 128817" d="M1842.948,11597.352a19.163,19.163,0,0,0-3.466,5.862,7.5,7.5,0,0,0,.718,6.564,6.159,6.159,0,0,0,7.62,1.709,6.889,6.889,0,0,0,3.392-7.2,7.825,7.825,0,0,0-5.523-5.9" transform="translate(-22196.766 3901.996)" fill="#360484"></path>
    <path id="Path_128818" data-name="Path 128818" d="M1845.051,11614.848a8.659,8.659,0,0,1-7.041-3.5,10.152,10.152,0,0,1-1.1-8.945,21.658,21.658,0,0,1,3.915-6.712l4.239,3.327a17.013,17.013,0,0,0-3.017,5.013,4.856,4.856,0,0,0,.34,4.18,3.447,3.447,0,0,0,4.183.89,4.2,4.2,0,0,0,1.989-4.317,5.126,5.126,0,0,0-3.606-3.8l1.465-5.187a10.549,10.549,0,0,1,7.44,8.01,9.585,9.585,0,0,1-4.8,10.069,8.656,8.656,0,0,1-4.015.973" transform="translate(-22196.766 3901.996)" fill="#360484"></path>
    <path id="Path_128819" data-name="Path 128819" d="M1849.926,11649.052c-4.4-.545-8.949-1.106-13.3-2.887-5.182-2.122-9-5.671-10.754-9.993l4.994-2.024c1.186,2.924,4.03,5.486,7.8,7.031,3.679,1.507,7.866,2.024,11.915,2.525Z" transform="translate(-22196.766 3901.996)" fill="#360484"></path>
    <path id="Path_128820" data-name="Path 128820" d="M1820.16,11490.369l-5.265-1.147a84.452,84.452,0,0,0-1.559-41.9,23.081,23.081,0,0,0-2.711-6.043c-2.282,7.111-7.054,13.766-14.551,13.581l-2.35-.07-.249-2.338c-.418-3.92-.606-8.088.838-12.01,1.467-3.982,5.23-8.1,10.33-8.337a9.954,9.954,0,0,1,2.471.192,71.535,71.535,0,0,0-1.47-29.368c-.878-3.333-2.252-7.5-5.11-10.146-2.237-2.073-6.07-3.191-8.61-1.47l-3.021-4.462c4.942-3.347,11.568-1.477,15.3,1.98,3.876,3.594,5.593,8.688,6.657,12.724a76.968,76.968,0,0,1,1.287,33.311c2.705,2.332,4.918,6.063,6.36,10.923a89.884,89.884,0,0,1,1.658,44.579m-15.063-52.885c-.069,0-.139,0-.209,0-2.616.119-4.695,2.58-5.519,4.815a17.228,17.228,0,0,0-.768,6.748c3.794-1.506,6.335-6.769,7.467-11.465a4.589,4.589,0,0,0-.971-.1" transform="translate(-22196.766 3901.996)" fill="#5c54a3"></path>
    <path id="Path_128821" data-name="Path 128821" d="M1879.88,11516.61l-4.6-2.8a162.73,162.73,0,0,0,23.44-85.693l5.389-.07a168.213,168.213,0,0,1-24.227,88.567" transform="translate(-22196.766 3901.996)" fill="#5c54a3"></path>
    <path id="Path_128822" data-name="Path 128822" d="M1924.8,11538.24l-3.873-3.746a205.227,205.227,0,0,0,40.079-59.373l4.922,2.19a210.605,210.605,0,0,1-41.128,60.929" transform="translate(-22196.766 3901.996)" fill="#5c54a3"></path>
    <path id="Path_128823" data-name="Path 128823" d="M1580.293,11774.765a343.476,343.476,0,0,1-13.71-127.365l5.371.428a338.1,338.1,0,0,0,13.495,125.376Z" transform="translate(-22196.766 3901.996)" fill="#5c54a3"></path>
    <path id="Path_128824" data-name="Path 128824" d="M1526.287,11746.449a79.088,79.088,0,0,1-4.505-45.2l5.285,1.045a73.65,73.65,0,0,0,4.2,42.085Z" transform="translate(-22196.766 3901.996)" fill="#5c54a3"></path>
    <path id="Path_128825" data-name="Path 128825" d="M2004.318,11979.026a341.026,341.026,0,0,1-7.447-78.837l5.386.12a335.581,335.581,0,0,0,7.331,77.59Z" transform="translate(-22196.766 3901.996)" fill="#5c54a3"></path>
    <path id="Path_128826" data-name="Path 128826" d="M2031.574,11954.581c-1.25-16.024-1.824-32.287-1.706-48.337l5.389.039c-.118,15.9.451,32.007,1.688,47.878Z" transform="translate(-22196.766 3901.996)" fill="#5c54a3"></path>
    <path id="Path_128827" data-name="Path 128827" d="M2295.471,11583.529l-2.731-4.646a142.55,142.55,0,0,0,65.362-86.73l5.217,1.344a147.98,147.98,0,0,1-67.848,90.032" transform="translate(-22196.766 3901.996)" fill="#6ad1e3"></path>
    <path id="Path_128828" data-name="Path 128828" d="M2332.108,11585.578l-3.018-4.465a101.433,101.433,0,0,0,39.21-51.653l5.112,1.705a106.867,106.867,0,0,1-41.3,54.413" transform="translate(-22196.766 3901.996)" fill="#6ad1e3"></path>
    <path id="Path_128829" data-name="Path 128829" d="M2348.545,11579.987c-5.128-2.579-6.792-8.122-8.261-13.014-.143-.476-.285-.948-.428-1.414a51.21,51.21,0,0,0-14.371-22.644l3.633-3.979a56.585,56.585,0,0,1,15.884,25.029q.222.721.442,1.458c1.213,4.038,2.467,8.212,5.521,9.749Z" transform="translate(-22196.766 3901.996)" fill="#6ad1e3"></path>
    <path id="Path_128830" data-name="Path 128830" d="M2370.328,11567.333a363.545,363.545,0,0,0-33.168-61.062l4.467-3.015a369.054,369.054,0,0,1,33.66,61.97Z" transform="translate(-22196.766 3901.996)" fill="#6ad1e3"></path>
    <rect id="Rectangle_4373" data-name="Rectangle 4373" width="5.421" height="5.388" transform="matrix(0.828, -0.561, 0.561, 0.828, -19842.408, 15375.914)" fill="#6ad1e3"></rect>
    <rect id="Rectangle_4374" data-name="Rectangle 4374" width="4.253" height="5.389" transform="matrix(0.707, -0.708, 0.708, 0.707, -19821.711, 15413.895)" fill="#6ad1e3"></rect>
    <rect id="Rectangle_4375" data-name="Rectangle 4375" width="12.935" height="5.388" transform="translate(-19926.629 15457.211) rotate(-35.53)" fill="#6ad1e3"></rect>
    <rect id="Rectangle_4376" data-name="Rectangle 4376" width="3.362" height="5.389" transform="translate(-19891.682 15438.951) rotate(-26.567)" fill="#6ad1e3"></rect>
    <rect id="Rectangle_4377" data-name="Rectangle 4377" width="3.363" height="5.388" transform="matrix(0.895, -0.447, 0.447, 0.895, -19917.244, 15466.016)" fill="#6ad1e3"></rect>
    <path id="Path_128831" data-name="Path 128831" d="M2213.123,11332.862c-66.161-31.65-133.973-62.16-201.553-90.682l2.1-4.965c67.656,28.554,135.546,59.1,201.783,90.785Z" transform="translate(-22196.766 3901.996)" fill="#6ad1e3"></path>
    <rect id="Rectangle_4378" data-name="Rectangle 4378" width="7.83" height="5.388" transform="matrix(0.64, -0.768, 0.768, 0.64, -19973.244, 15242.152)" fill="#6ad1e3"></rect>
    <path id="Path_128832" data-name="Path 128832" d="M2242.832,11347.44l-4.408-3.1a50.068,50.068,0,0,0,6.659-13.316l5.123,1.666a55.413,55.413,0,0,1-7.374,14.751" transform="translate(-22196.766 3901.996)" fill="#6ad1e3"></path>
    <path id="Path_128833" data-name="Path 128833" d="M2289.273,11660.323l-1.045-5.285c28.125-5.557,56.37-12.337,83.953-20.152l1.469,5.185c-27.722,7.854-56.11,14.669-84.377,20.253" transform="translate(-22196.766 3901.996)" fill="#5c54a3"></path>
    <path id="Path_128834" data-name="Path 128834" d="M2321.034,11697.7l-.578-5.357a133.981,133.981,0,0,0,43.622-12.41l2.328,4.86a139.387,139.387,0,0,1-45.372,12.907" transform="translate(-22196.766 3901.996)" fill="#5c54a3"></path>
  </g>
</svg>
