<svg xmlns="http://www.w3.org/2000/svg" xmlns:xlink="http://www.w3.org/1999/xlink" width="475" height="359" viewBox="0 0 475 359">
    <defs>
        <rect id="2h3l42q60a" width="57" height="33" x="0" y="0" rx="9"/>
    </defs>
    <g fill="none" fill-rule="evenodd" transform="translate(-57 -42)">
        <rect width="122" height="34" x="157" y="85" fill="#F5F5F8" rx="9"/>
        <circle cx="177.3" cy="100.8" r="9" fill="#B2BBC6" fill-rule="nonzero"/>
        <path fill="#DFDFDF" fill-rule="nonzero" d="M198.565 95.4c-.809 0-1.465.604-1.465 1.35 0 .746.656 1.35 1.465 1.35h69.07c.809 0 1.465-.604 1.465-1.35 0-.746-.656-1.35-1.465-1.35h-69.07zM198.554 103.5c-.803 0-1.454.604-1.454 1.35 0 .746.65 1.35 1.454 1.35h29.49c.52 0 1-.256 1.26-.674.261-.418.261-.934 0-1.352-.26-.418-.74-.675-1.26-.674h-29.49z"/>
        <rect width="57" height="59" x="171" y="164" fill="#F5F5F8" rx="9"/>
        <path fill="#DFDFDF" fill-rule="nonzero" d="M185.054 174.6c-.803 0-1.454.604-1.454 1.35 0 .746.65 1.35 1.454 1.35h29.492c.803 0 1.454-.604 1.454-1.35 0-.746-.65-1.35-1.454-1.35h-29.492zM185.056 183.6c-.52 0-1 .256-1.26.674-.261.418-.261.934 0 1.352.26.418.74.675 1.26.674h29.49c.803 0 1.454-.604 1.454-1.35 0-.746-.65-1.35-1.454-1.35h-29.49z"/>
        <path fill="#B2BBC6" fill-rule="nonzero" d="M199.35 210.6c-3.822 0-7.268-2.302-8.73-5.834-1.463-3.53-.655-7.595 2.048-10.298 2.703-2.703 6.767-3.511 10.298-2.048 3.532 1.462 5.834 4.908 5.834 8.73-.006 5.217-4.233 9.444-9.45 9.45z"/>
        <rect width="57" height="59" x="309" y="42" fill="#F5F5F8" rx="9"/>
        <path fill="#DFDFDF" fill-rule="nonzero" d="M351.346 89.1c.803 0 1.454-.604 1.454-1.35 0-.746-.65-1.35-1.454-1.35h-29.492c-.803 0-1.454.604-1.454 1.35 0 .746.65 1.35 1.454 1.35h29.492zM351.346 81c.803 0 1.454-.604 1.454-1.35 0-.746-.65-1.35-1.454-1.35h-29.492c-.803 0-1.454.604-1.454 1.35 0 .746.65 1.35 1.454 1.35h29.492z"/>
        <path fill="#B2BBC6" fill-rule="nonzero" d="M337.05 53.1c3.822 0 7.268 2.302 8.73 5.834 1.463 3.53.655 7.595-2.048 10.298-2.703 2.703-6.767 3.511-10.298 2.048-3.532-1.462-5.834-4.908-5.834-8.73.006-5.217 4.233-9.444 9.45-9.45z"/>
        <path fill="#202440" fill-rule="nonzero" d="M158.57 154.259c9.18-7.069 19.903-11.889 31.304-14.07 11.49-2.178 23.34-1.572 34.547 1.765 5.633 1.667 11.045 4 16.121 6.945 5.172 3.007 9.846 6.707 14.343 10.626 4.555 3.97 8.96 8.115 13.716 11.852 13.576 10.79 30.43 16.685 47.81 16.723 1.436.002 2.87-.037 4.304-.118.777-.043.782-1.25 0-1.208-17.716.97-35.211-4.286-49.422-14.849-4.929-3.664-9.43-7.854-14.023-11.914-4.455-3.936-9.028-7.765-14.081-10.928-25.27-15.828-57.61-15.095-82.127 1.861-1.14.789-2.254 1.613-3.35 2.46-.616.478.249 1.327.859.855z"/>
        <circle cx="157.5" cy="153.9" r="6.3" fill="#202440" fill-rule="nonzero"/>
        <circle cx="392.4" cy="237.6" r="6.3" fill="#202440" fill-rule="nonzero"/>
        <g transform="translate(256 225)">
            <mask id="j2mticodkb" fill="#fff">
                <use xlink:href="#2h3l42q60a"/>
            </mask>
            <use fill="#F5F5F8" xlink:href="#2h3l42q60a"/>
            <path fill="#B2BBC6" fill-rule="nonzero" d="M55.3 33.3H6.7l11.437-19.665c.417-.718 1.188-1.16 2.023-1.16.834 0 1.605.442 2.023 1.16l4.885 8.4 8.308-14.284c.522-.898 1.488-1.451 2.532-1.451 1.045 0 2.01.553 2.533 1.451L55.3 33.3z" mask="url(#j2mticodkb)"/>
        </g>
        <rect width="107" height="58" x="320" y="144" fill="#F5F5F8" rx="9"/>
        <circle cx="340.2" cy="162.9" r="9" fill="#B2BBC6" fill-rule="nonzero"/>
        <path fill="#DFDFDF" fill-rule="nonzero" d="M360.573 156.6c-.526 0-1.012.256-1.276.674-.263.418-.263.934 0 1.352.264.418.75.675 1.276.674h55.557c.812 0 1.47-.604 1.47-1.35 0-.746-.658-1.35-1.47-1.35h-55.557zM360.556 165.6c-.52 0-1 .256-1.26.674-.261.418-.261.934 0 1.352.26.418.74.675 1.26.674h29.49c.803 0 1.454-.604 1.454-1.35 0-.746-.65-1.35-1.454-1.35h-29.49zM333.218 180c-1.113 0-2.018.606-2.018 1.35 0 .744.905 1.35 2.018 1.35h81.464c1.113 0 2.018-.606 2.018-1.35 0-.744-.905-1.35-2.018-1.35h-81.464zM333.218 189c-1.113 0-2.018.606-2.018 1.35 0 .744.905 1.35 2.018 1.35h81.464c1.113 0 2.018-.606 2.018-1.35 0-.744-.905-1.35-2.018-1.35h-81.464z"/>
        <path fill="#202440" fill-rule="nonzero" d="M314.136 243.476c5.844-2.46 12.37-.315 17.878 1.951 2.837 1.168 5.643 2.414 8.579 3.336 2.47.774 5 1.355 7.564 1.74 5.148.764 10.383.795 15.54.091 5.182-.7 10.233-2.126 14.995-4.23 4.736-2.082 9.113-4.859 12.979-8.232.491-.431.974-.872 1.446-1.323.563-.534-.301-1.372-.864-.838-3.722 3.52-7.995 6.447-12.66 8.671-4.647 2.217-9.603 3.762-14.71 4.585-5.125.838-10.35.926-15.501.26-2.57-.337-5.108-.873-7.59-1.601-2.85-.9-5.647-1.953-8.376-3.156-5.56-2.317-11.737-4.585-17.847-2.988-.7.188-1.385.426-2.05.71-.719.303-.097 1.325.617 1.024z"/>
        <path fill="#FFB8B8" fill-rule="nonzero" d="M414.24 232.815l-9.271 4.693c-3.31 1.676-6.503 1.39-7.727-2.104-.589-1.682-.412-3.537.484-5.078.896-1.542 2.423-2.617 4.18-2.944l8.812-1.64 37.74-12.482 22.861-16.16 8.381 13.31-26.416 14.21-39.043 8.195zM456.943 388.8L450 387.632 450.772 374.4 458.1 374.4zM526.5 375.912L519.41 378 513.9 365.991 520.803 362.7z"/>
        <path fill="#202440" fill-rule="nonzero" d="M522 364.122l-8.616 3.54-41.12-54.273L459.34 377.1l-8.615-1.573c-5.527-54.927-10.034-110.953-4.504-137.45l31.917-1.377 14.49 46.407 7.05 31.462L522 364.122zM456.857 399.464c-1.277.274-2.608.132-3.799-.405l-4.148-1.87c-3.478-.18-5.846.515-7.783-2.018-1.112-1.475-1.34-3.438-.592-5.129.74-1.696 2.336-2.86 4.173-3.044l5.698-3.598.299 2.698c2.604 1.478 5.695.84 8.971-.6l1.788 6.273c.466 1.635.235 3.39-.638 4.849-.873 1.458-2.31 2.487-3.97 2.844zM528.915 386.883c-1.125.682-2.437.984-3.745.863l-4.555-.424c-3.367.973-5.394 2.416-8.061.631-1.54-1.043-2.395-2.846-2.235-4.709.152-1.865 1.29-3.503 2.978-4.284l4.247-5.316 1.164 2.482c2.959.557 5.692-1.071 8.339-3.526l3.745 5.41c.976 1.41 1.328 3.165.973 4.847-.356 1.681-1.388 3.14-2.85 4.026z"/>
        <ellipse cx="466.65" cy="166.5" fill="#FFB8B8" fill-rule="nonzero" rx="13.95" ry="14.4"/>
        <path fill="#FFB8B8" fill-rule="nonzero" d="M483.3 197.1L464.943 193.082 462.6 177.412 475.489 174.6z"/>
        <path fill="#6C63FF" fill-rule="nonzero" d="M478.286 238.5H445.5l7.39-18.843c-.537-6.483 2.169-11.252 6.041-15.403l4.913-12.527c7.939-5.306 13.923-4.91 20.297 1.982 7.556 10.864 2.325 27.197-5.855 44.791z"/>
        <path fill="#FFB8B8" fill-rule="nonzero" d="M463.247 278.294l-.93 10.403c-.33 3.713-2.246 6.277-5.816 5.446-1.719-.4-3.181-1.544-4.003-3.132-.822-1.588-.923-3.463-.276-5.133l3.248-8.375 9.332-38.796-1.555-28.107H478.8l-1.944 30.086-13.61 37.608z"/>
        <path fill="#5A50FB" fill-rule="nonzero" d="M480.6 212.4h-18l1.262-11.889c.172-4.262 3.525-7.688 7.732-7.9 2.173-.11 4.299.664 5.904 2.15 1.605 1.487 2.557 3.562 2.642 5.763l.46 11.876z"/>
        <circle cx="484.2" cy="146.7" r="5.4" fill="#2F2E41" fill-rule="nonzero"/>
        <path fill="#2F2E41" fill-rule="nonzero" d="M478.606 145.5c.191-2.846 2.64-5.057 5.594-5.05-.116-.014-.23-.032-.348-.039-3.083-.19-5.742 2.069-5.94 5.046-.198 2.976 2.14 5.545 5.222 5.738.118.007.234.004.35.005-2.93-.359-5.066-2.855-4.878-5.7z"/>
        <path fill="#2F2E41" fill-rule="nonzero" d="M478.05 147.27c-4.783-3.972-18.5 1.075-19.386 3.745-6.467.883-11.364 4.66-11.364 11.375 3.845 1.577 8.218 1.383 12.945 0 7.536 6.147 8.052 13.875 3.47 22.75l5.638.113 6.988-10.224.334 10.371 12.924-.26V170.28c.042-4.942-1.095-9.822-3.314-14.236-2.014-3.916-5.14-6.203-8.236-8.774z"/>
        <ellipse cx="466.2" cy="170.1" fill="#FFB8B8" fill-rule="nonzero" rx="2.7" ry="3.6"/>
        <path fill="#FFB9B9" fill-rule="nonzero" d="M145.8 174.794s1.57-27.027 9.716-20.886c8.148 6.141-3.557 23.392-3.557 23.392l-6.159-2.506zM115.905 253.8s18.007 20.148 7.932 21.532c-10.074 1.385-14.037-18.98-14.037-18.98l6.105-2.552z"/>
        <path fill="#575A89" fill-rule="nonzero" d="M93.43 159.405c4.513 1.196 7.873 5.003 8.522 9.657l5.594 40.098 7.841 31.986s3.92 3.554 2.353 5.528c-1.569 1.974 1.96 10.267 1.96 10.267l-9.802 3.159s-1.176-8.293-3.137-8.687c-1.722-.347-21.009-52.236-25.657-64.806-.641-1.733-1.004-2.72-1.004-2.72s.784-26.456 13.33-24.482z"/>
        <path fill="#FFB9B9" fill-rule="nonzero" d="M94.75 368.1l5.981 10.966c4.633 10.23.516 12.089-10.842 7.017L87.3 373.135l7.45-5.035z"/>
        <path fill="#202440" fill-rule="nonzero" d="M97.889 382.906s2.842-4.705 3.87-3.917c1.029.787 5.27 4.2 5.27 4.2l5.523 5.378s18.662 2.006 6.804 8.653c-11.858 6.647-18.412 1.135-18.412 1.135s-16.609.878-16.34-3.832c.267-4.71 5.624-12.163 5.624-12.163s6.75 4.6 7.66.546zM68.4 247.4l5.667 68.731s.189 41.088 6.233 49.04c6.044 7.953 6.233 11.929 6.233 11.929L99 370.662s-6.422-10.727-5.1-12.369c.815-1.041 1.395-2.248 1.7-3.536l-3.4-42.413 6.422-73.844-30.222 8.9z"/>
        <path fill="#FFB9B9" fill-rule="nonzero" d="M83.7 368.693L78.467 382.5 66.6 377.547 72.861 367.2z"/>
        <path fill="#202440" fill-rule="nonzero" d="M74.558 378.16s4.536-2.781 5.103-1.669c.566 1.112 2.834 5.84 2.834 5.84l2.551 6.951s15.592 9.732 2.268 10.289c-13.323.556-16.725-6.952-16.725-6.952s-15.024-6.396-12.756-10.289c2.268-3.892 10.205-7.93 10.205-7.93s3.969 6.818 6.52 3.76zM116.66 246.698l3.04 63.401s-27.74 57.327-30.78 58.845c-1.83.944-3.2 2.587-3.8 4.556l-16.72-4.176 7.6-12.149 16.72-40.622s2.66-1.139 3.42-4.935c.76-3.797 2.28-3.797-1.52-4.556-3.8-.76-3.8-4.556-3.8-4.556L78.28 244.8l38.38 1.898z"/>
        <ellipse cx="102.505" cy="132.929" fill="#FFB9B9" fill-rule="nonzero" rx="15.139" ry="15.136" transform="rotate(-80.783 102.505 132.93)"/>
        <path fill="#FFB9B9" fill-rule="nonzero" d="M89.168 134.1s-1.146 19.099-2.674 20.971c-1.528 1.873 16.042 1.498 16.042 1.498s-1.146-16.103 0-17.6c1.145-1.499-13.368-4.869-13.368-4.869z"/>
        <path fill="#575A89" fill-rule="nonzero" d="M117 251.1s-42.503-3.79-50.4 0c0 0 2.907-10.87 2.156-12.005-.546-.83.96-31.792.488-49.652-.269-10.078-2.576-19.92 4.131-27.402 2.283-2.541 4.829-4.675 7.516-5.717 0 0-.75-7.202 3.01-7.58 0 0 14.296-1.52 19.559 3.033 1.683 1.445 2.741 5.85 2.853 9.645-2.604 12.91-1.683 27.235.707 42.096.147.944.308 1.892.469 2.841 2.536 14.738 6.37 29.934 9.511 44.741z"/>
        <path fill="#2F2E41" fill-rule="nonzero" d="M94.546 137.162c1.287-.076 2.545.354 3.823.521 4.575.6 9.334-2.68 10.344-7.129.08-.592.26-1.168.529-1.703.704-1.136 2.307-1.352 3.629-1.091 1.322.26 2.575.872 3.92.942 2.08.108 4.075-1.157 5.182-2.898 1.047-1.796 1.492-3.873 1.272-5.934l-.996 1.033c-.405-.846-.561-1.788-.451-2.718-1.074-.282-2.22.007-3.024.764-.878.093-.215-1.61-.868-2.198-.317-.193-.696-.263-1.062-.197-1.87.018-3.381-1.394-4.854-2.531-2.552-1.966-5.536-3.311-8.712-3.927-2.11-.407-4.354-.472-6.356.305-1.616.716-3.074 1.738-4.292 3.008-3.134 2.978-5.909 6.476-7.212 10.574-1.06 3.356-1.09 6.948-.087 10.321.526 1.752 2.109 7.752 4.426 7.891 2.912.176 1.164-4.82 4.789-5.033z"/>
        <path fill="#575A89" fill-rule="nonzero" d="M100.578 161.1l5.417.58s5.317 10.303 4.93 12.452c-.385 2.15-1.226.845 1.167 4.283 2.393 3.439 9.184 12.327 10.025 13.631.84 1.305 23.766-16.166 22.34-21.4 0 0 7.241 5.188 10.343 5.878 0 0-23.626 30.95-26.919 34.91-3.292 3.961-5.942 3.148-10.466.8C112.89 209.885 90 186.46 90 186.46l10.578-25.361z"/>
        <path fill="#000" fill-rule="nonzero" d="M108 207l-18.9-19.122 4.783-1.578 13.645 17.823c.147.955.31 1.916.472 2.877z" opacity=".1"/>
    </g>
</svg>
