<?xml version="1.0" encoding="UTF-8"?>
<svg xmlns="http://www.w3.org/2000/svg" width="963.584" height="783.736" viewBox="0 0 963.584 783.736">
  <g id="Group_3753" data-name="Group 3753" transform="translate(18832.674 -16769.879)">
    <path id="Path_128534" data-name="Path 128534" d="M3858.672,13435.67a504.668,504.668,0,0,1,56.624-142.2c7.5-12.751,16.075-25.674,29-32.862,13.461-7.482,29.64-7.663,45.039-7.44,50.634.734,104.042,4.684,146.027,33,13.151,8.869,25.179,20.511,30.545,35.437,8.19,22.781-.52,47.8-9.166,70.414q-20.97,54.848-41.939,109.693c-1.693,4.427-3.409,8.9-6.08,12.813-9.666,14.164-29.014,17.593-46.16,17.389-41.94-.5-82.272-15.1-121.66-29.51l-58.177-21.288c-6.8-2.488-13.854-5.14-18.851-10.38s-7.222-13.885-3.054-19.8" transform="translate(-22196.766 3901.996)" fill="#6ad1e3"></path>
    <path id="Path_128535" data-name="Path 128535" d="M4063.969,13534.03c-.474,0-.949,0-1.429-.009-42.764-.512-83.23-15.317-122.363-29.638l-58.177-21.29c-6.663-2.436-14.215-5.2-19.656-10.905-5.322-5.582-8.271-15.359-3.253-22.486l3.465,2.438c-3.583,5.087-1.362,12.7,2.854,17.123,4.759,4.992,11.818,7.574,18.046,9.853l58.177,21.289c38.8,14.2,78.918,28.877,120.958,29.38,27.2.289,39.136-8.774,44.384-16.463,2.544-3.729,4.225-8.124,5.85-12.376l41.94-109.693c9.218-24.105,16.853-47.518,9.152-68.941-4.518-12.563-14.522-24.137-29.736-34.4-42.7-28.793-97.169-31.943-144.874-32.635-15.958-.23-31.333.144-43.979,7.175-12.808,7.121-21.275,20.295-28.206,32.083a500.955,500.955,0,0,0-56.385,141.605l-4.129-.95a505.243,505.243,0,0,1,56.861-142.8c7.214-12.27,16.062-26,29.8-33.639,13.558-7.538,29.542-7.947,46.1-7.708,48.315.7,103.518,3.914,147.181,33.357,15.977,10.773,26.525,23.046,31.354,36.477,8.192,22.789.332,47.007-9.181,71.887l-41.94,109.694c-1.713,4.479-3.484,9.112-6.308,13.251-8.189,12-24.253,18.319-46.506,18.319" transform="translate(-22196.766 3901.996)" fill="#6ad1e3"></path>
    <path id="Path_128536" data-name="Path 128536" d="M3879.676,13256.17a414.6,414.6,0,0,1-43.449,66.665c-8.327-10.5-17.116-21.366-29.3-26.93-8.969-4.094-19.012-4.945-28.7-6.75-47.183-8.786-88.849-42.947-106.713-87.493-6.427-16.026-9.921-33.12-16.545-49.066l54.181-46.635c10.048-8.649,22.755-17.9,35.354-13.766,4.135,31.655,17.863,65.115,46.458,79.311,14.409,7.153,30.866,8.553,46.765,11s32.441,6.455,44.2,17.429,16.554,30.885,6.376,43.342" transform="translate(-22196.766 3901.996)" fill="#f04e98"></path>
    <path id="Path_128537" data-name="Path 128537" d="M3836.221,13326.237l-1.654-2.086c-7.751-9.771-16.535-20.847-28.526-26.318-6.663-3.042-14.2-4.266-21.49-5.45-2.205-.358-4.486-.729-6.721-1.145-47.718-8.887-90.225-43.737-108.292-88.788-3.142-7.834-5.617-16.011-8.011-23.918-2.529-8.352-5.143-16.984-8.524-25.123l-.589-1.417,55.344-47.637c11-9.467,24.041-18.552,37.4-14.174l1.267.415.173,1.324c6.96,53.275,34,72.077,45.3,77.688,11.848,5.881,25.461,7.821,38.626,9.7,2.513.359,5.023.717,7.519,1.1,15.427,2.369,32.877,6.357,45.326,17.974,12.151,11.337,17.691,32.621,6.571,46.231l-3.281-2.683c7.765-9.5,7.135-28.025-6.181-40.452-11.607-10.828-28.29-14.61-43.079-16.884-2.481-.38-4.975-.735-7.473-1.092-13.5-1.924-27.453-3.914-39.912-10.1-24.877-12.351-42.119-41.306-47.432-79.56-10.966-2.735-22.327,5.348-32.056,13.722l-53.025,45.641c3.181,7.9,5.671,16.127,8.084,24.1,2.368,7.821,4.816,15.908,7.889,23.571,17.54,43.736,58.808,77.571,105.134,86.2,2.188.406,4.444.772,6.625,1.128,7.566,1.229,15.39,2.5,22.571,5.776,12.036,5.494,20.777,15.855,28.424,25.45a413.171,413.171,0,0,0,41.573-64.237l3.756,1.962a417.376,417.376,0,0,1-43.672,67.006Z" transform="translate(-22196.766 3901.996)" fill="#f04e98"></path>
    <path id="Path_128538" data-name="Path 128538" d="M3468.526,13651.619l-.569-4.2a1220.7,1220.7,0,0,0,301.939-81.377c138.235-57.11,182.275-117.172,203.377-157.382,6.627-12.629,7.737-22.343,3.3-28.872a8.09,8.09,0,0,0-4.81-3.17,27.46,27.46,0,0,1-13.828,10.876l-1.85.612-.764-1.792c-2.029-4.753-.123-9.436,4.974-12.222a17.93,17.93,0,0,1,9.272-2.1,21.422,21.422,0,0,0,1.046-2.422c1.746-4.845,1.4-9.594-.962-13.374a8.9,8.9,0,0,0-2.783-2.8,35.422,35.422,0,0,1-20.77,11.878l-1.906.3-.48-1.87c-1.546-6.017,1.782-11.762,8.479-14.636a20.056,20.056,0,0,1,13.414-.858,36.386,36.386,0,0,0,3.983-6.911,12.308,12.308,0,0,0-1.586-12.649,12.64,12.64,0,0,0-12.174-4.808c-18.612,3.015-36.856,10.48-54.5,17.7l-2.891,1.184a1752.421,1752.421,0,0,1-279.745,87.709c-39.639,8.855-85.577,17.552-129.16,8.512-6.8-1.409-14.413-3.614-19.295-9.274-4.5-5.221-5.744-12.188-6.554-18.309a221.693,221.693,0,0,1,11.5-104.739c6.608-18.088,26.327-61.134,66.6-70.144,25.583-5.726,55.8,4.7,78.847,27.2a133.868,133.868,0,0,1,35.2,127.378l-4.1-1.082a129.636,129.636,0,0,0-34.062-123.266c-22.037-21.514-50.756-31.517-74.962-26.1-38.231,8.553-57.174,50.029-63.544,67.464a217.454,217.454,0,0,0-11.282,102.727c.73,5.516,1.822,11.762,5.562,16.1,4.044,4.687,10.535,6.563,16.947,7.892,42.761,8.867,88.169.264,127.376-8.5a1748.147,1748.147,0,0,0,279.066-87.5l2.889-1.182c17.864-7.31,36.335-14.87,55.426-17.961a16.821,16.821,0,0,1,16.2,6.4,16.49,16.49,0,0,1,2.116,16.947,40.541,40.541,0,0,1-3.975,7.053,12.974,12.974,0,0,1,3.749,3.889c3.072,4.907,3.554,10.966,1.357,17.058q-.324.9-.719,1.78a12.015,12.015,0,0,1,6.2,4.619c5.385,7.922,4.358,19.1-3.052,33.221-44.7,85.178-138.7,131.726-205.511,159.33a1224.99,1224.99,0,0,1-302.988,81.661m498.149-275.226a13.162,13.162,0,0,0-4.348,1.417c-1.453.795-3.543,2.359-3.556,4.792a23.275,23.275,0,0,0,7.9-6.209m-6.374-24.745a16.591,16.591,0,0,0-6.439,1.32c-1.589.683-6.252,3.08-6.3,7.694a31.312,31.312,0,0,0,15.007-8.84,14.467,14.467,0,0,0-2.268-.175" transform="translate(-22196.766 3901.996)" fill="#360484"></path>
    <path id="Path_128539" data-name="Path 128539" d="M3928.65,13304.245c-21.77,0-43.771-1.071-65.4-5.664-7.34-1.557-14.864-3.741-20.182-9.121a18.955,18.955,0,0,1-5.277-11.511,28.451,28.451,0,0,1-4.147-1c-7.719-2.484-14.818-9.864-14.4-18.371a12.137,12.137,0,0,1-1.831-1.742c-5-5.878-6.176-17.26,1.506-26.774,5.719-7.084,13.955-10.964,22.6-14.631,62.5-26.5,129.747-42.338,194.782-57.651,60.185-14.172,122.419-28.827,180.653-51.893,6.249-2.476,12.265-5.019,17.186-8.9,12.349-9.733,15.495-25.679,16.271-34.319,2.766-30.8-13.295-63.866-42.962-88.44-13.815-11.445-26.636-17.736-39.194-19.234-9.979-1.193-21.01.466-34.72,5.211-17.411,6.027-40.661,17.726-52.549,39.232-8.794,15.91-10.069,35.012-10.2,49.877-.214,24.8,3.06,63.445,9.731,89.329l-4.1,1.057c-7.077-27.457-10.075-66.12-9.865-90.423.133-15.364,1.471-35.147,10.726-51.89,12.537-22.683,36.759-34.917,54.871-41.187,14.337-4.963,25.971-6.682,36.608-5.414,13.392,1.6,26.933,8.2,41.4,20.177,30.742,25.466,47.37,59.891,44.479,92.084-.837,9.318-4.272,26.551-17.868,37.269-5.37,4.232-11.7,6.913-18.248,9.509-58.522,23.18-120.91,37.87-181.243,52.077-64.862,15.273-131.934,31.067-194.1,57.428-8.133,3.449-15.856,7.069-20.96,13.392-4.651,5.762-6.549,15.137-1.819,21.072a14.259,14.259,0,0,1,9.689-7.317c4.609-1.021,8.78.407,11.156,3.8l.492.7-.135.847c-.7,4.352-3.994,7.757-8.825,9.111a16.2,16.2,0,0,1-9.186-.116c.843,5.561,6.008,10.373,11.354,12.094a24.148,24.148,0,0,0,3.08.767,12.625,12.625,0,0,1,3.219-6.29c3.617-3.819,9.36-3.659,13.167-1.894,3.915,1.816,6.089,5.281,5.672,9.043l-.169,1.52-1.494.318c-5.311,1.138-10.837,2.164-16.315,1.979a14.768,14.768,0,0,0,3.981,8.12c4.533,4.585,11.353,6.533,18.047,7.954,30.718,6.522,62.446,5.83,93.127,5.155,111.756-2.442,238.423-5.213,350.1-53.89l1.694,3.885c-112.444,49.01-239.554,51.789-351.7,54.241-9.483.207-19.07.417-28.7.417m-86.381-30.122a58.3,58.3,0,0,0,13.491-1.512,5.576,5.576,0,0,0-3.138-3.265c-2.553-1.187-6.226-1.235-8.308.963a8.371,8.371,0,0,0-2.045,3.813m-18.375-17.7a11.9,11.9,0,0,0,7.734.441c1.412-.4,4.6-1.627,5.582-4.826-2-2.055-4.957-1.7-6.217-1.418-2.787.613-6.015,2.657-7.1,5.8" transform="translate(-22196.766 3901.996)" fill="#360484"></path>
    <path id="Path_128540" data-name="Path 128540" d="M3957.3,13301.71c61.373-1.342,123.66-3.017,184.567-10.836q-3.179-2.474-6.5-4.715c-41.985-28.313-95.393-32.262-146.027-33-15.4-.223-31.578-.043-45.039,7.44-12.928,7.188-21.507,20.11-29,32.861q-2.44,4.153-4.8,8.35c15.574.56,31.23.236,46.806-.1" transform="translate(-22196.766 3901.996)" fill="#360484"></path>
    <path id="Path_128541" data-name="Path 128541" d="M3928.91,13304.659c-6.151,0-12.365-.083-18.506-.3l-4.171-.15,2.046-3.637c1.582-2.812,3.206-5.637,4.825-8.392,7.243-12.318,16.128-26.105,29.96-33.795,13.651-7.589,29.7-8,46.311-7.761,48.375.7,103.65,3.92,147.412,33.43,2.246,1.515,4.48,3.135,6.643,4.817l4.82,3.751-6.058.777c-59.161,7.595-118.718,9.408-184.836,10.855-8.937.2-18.61.407-28.446.407m-14.122-5.256c14.494.375,29.277.052,42.457-.235,63.616-1.391,121.127-3.123,177.979-10.026q-.639-.444-1.28-.876c-42.6-28.729-97-31.871-144.642-32.561-15.9-.229-31.213.141-43.767,7.121-12.715,7.067-21.144,20.186-28.048,31.928q-1.352,2.3-2.7,4.649" transform="translate(-22196.766 3901.996)" fill="#360484"></path>
    <path id="Path_128542" data-name="Path 128542" d="M3456.844,13395.129l-.826-4.156a155.947,155.947,0,0,0,88.648-53.092,41.708,41.708,0,0,0,4.482-6.365,92.779,92.779,0,0,1-8.9,4.527c-1.011.447-4.087,1.809-6.415-.142-1.915-1.6-1.717-4.257-1.632-5.389.841-11.254,5.38-18.113,12.142-18.349a9.676,9.676,0,0,1,7.32,3.12,13.694,13.694,0,0,1,3.577,7.2,90.825,90.825,0,0,0,23.76-25.758c4.623-7.563,6.263-13.573,5.162-18.911a11.314,11.314,0,0,0-1.411-3.532,67.772,67.772,0,0,1-12.358,11.317l-1.143.812-1.193-.735a12.032,12.032,0,0,1,1.366-20.351,11.829,11.829,0,0,1,10.358.544,15.954,15.954,0,0,1,2.791,1.828,66.147,66.147,0,0,0,12.91-38.651l4.237.01a70.466,70.466,0,0,1-14.188,41.753,15.9,15.9,0,0,1,2.781,6.15c1.331,6.455-.479,13.438-5.7,21.976a95.226,95.226,0,0,1-27.55,28.859c-1.012,4.787-3.987,8.955-7.125,12.776a158.073,158.073,0,0,1-91.1,54.559m87.818-78.734c-.056,0-.113,0-.17,0-2.373.083-4.23,1.544-5.677,4.468a27.958,27.958,0,0,0-2.387,9.963c-.118,1.571.1,1.8.126,1.824.007,0,.427.2,1.981-.485a88.89,88.89,0,0,0,12.619-6.857l.015-.2a9.449,9.449,0,0,0-2.544-6.876,5.592,5.592,0,0,0-3.963-1.843m29.241-47.773a6.724,6.724,0,0,0-2.757.575c-2.58,1.147-3.66,3.96-3.811,6.21a7.708,7.708,0,0,0,1.883,5.811,64,64,0,0,0,10.737-10.182,11.7,11.7,0,0,0-2.108-1.4,8.664,8.664,0,0,0-3.944-1.017" transform="translate(-22196.766 3901.996)" fill="#360484"></path>
    <path id="Path_128543" data-name="Path 128543" d="M3423.835,13465.544a47.834,47.834,0,0,1-24.124-6.282c-9.495-5.543-15.308-13.872-15.551-22.28a16.435,16.435,0,0,1,1.679-7.531,17.309,17.309,0,0,1-8.255-6.054c-4.133-5.823-5.135-13.807-2.984-22.255-6.87-4.06-12.138-13.38-10.044-24.255,1.667-8.661,7.394-16.9,17.023-24.5a90.455,90.455,0,0,1,80.571-15.454l-1.206,4.063a86.128,86.128,0,0,0-76.741,14.719c-8.807,6.944-14.017,14.335-15.486,21.97-1.325,6.881,1.286,15.362,7.177,19.318q.583-1.573,1.31-3.153c2.3-5.012,5.45-7.6,9.095-7.522a6.818,6.818,0,0,1,5.877,3.982,8.579,8.579,0,0,1-.429,8.694c-3.028,4.3-8.9,4.992-13.2,3.825-1.642,6.988-.811,13.454,2.494,18.11a13.246,13.246,0,0,0,7.135,4.831,17.942,17.942,0,0,1,3.434-3.243,13.161,13.161,0,0,1,12.328-2.049l2.209.815-1.044,2.111c-2.042,4.126-6.178,6.726-11.349,7.135a18.3,18.3,0,0,1-3.657-.081,12.512,12.512,0,0,0-1.7,6.4c.2,6.937,5.229,13.944,13.451,18.743,10.085,5.89,22.976,7.3,35.367,3.87s22.724-11.261,28.351-21.491l3.713,2.041c-6.174,11.228-17.449,19.8-30.934,23.534a54.517,54.517,0,0,1-14.508,1.988m-24.4-41.566a10.2,10.2,0,0,0-5.36,1.994c-.148.107-.293.217-.436.328a10.277,10.277,0,0,0,5.8-2.322m-19.681-25.206c2.979.777,6.774.28,8.523-2.2a4.425,4.425,0,0,0,.109-4.352,2.683,2.683,0,0,0-2.2-1.65h-.066c-2.389,0-4.2,3.161-5.076,5.059q-.726,1.578-1.294,3.146" transform="translate(-22196.766 3901.996)" fill="#360484"></path>
    <path id="Path_128544" data-name="Path 128544" d="M4127.3,13030.516a66.632,66.632,0,0,1-8.968-.685c-17.436-2.368-32.535-8.91-43.664-18.917-12.856-11.561-19.94-27.763-18.95-43.341l4.229.27c-.909,14.3,5.653,29.219,17.554,39.921,13.259,11.922,29.832,16.3,41.4,17.868,8.11,1.1,13.991.792,19.069-1.008a20.8,20.8,0,0,0,6.469-3.687q-3.093-1.27-6.088-2.762c-3.377-1.683-6.739-3.723-8.455-7.228-1.625-3.317-1.119-7.312,1.354-10.684a12.147,12.147,0,0,1,11.3-5.141,13.231,13.231,0,0,1,8.766,5.65,16.229,16.229,0,0,1,2.755,12.163,18.126,18.126,0,0,1-2.442,6.173c29.013,9.809,63.053,5.377,88.1-12.236l2.438,3.467c-26.537,18.657-62.736,23.138-93.3,12.293a24.668,24.668,0,0,1-9.48,5.985,36.1,36.1,0,0,1-12.086,1.9m13.765-31.266a8.283,8.283,0,0,0-6.4,3.52,6.13,6.13,0,0,0-.965,6.314c1.161,2.372,3.829,3.948,6.539,5.3q3.565,1.775,7.274,3.228a14.08,14.08,0,0,0,2.394-5.466,11.909,11.909,0,0,0-2.05-8.92,9.047,9.047,0,0,0-5.942-3.912,6.038,6.038,0,0,0-.853-.062" transform="translate(-22196.766 3901.996)" fill="#360484"></path>
    <path id="Path_128545" data-name="Path 128545" d="M3602.559,13334.295q-1.356,0-2.708-.132c-4.061-.4-8.738-2.373-9.683-6.718-.664-3.054.746-6.249,4.191-9.5a50.519,50.519,0,0,1,21.149-11.894l1.125,4.086a46.251,46.251,0,0,0-19.367,10.892c-2.289,2.158-3.284,4.012-2.957,5.513.462,2.124,3.5,3.16,5.957,3.4a25.7,25.7,0,0,0,22.557-9.871,10.837,10.837,0,0,0,2.288-4.634,4.4,4.4,0,0,0-1.018-3.857,2.265,2.265,0,0,0-2.8-.294l-2.809-3.174a6.449,6.449,0,0,1,8.527.392,8.593,8.593,0,0,1,2.281,7.646,14.826,14.826,0,0,1-3.087,6.479,30.112,30.112,0,0,1-23.642,11.662" transform="translate(-22196.766 3901.996)" fill="#360484"></path>
    <path id="Path_128546" data-name="Path 128546" d="M3619.292,13309.034c-2.051-1.321-4.947-.655-6.7,1.043a10.641,10.641,0,0,0-2.785,6.606,6.654,6.654,0,0,0,1.039,5.006,5.166,5.166,0,0,0,4.453,1.587,12.111,12.111,0,0,0,4.595-1.655,13.62,13.62,0,0,0,4.518-3.585,6,6,0,0,0,1.069-5.476c-1.014-2.8-4.415-3.926-7.39-3.924" transform="translate(-22196.766 3901.996)" fill="#360484"></path>
    <path id="Path_128547" data-name="Path 128547" d="M3614.69,13325.848a7.475,7.475,0,0,1-5.793-2.528c-1.4-1.681-1.931-3.939-1.616-6.9a12.9,12.9,0,0,1,3.543-8.163,8.479,8.479,0,0,1,8.157-2.13c3.547.217,7.512,1.763,8.893,5.573a8.432,8.432,0,0,1-1.419,7.857,16.156,16.156,0,0,1-5.334,4.3,14.514,14.514,0,0,1-5.579,1.959q-.429.04-.852.04m2.119-14.966a3.655,3.655,0,0,0-2.445,1.021,8.391,8.391,0,0,0-2.027,5.049,4.382,4.382,0,0,0,.463,3.107,2.7,2.7,0,0,0,2.26.686,9.975,9.975,0,0,0,3.611-1.352,11.362,11.362,0,0,0,3.7-2.872,3.511,3.511,0,0,0,.721-3.094c-.56-1.545-2.98-2.248-4.993-2.248h-.006v-.286l-.18.277a2.036,2.036,0,0,0-1.106-.289" transform="translate(-22196.766 3901.996)" fill="#360484"></path>
    <path id="Path_128548" data-name="Path 128548" d="M3616.071,13365.041a52.166,52.166,0,0,1-38.382-19.158c-.824-1.021-3.329-4.131-2.2-7.466l4.012,1.365c-.254.747.245,1.9,1.483,3.442a47.883,47.883,0,0,0,35.225,17.582Z" transform="translate(-22196.766 3901.996)" fill="#360484"></path>
    <path id="Path_128549" data-name="Path 128549" d="M4109.042,13078.638a72.726,72.726,0,0,1-8.458-.537c-5.77-.674-9.371-3.342-9.632-7.135a9.583,9.583,0,0,1,1.539-5.2,26.976,26.976,0,0,1,5.271-7.477c2.52-2.277,5.6-3.5,8.8-4.661,6.2-2.245,13.431-4.553,20.711-3.409l-.011.063a13.189,13.189,0,0,1,6.063,3.508c1.676,1.525,4.478,4.077,4.649,7.608.1,2.136-.754,4.292-2.618,6.593a29.2,29.2,0,0,1-16.293,9.59,44.628,44.628,0,0,1-10.017,1.056m14.278-24.479c-5.261,0-10.6,1.747-15.319,3.455-2.786,1.009-5.448,2.06-7.4,3.82a23.445,23.445,0,0,0-4.385,6.353,6.327,6.327,0,0,0-1.038,2.889c.13,1.88,3.258,2.908,5.9,3.216,6.816.8,12.23.658,17.04-.44a24.965,24.965,0,0,0,13.944-8.127,5.854,5.854,0,0,0,1.677-3.722c-.079-1.644-1.657-3.213-3.268-4.678-1.107-1.007-3.843-3.249-5.32-2.295l-.271-.417q-.777-.054-1.558-.054" transform="translate(-22196.766 3901.996)" fill="#360484"></path>
    <path id="Path_128550" data-name="Path 128550" d="M4105,13058.919a23.3,23.3,0,0,0-6.544,3.028,7.889,7.889,0,0,0-3.444,6.07c.011,3.245,2.942,6.025,6.158,6.451a10.311,10.311,0,0,0,8.666-3.546c1.476-1.608,2.585-3.77,2.209-5.921-.644-3.687-5.034-5.311-8.765-5.614" transform="translate(-22196.766 3901.996)" fill="#360484"></path>
    <path id="Path_128551" data-name="Path 128551" d="M4102.246,13077.082a10.75,10.75,0,0,1-1.406-.092c-4.674-.621-8.349-4.558-8.365-8.962a10.4,10.4,0,0,1,4.465-8.12,25.6,25.6,0,0,1,7.243-3.395l.146.428c4.541.569,9.386,2.826,10.226,7.625a9.711,9.711,0,0,1-2.841,8.075,13.048,13.048,0,0,1-9.468,4.44m1.637-15.072a15.717,15.717,0,0,0-3.9,1.976,5.418,5.418,0,0,0-2.42,4.024c.006,1.82,1.852,3.661,3.95,3.939a7.76,7.76,0,0,0,6.458-2.745,4.858,4.858,0,0,0,1.578-3.763c-.334-1.908-2.966-3.059-5.663-3.432" transform="translate(-22196.766 3901.996)" fill="#360484"></path>
    <path id="Path_128552" data-name="Path 128552" d="M4099.015,13106.191l-.224-4.23c18.563-.984,34.412-13.59,44.438-23.994l3.05,2.942c-15.136,15.7-31.48,24.447-47.264,25.282" transform="translate(-22196.766 3901.996)" fill="#360484"></path>
    <path id="Path_128553" data-name="Path 128553" d="M3894.378,12943.835q1.206,17.956,2.413,35.912c-33.544,1.238-68.186,5.515-92.929,27.382-15.329,13.546-25.092,32.881-28.31,53.082-4.735,29.721,5.33,62.08,28.11,81.748s58.1,24.539,84.076,9.337q-1.542-30.019-2.394-60.068c-6.888,1.757-14.069,3.521-21.027,2.067s-13.577-7.168-13.561-14.276a17.294,17.294,0,0,1,2.872-8.77c10.527-17.356,33.79-20.94,54.048-22.25q.578,25,1.154,50.008a1035.7,1035.7,0,0,1,85.9-90.5,268.609,268.609,0,0,0-100.35-63.67" transform="translate(-22196.766 3901.996)" fill="#703dc1"></path>
    <path id="Path_128554" data-name="Path 128554" d="M3853.439,13162.337a78.9,78.9,0,0,1-51.162-18.775c-22.508-19.434-33.82-52.28-28.818-83.684,3.432-21.546,13.731-40.842,29-54.337,24.812-21.927,58.795-26.466,92.072-27.826l-2.484-36.956,3.04,1.08a271.261,271.261,0,0,1,101.144,64.174l1.539,1.551-1.6,1.49a1037,1037,0,0,0-85.722,90.317l-3.611,4.294-1.232-53.4c-19.7,1.437-40.6,5.3-50.169,21.083a15.042,15.042,0,0,0-2.565,7.676c-.013,6.079,6.028,10.976,11.877,12.2,6.619,1.386,13.764-.437,20.069-2.045l2.566-.653.075,2.646c.567,19.94,1.372,40.133,2.393,60.021l.065,1.285-1.111.65a69.966,69.966,0,0,1-35.369,9.213m43.27-215.4,2.342,34.851-2.182.081c-33.183,1.224-67.246,5.326-91.6,26.852-14.535,12.845-24.344,31.25-27.621,51.827-4.777,29.987,5.979,61.314,27.4,79.812,22.412,19.35,56.052,23.357,80.51,9.747-.947-18.62-1.7-37.5-2.254-56.174-6.093,1.5-12.782,2.827-19.419,1.441-7.4-1.548-15.264-7.806-15.246-16.356a19.065,19.065,0,0,1,3.179-9.862c10.938-18.034,34.307-21.882,55.723-23.267l2.2-.142,1.076,46.629a1041.88,1041.88,0,0,1,80.863-84.917,267.144,267.144,0,0,0-94.972-60.521" transform="translate(-22196.766 3901.996)" fill="#5c54a3"></path>
    <path id="Path_128555" data-name="Path 128555" d="M3789.673,13204.22c-2.043-8.639-10.725-14.662-19.569-15.434s-17.6,2.9-24.727,8.188c-5.562,4.126-10.527,9.537-12.371,16.213-2.653,9.61,1.96,20.306,9.808,26.455s18.331,8.2,28.269,7.387a39.226,39.226,0,0,0,13.037-3.135c10.464-4.742,17.673-16.043,17.29-27.524s-8.5-22.383-19.469-25.787c-6.449-2-13.4-1.54-20.065-.431" transform="translate(-22196.766 3901.996)" fill="#6ad1e3"></path>
    <path id="Path_128556" data-name="Path 128556" d="M3766.893,13249.318c-9.824,0-18.717-2.783-25.386-8.01-8.938-7-13.274-18.8-10.543-28.686,1.75-6.339,6.174-12.177,13.15-17.351,8.467-6.279,17.763-9.334,26.174-8.6a25.3,25.3,0,0,1,2.85.413,34.757,34.757,0,0,1,9.43,1.47c11.729,3.64,20.543,15.307,20.959,27.74.409,12.252-7.212,24.394-18.532,29.526a40.853,40.853,0,0,1-13.741,3.314q-2.206.18-4.361.18m-4.807-57.906a40.044,40.044,0,0,0-15.447,7.264c-6.2,4.6-10.1,9.669-11.591,15.074-2.288,8.285,1.443,18.246,9.072,24.224,6.8,5.331,16.314,7.792,26.79,6.942a36.744,36.744,0,0,0,12.335-2.951,27.764,27.764,0,0,0,16.048-25.526,26.713,26.713,0,0,0-11.641-20.762,19.975,19.975,0,0,1,4.082,8.056l-4.123.975c-1.528-6.462-7.6-11.775-14.933-13.389a59.6,59.6,0,0,0-10.454.923Z" transform="translate(-22196.766 3901.996)" fill="#6ad1e3"></path>
    <path id="Path_128557" data-name="Path 128557" d="M3678.129,13165.523a5.214,5.214,0,0,1-3.242-1.1,6.687,6.687,0,0,1-2.159-3.22,9.129,9.129,0,0,1,8.914-11.53l-.267,4.229a3.42,3.42,0,0,0-.5.006,7.267,7.267,0,0,1,1.734,1.419,6.341,6.341,0,0,1,1.651,5.059,6.035,6.035,0,0,1-3.811,4.667,6.187,6.187,0,0,1-2.32.467m-.744-9.313a4.338,4.338,0,0,0-.632,3.675,2.535,2.535,0,0,0,.746,1.206,1.42,1.42,0,0,0,1.357.039,1.862,1.862,0,0,0,1.206-1.312,2.132,2.132,0,0,0-.61-1.66,2.682,2.682,0,0,0-2.043-.967Z" transform="translate(-22196.766 3901.996)" fill="#6ad1e3"></path>
    <path id="Path_128558" data-name="Path 128558" d="M3878.129,13229.452a4.948,4.948,0,0,1-4.467-3.144,7.46,7.46,0,0,1,.071-5.24,4.013,4.013,0,0,1,3.469-2.686h.062a2.622,2.622,0,0,1,1.045.239l.06-.088a9.233,9.233,0,0,1,3.8,4.279,5.415,5.415,0,0,1-.26,4.243,4.3,4.3,0,0,1-2.647,2.237,4.071,4.071,0,0,1-1.136.158m-.6-6.179a2.648,2.648,0,0,0,.061,1.441.877.877,0,0,0,.54.5,1.352,1.352,0,0,0,.063-.955,2.9,2.9,0,0,0-.664-.987m-.984-2.058-.9.255a1.632,1.632,0,0,0,1.021,1.056c-.224-.171-.456-.334-.684-.49Z" transform="translate(-22196.766 3901.996)" fill="#6ad1e3"></path>
    <path id="Path_128559" data-name="Path 128559" d="M4031.334,13495.595l-1.332-4.021a163.263,163.263,0,0,0,56.71-32.736l2.817,3.166a167.532,167.532,0,0,1-58.2,33.591" transform="translate(-22196.766 3901.996)" fill="#6ad1e3"></path>
    <path id="Path_128560" data-name="Path 128560" d="M4047.821,13511.5l-1.127-4.084a111.86,111.86,0,0,0,50.905-30.341l3.057,2.936a116.1,116.1,0,0,1-52.835,31.489" transform="translate(-22196.766 3901.996)" fill="#6ad1e3"></path>
    <path id="Path_128561" data-name="Path 128561" d="M4079.631,13518.648l-2.275-3.574a151,151,0,0,0,20.985-16.122l2.866,3.121a155.2,155.2,0,0,1-21.576,16.575" transform="translate(-22196.766 3901.996)" fill="#6ad1e3"></path>
    <path id="Path_128562" data-name="Path 128562" d="M4090.361,13508.1c-11.274-11.312-22.312-23.146-32.805-35.179l3.193-2.785c10.432,11.961,21.4,23.728,32.613,34.973Z" transform="translate(-22196.766 3901.996)" fill="#6ad1e3"></path>
    <path id="Path_128563" data-name="Path 128563" d="M4098.02,13489.423a138.735,138.735,0,0,0-23.874-28.828l2.868-3.119a142.913,142.913,0,0,1,24.6,29.709Z" transform="translate(-22196.766 3901.996)" fill="#6ad1e3"></path>
    <rect id="Rectangle_4284" data-name="Rectangle 4284" width="4.237" height="8.919" transform="matrix(0.707, -0.707, 0.707, 0.707, -18099.773, 17357.744)" fill="#6ad1e3"></rect>
    <rect id="Rectangle_4285" data-name="Rectangle 4285" width="4.245" height="4.237" transform="translate(-18087.207 17374.805) rotate(-21.327)" fill="#6ad1e3"></rect>
    <rect id="Rectangle_4286" data-name="Rectangle 4286" width="4.238" height="25.239" transform="matrix(0.78, -0.625, 0.625, 0.78, -18148.869, 17400.195)" fill="#6ad1e3"></rect>
    <rect id="Rectangle_4287" data-name="Rectangle 4287" width="4.795" height="4.237" transform="translate(-18176.662 17412.547) rotate(-9.605)" fill="#6ad1e3"></rect>
    <path id="Path_128564" data-name="Path 128564" d="M3768.067,13235.986a14.513,14.513,0,0,1-4.672-.965c-2.543-.887-5.44-2.014-7.617-4.192-2.243-2.245-3.781-6.062-2.161-9.524l3.838,1.795c-.714,1.526.124,3.536,1.321,4.735a15.666,15.666,0,0,0,6.013,3.184c1.659.578,3.5,1.077,4.6.4a5.913,5.913,0,0,0,1.5-1.74,13.792,13.792,0,0,0,2.432-4.907c.223-1.214-.017-2.846-1.074-3.561a6.875,6.875,0,0,0-2.2-.737c-.4-.089-.791-.179-1.178-.283a11.95,11.95,0,0,1-8.275-7.5,9.529,9.529,0,0,1,3.653-10.872,11.1,11.1,0,0,1,5.112-1.533,12.733,12.733,0,0,1,7.1,1.278,8.578,8.578,0,0,1,4.611,6.319,3.985,3.985,0,0,1-1.175,3.659l-2.786-3.194a.743.743,0,0,0-.233.346,1.017,1.017,0,0,0-.008-.258,4.409,4.409,0,0,0-2.4-3.133,8.715,8.715,0,0,0-4.775-.795,7.051,7.051,0,0,0-3.2.9,5.269,5.269,0,0,0-1.876,5.956,7.781,7.781,0,0,0,5.368,4.736c.325.09.658.162.99.237a10.165,10.165,0,0,1,3.648,1.363,7.658,7.658,0,0,1,2.864,7.839,17.382,17.382,0,0,1-3.083,6.5,9.511,9.511,0,0,1-2.785,2.979,6.612,6.612,0,0,1-3.545.959" transform="translate(-22196.766 3901.996)" fill="#fff"></path>
    <rect id="Rectangle_4288" data-name="Rectangle 4288" width="9.122" height="4.238" transform="matrix(0.664, -0.748, 0.748, 0.664, -18422.305, 17103.609)" fill="#fff"></rect>
    <path id="Path_128565" data-name="Path 128565" d="M3755.247,13239l-2.671-3.289a44.118,44.118,0,0,0,6.167-6.111l3.264,2.7a48.309,48.309,0,0,1-6.76,6.7" transform="translate(-22196.766 3901.996)" fill="#fff"></path>
    <path id="Path_128566" data-name="Path 128566" d="M3876.872,13011.351a175.6,175.6,0,0,1-17.357-19.749l3.384-2.551a171.72,171.72,0,0,0,16.936,19.273Z" transform="translate(-22196.766 3901.996)" fill="#6ad1e3"></path>
    <path id="Path_128567" data-name="Path 128567" d="M3891.486,13009.819l-12.8-18.138c-1.178-1.67-2.353-3.2-3.785-3.566l1.057-4.1c3.058.788,4.943,3.46,6.191,5.229l12.8,18.137Z" transform="translate(-22196.766 3901.996)" fill="#6ad1e3"></path>
    <path id="Path_128568" data-name="Path 128568" d="M3897.016,13001.852a59.288,59.288,0,0,0-9.434-15.037l3.212-2.765a63.557,63.557,0,0,1,10.108,16.113Z" transform="translate(-22196.766 3901.996)" fill="#6ad1e3"></path>
    <path id="Path_128569" data-name="Path 128569" d="M3859.23,13003.653l-2.313-3.55a159.737,159.737,0,0,1,37.981-18.138l1.306,4.032a155.485,155.485,0,0,0-36.974,17.655" transform="translate(-22196.766 3901.996)" fill="#6ad1e3"></path>
    <path id="Path_128570" data-name="Path 128570" d="M3891,13011.386l-2.86-3.127a70.412,70.412,0,0,1,15.87-10.943l1.905,3.784a66.165,66.165,0,0,0-14.915,10.286" transform="translate(-22196.766 3901.996)" fill="#6ad1e3"></path>
    <rect id="Rectangle_4289" data-name="Rectangle 4289" width="6.285" height="4.236" transform="translate(-18274.887 16920.861) rotate(-41.135)" fill="#6ad1e3"></rect>
    <rect id="Rectangle_4290" data-name="Rectangle 4290" width="6.741" height="4.237" transform="translate(-18253.383 16889.035) rotate(-15.834)" fill="#6ad1e3"></rect>
    <rect id="Rectangle_4291" data-name="Rectangle 4291" width="8.298" height="4.239" transform="translate(-18240.533 16907.996) rotate(-4.576)" fill="#6ad1e3"></rect>
    <path id="Path_128571" data-name="Path 128571" d="M3941.749,13015.913a10.425,10.425,0,0,0-3.924-2.952l1.674-3.893a14.67,14.67,0,0,1,5.525,4.158Z" transform="translate(-22196.766 3901.996)" fill="#6ad1e3"></path>
    <rect id="Rectangle_4292" data-name="Rectangle 4292" width="5.823" height="4.238" transform="translate(-18255.42 16931.182) rotate(-23.961)" fill="#6ad1e3"></rect>
    <path id="Path_128572" data-name="Path 128572" d="M3589.518,13211.952l-2.813-3.17c4.476-3.974,4.761-11.108,4.448-17.564a240.228,240.228,0,0,0-6.768-46.1c-.658-2.65-1.818-6.258-4.3-6.987a6.416,6.416,0,0,0-3.338.2,43.556,43.556,0,0,1-3.8,13.655c-1.852,3.971-5.413,7.786-9.849,6.565a7.357,7.357,0,0,1-4.871-5.108c-1.357-4.346.341-9.449,4.323-13,2.965-2.646,6.61-4.117,10.2-5.3a39.479,39.479,0,0,0-2.316-15.077c-1.788-4.917-4.282-8.334-7.413-10.157-3.083-1.8-7.94-1.934-10.409.979l-3.231-2.741c3.94-4.646,11.114-4.614,15.773-1.9,4.01,2.337,7.126,6.5,9.262,12.373a43.645,43.645,0,0,1,2.6,15.321,9.144,9.144,0,0,1,4.271.135c5.1,1.5,6.635,7.7,7.213,10.031a244.361,244.361,0,0,1,6.888,46.912c.361,7.458-.053,15.779-5.867,20.94m-17.234-72.17a21.307,21.307,0,0,0-6.914,3.816c-2.25,2.01-4.081,5.442-3.1,8.581a3.288,3.288,0,0,0,1.943,2.286c1.767.481,3.775-1.874,4.892-4.27a39.187,39.187,0,0,0,3.179-10.414" transform="translate(-22196.766 3901.996)" fill="#f04e98"></path>
    <path id="Path_128573" data-name="Path 128573" d="M3443.415,13262.545c-14.223-15.51-29.3-30.584-44.8-44.8l2.863-3.123c15.6,14.3,30.76,29.463,45.064,45.063Z" transform="translate(-22196.766 3901.996)" fill="#f04e98"></path>
    <path id="Path_128574" data-name="Path 128574" d="M3478.751,13228.864a291.139,291.139,0,0,0-34.3-52.672l3.279-2.684a295.373,295.373,0,0,1,34.8,53.441Z" transform="translate(-22196.766 3901.996)" fill="#f04e98"></path>
    <rect id="Rectangle_4293" data-name="Rectangle 4293" width="4.237" height="41.046" transform="translate(-18685.105 17055.914) rotate(-12.14)" fill="#f04e98"></rect>
    <path id="Path_128575" data-name="Path 128575" d="M4049.739,12926.988c-1.749-6.2,1.339-12.516,5.744-16.437a22.382,22.382,0,0,1-2.171-5.334c-1.877-7.183-.376-15.338,4.118-22.374,3.713-5.812,9.359-10.846,16.78-14.959l2.054,3.705c-6.8,3.769-11.933,8.322-15.263,13.535-3.861,6.044-5.169,12.977-3.59,19.021a18.367,18.367,0,0,0,1.545,3.948c5.743-3.231,12.44-3.818,17.734-3.956,2.2-.05,8.9-.226,11.792,4.524,2.065,3.39,1.115,8.333-2.162,11.254-3.171,2.825-7.371,3.33-10.325,3.262a24.715,24.715,0,0,1-18.093-9.107c-3.151,2.972-5.3,7.457-4.085,11.769Zm11.6-15.372a20.346,20.346,0,0,0,14.756,7.324,10.66,10.66,0,0,0,7.4-2.189c1.542-1.374,2.5-4.016,1.362-5.886-1.088-1.787-3.728-2.6-8.065-2.491-4.692.12-10.574.613-15.457,3.242" transform="translate(-22196.766 3901.996)" fill="#f04e98"></path>
    <path id="Path_128576" data-name="Path 128576" d="M4143.527,12920.661l-4.232-.205a122.933,122.933,0,0,1,9.194-41.1l3.916,1.618a118.706,118.706,0,0,0-8.878,39.689" transform="translate(-22196.766 3901.996)" fill="#f04e98"></path>
    <path id="Path_128577" data-name="Path 128577" d="M4188.161,12926.335l-3.651-2.152a163.223,163.223,0,0,0,16.454-38.474l4.078,1.152a167.528,167.528,0,0,1-16.881,39.474" transform="translate(-22196.766 3901.996)" fill="#f04e98"></path>
    <rect id="Rectangle_4294" data-name="Rectangle 4294" width="54.146" height="4.237" transform="translate(-17965.004 16853.266) rotate(-57.668)" fill="#f04e98"></rect>
    <path id="Path_128578" data-name="Path 128578" d="M4279.65,12994.148l-2.445-3.462a501.936,501.936,0,0,0,47.622-38.221l2.848,3.137a506.091,506.091,0,0,1-48.025,38.546" transform="translate(-22196.766 3901.996)" fill="#f04e98"></path>
    <path id="Path_128579" data-name="Path 128579" d="M4073.759,13366.426a206.861,206.861,0,0,0-61.454-21.047l.727-4.174a211.1,211.1,0,0,1,62.711,21.477Z" transform="translate(-22196.766 3901.996)" fill="#fff"></path>
    <path id="Path_128580" data-name="Path 128580" d="M4064.342,13394.923a206.875,206.875,0,0,0-61.455-21.047l.728-4.174a211.115,211.115,0,0,1,62.711,21.477Z" transform="translate(-22196.766 3901.996)" fill="#fff"></path>
    <path id="Path_128581" data-name="Path 128581" d="M4023.883,13412.789a102.362,102.362,0,0,0-30.413-10.416l.727-4.174a106.638,106.638,0,0,1,31.67,10.846Z" transform="translate(-22196.766 3901.996)" fill="#fff"></path>
  </g>
</svg>
