<?xml version="1.0" encoding="UTF-8"?>
<svg xmlns="http://www.w3.org/2000/svg" width="964.947" height="810.041" viewBox="0 0 964.947 810.041">
  <g id="Group_3689" data-name="Group 3689" transform="translate(20370.391 -15598.813)">
    <path id="Path_128433" data-name="Path 128433" d="M2663.5,10270.442l-4.239-1.032a1079.678,1079.678,0,0,1-296.552-121.022l-1.016-.6-.173-1.169c-10.721-72.391,13.9-138.024,40.028-199.044,9.311-21.739,21.185-42.59,32.668-62.755,10.411-18.282,21.176-37.185,29.941-56.61,15.318-33.958,29.79-83.84,11.724-128.633l-1.671-4.142,4.4.763a2163.842,2163.842,0,0,1,283.536,69.142c3.469,1.1,7.787,2.467,10.795,5.817,3.7,4.122,4.187,9.6,4.391,15.334,1.606,45.332,3.427,96.711-16.7,141.7-10.008,22.37-25.08,42.126-39.655,61.231-7.761,10.172-15.786,20.69-22.925,31.451-23.162,34.915-38.706,75.979-44.949,118.754s-3.091,86.569,9.124,126.648Zm-297.23-125.725a1074.706,1074.706,0,0,0,289.965,118.829,297.928,297.928,0,0,1-8.053-124.644c6.351-43.5,22.163-85.263,45.728-120.786,7.229-10.9,15.3-21.481,23.114-31.717,14.4-18.881,29.3-38.4,39.071-60.246,19.654-43.935,17.855-94.7,16.267-139.493-.169-4.778-.535-9.3-3.121-12.187-1.947-2.168-4.916-3.232-8.6-4.4a2158.929,2158.929,0,0,0-278.578-68.232c16.272,45.311,1.876,94.6-13.378,128.407-8.86,19.639-19.684,38.645-30.15,57.026-11.416,20.045-23.22,40.771-32.418,62.251-25.711,60.034-49.943,124.544-39.851,195.19" transform="translate(-22319.766 5922.996)" fill="#6ad1e3"></path>
    <path id="Path_128434" data-name="Path 128434" d="M2610.794,9861.254q1.846-65.609,3.7-131.218c.056-2,.158-4.136,1.346-5.745,1.087-1.473,2.879-2.217,4.582-2.889a963.243,963.243,0,0,1,124.383-39.521c8.406-2.055,16.983-4.011,25.621-3.5,9.971.6,19.43,4.442,28.578,8.452a639.8,639.8,0,0,1,91.18,49.124c9.025,5.853,18.594,12.9,21.015,23.38,1.089,4.713.577,9.63.059,14.439q-7.246,67.334-14.493,134.668c-.61,5.663-1.351,11.661-4.9,16.116-3.263,4.1-8.361,6.2-13.234,8.124q-56.589,22.348-113.937,42.705c-13.394,4.756-27.669,9.491-41.56,6.479-7.107-1.542-13.615-5.032-20.013-8.489q-46.5-25.124-92.72-50.744c-6.408-3.552-13.307-7.673-15.78-14.568-4.02-11.21,5.648-22.854,5.379-34.76" transform="translate(-22319.766 5922.996)" fill="#703dc1"></path>
    <path id="Path_128435" data-name="Path 128435" d="M2732.341,9985.323a45.578,45.578,0,0,1-9.737-1.021c-7.534-1.633-14.512-5.4-20.667-8.729-30.889-16.69-62.093-33.769-92.744-50.757-7.081-3.925-14.219-8.386-16.916-15.9-2.6-7.255-.2-14.421,2.13-21.353,1.65-4.917,3.208-9.56,3.1-14.189l4.973-.111c.124,5.5-1.649,10.778-3.363,15.883-2.15,6.409-4.181,12.462-2.163,18.092,2.115,5.9,8.135,9.625,14.645,13.233,30.636,16.981,61.825,34.049,92.7,50.731,6.152,3.324,12.513,6.761,19.358,8.246,12.737,2.763,25.745-1.261,40.2-6.392,38.018-13.5,76.325-27.854,113.855-42.675,5.24-2.07,9.466-3.925,12.2-7.361,3.21-4.029,3.855-10.019,4.372-14.832l14.493-134.669c.49-4.553,1-9.262-.009-13.612-2.237-9.684-11.468-16.356-19.946-21.854A638.873,638.873,0,0,0,2798,9689.115c-9.176-4.021-18.2-7.679-27.727-8.246-8.074-.481-16.046,1.267-24.883,3.428a963.728,963.728,0,0,0-124.061,39.42,8.019,8.019,0,0,0-3.5,2.051c-.71.964-.809,2.534-.86,4.339l-3.7,131.219-4.97-.142L2612,9729.967c.057-2.048.135-4.854,1.83-7.153,1.553-2.1,3.934-3.039,5.673-3.724a968.648,968.648,0,0,1,124.7-39.623c9.235-2.259,17.586-4.078,26.361-3.562,10.337.617,20.206,4.614,29.427,8.656a643.719,643.719,0,0,1,91.534,49.316c9.294,6.025,19.432,13.415,22.086,24.906,1.194,5.167.618,10.531.11,15.264l-14.493,134.669c-.587,5.453-1.318,12.238-5.427,17.4-3.78,4.749-9.594,7.044-14.266,8.888-37.584,14.843-75.945,29.221-114.017,42.737-11.662,4.139-22.454,7.584-33.183,7.584" transform="translate(-22319.766 5922.996)" fill="#703dc1"></path>
    <path id="Path_128436" data-name="Path 128436" d="M2726.672,9793.894c-8.043-.393-12.391,9.088-14.573,16.839q-20.294,72.067-46.368,142.337,18.673,10.192,37.387,20.314c6.4,3.457,12.906,6.947,20.012,8.489,13.891,3.013,28.166-1.723,41.561-6.479q57.336-20.353,113.936-42.705c4.874-1.925,9.971-4.025,13.234-8.124,3.548-4.455,4.29-10.453,4.9-16.116l14.493-134.668c.518-4.81,1.03-9.727-.059-14.439a22.526,22.526,0,0,0-.7-2.357l-146.876,17.335Z" transform="translate(-22319.766 5922.996)" fill="#360484"></path>
    <path id="Path_128437" data-name="Path 128437" d="M2732.341,9985.323a45.643,45.643,0,0,1-9.738-1.021c-7.533-1.634-14.511-5.4-20.666-8.73-11.343-6.128-23.574-12.774-37.4-20.32l-1.888-1.031.748-2.017c17.289-46.6,32.867-94.42,46.306-142.146,4.275-15.182,11.122-18.615,16.37-18.663l36.792-19.49.463-.055,148.855-17.568.658,1.882a24.437,24.437,0,0,1,.774,2.62c1.2,5.169.617,10.532.109,15.263l-14.494,134.669c-.586,5.452-1.315,12.236-5.426,17.4-3.781,4.749-9.595,7.044-14.265,8.888-37.586,14.845-75.948,29.223-114.019,42.737-11.66,4.139-22.451,7.585-33.181,7.585m-63.532-33.407c13.046,7.119,24.675,13.437,35.491,19.28,6.152,3.323,12.513,6.762,19.357,8.246,12.742,2.763,25.744-1.26,40.2-6.392,38.017-13.494,76.323-27.853,113.857-42.675,5.24-2.069,9.464-3.925,12.2-7.36,3.21-4.032,3.855-10.021,4.372-14.832l14.493-134.669c.49-4.553,1-9.26-.01-13.613-.016-.067-.031-.136-.049-.2l-144.349,17.037-37.141,19.676-.681-.033c-6.728-.3-10.438,9.275-12.059,15.028-13.281,47.165-28.648,94.428-45.683,140.511" transform="translate(-22319.766 5922.996)" fill="#360484"></path>
    <path id="Path_128438" data-name="Path 128438" d="M2777.332,9786.486c-.2-5.729-.691-11.213-4.391-15.334-3-3.348-7.324-4.718-10.8-5.817-48.049-15.228-97.44-28.974-146.8-40.857l-2.524-.606-.479,2.446q-66.618-15.957-134.158-27.675c16.807,41.675,6.714,89.626-11.764,130.585s-44.9,78.015-62.588,119.32c-27.629,64.517-50.137,128.276-39.856,197.7A1080.054,1080.054,0,0,0,2659.849,10267c-25.11-82.4-11.485-175.723,36.132-247.5,8.059-12.147,17.043-23.732,25.905-35.371.236.055.467.126.7.177.115.027.231.047.441.083l1.539.32.949-1.25c12.8-16.861,26.054-35.017,35.114-55.268,20.126-44.988,18.3-96.367,16.7-141.7" transform="translate(-22319.766 5922.996)" fill="#6ad1e3"></path>
    <path id="Path_128439" data-name="Path 128439" d="M2774.847,9786.574c-.172-4.856-.511-10.146-3.757-13.761-2.471-2.754-6.169-3.99-9.7-5.108q-72.56-23-146.629-40.809a19.192,19.192,0,0,0-.276,3.141q-1.846,65.609-3.694,131.217l-10.8,12.058c.268,11.906-9.4,23.55-5.379,34.76,2.473,6.9,9.371,11.017,15.779,14.568q46.224,25.62,92.721,50.745c6.4,3.456,12.906,6.946,20.012,8.488.136.03.273.046.409.075,13.183-17.366,25.951-34.942,34.824-54.778,19.448-43.473,18.17-93,16.484-140.6" transform="translate(-22319.766 5922.996)" fill="#6ad1e3"></path>
    <rect id="Rectangle_4243" data-name="Rectangle 4243" width="4.138" height="4.973" transform="translate(-19526.797 15856.457) rotate(-26.726)" fill="#f04e98"></rect>
    <path id="Path_128440" data-name="Path 128440" d="M2566.5,10226.247l-3.452-3.58c19.158-18.476,39.063-36.686,59.162-54.125l3.26,3.756c-20.033,17.383-39.874,35.535-58.97,53.949" transform="translate(-22319.766 5922.996)" fill="#f04e98"></path>
    <rect id="Rectangle_4244" data-name="Rectangle 4244" width="69.229" height="4.974" transform="translate(-19738.67 16164.346) rotate(-42.981)" fill="#f04e98"></rect>
    <path id="Path_128441" data-name="Path 128441" d="M2615.073,10256.694l-3.545-3.488c10.141-10.307,19.971-21.164,29.218-32.27l3.822,3.183c-9.335,11.211-19.259,22.17-29.5,32.575" transform="translate(-22319.766 5922.996)" fill="#f04e98"></path>
    <path id="Path_128442" data-name="Path 128442" d="M2637.59,10226.38c-10.9-20.435-22.844-40.632-35.511-60.029l4.164-2.719c12.747,19.52,24.771,39.845,35.736,60.408Z" transform="translate(-22319.766 5922.996)" fill="#f04e98"></path>
    <path id="Path_128443" data-name="Path 128443" d="M2611.693,10249.148c-11.09-11.011-20.437-23.764-29.476-36.1-4.644-6.337-9.447-12.889-14.41-19.1a2.7,2.7,0,0,0-.883-.752,1.2,1.2,0,0,0,1.065-.347l-3.6-3.429a3.764,3.764,0,0,1,2.908-1.172c2.236.1,3.932,2.01,4.4,2.593,5.028,6.29,9.861,12.886,14.536,19.264,8.926,12.18,18.156,24.772,28.969,35.508Z" transform="translate(-22319.766 5922.996)" fill="#f04e98"></path>
    <path id="Path_128444" data-name="Path 128444" d="M2537.193,10045.446c-8.243,5.248-27.151,13.532-35.392,18.779-22.283,14.188-40.99,20.707-63.273,34.895-13.67,8.7-28.714,19.5-30.578,35.6,8.368-2.348,17.366.941,25.95-.414,5.756-.907,10.96-3.843,16.023-6.725q43.434-24.734,86.872-49.465c3.992-2.273,8.117-4.665,10.746-8.431,6-8.6.017-22.627-10.348-24.237" transform="translate(-22319.766 5922.996)" fill="#f04e98"></path>
    <path id="Path_128445" data-name="Path 128445" d="M2405.054,10138.113l.427-3.683c1.986-17.152,17.41-28.3,31.712-37.407a352.609,352.609,0,0,1,31.849-17.568,348.54,348.54,0,0,0,31.424-17.326c4.23-2.694,11.189-6.163,17.92-9.517,6.617-3.3,13.46-6.709,17.471-9.264l.791-.5.926.145c5.721.889,10.662,4.992,13.218,10.977s2.1,12.395-1.212,17.142c-3,4.3-7.546,6.884-11.554,9.167l-86.873,49.466c-4.965,2.826-10.592,6.028-16.864,7.019a51.1,51.1,0,0,1-12.4-.039c-4.687-.4-9.114-.772-13.264.392Zm10.036-6.754c2.427,0,4.841.206,7.217.406a46.773,46.773,0,0,0,11.207.082c5.375-.848,10.359-3.685,15.179-6.429l86.872-49.466c3.552-2.023,7.579-4.316,9.937-7.693,2.326-3.33,2.594-7.942.717-12.339a12.98,12.98,0,0,0-8.545-7.845c-4.275,2.609-10.773,5.848-17.07,8.987-6.616,3.3-13.456,6.706-17.468,9.261a352.158,352.158,0,0,1-31.852,17.568,349.348,349.348,0,0,0-31.422,17.325c-12.294,7.829-25.472,17.205-28.812,30.366a33.781,33.781,0,0,1,4.04-.225" transform="translate(-22319.766 5922.996)" fill="#f04e98"></path>
    <path id="Path_128446" data-name="Path 128446" d="M2476.692,10291.232a593.926,593.926,0,0,0-53.462-91.155c-24.793-34.749-41.456-45.868-54.485-52.161-27.106-13.092-60.881-12.871-106.3.694-8.158,2.436-16.447,5.153-24.463,7.781-26.844,8.8-54.6,17.9-83.313,18.487-8.677.175-21.208-.472-30-8.123-9.741-8.477-11.66-22.5-12.252-35.088a411.831,411.831,0,0,1,16.8-137.5c5.674-19.006,13.652-40.5,29.8-55.855,25.719-24.443,70.2-27.442,103.459-6.978,28.948,17.812,49.783,51.945,55.736,91.308,4.7,31.091,1.262,65.393-10.823,107.949l-4.783-1.357c11.883-41.852,15.279-75.484,10.688-105.848-5.736-37.934-25.706-70.762-53.423-87.814-31.406-19.324-73.288-16.6-97.428,6.346-15.3,14.544-22.976,35.293-28.462,53.671a406.905,406.905,0,0,0-16.6,135.842c.572,12.126,2.245,24.344,10.551,31.571,7.493,6.522,18.793,7.066,26.632,6.9,27.969-.57,55.368-9.554,81.866-18.24,8.046-2.639,16.366-5.367,24.588-7.823,46.68-13.941,81.6-14.07,109.886-.407,24.229,11.7,42.093,33.739,56.372,53.752a598.977,598.977,0,0,1,53.91,91.921Z" transform="translate(-22319.766 5922.996)" fill="#360484"></path>
    <path id="Path_128447" data-name="Path 128447" d="M2546.6,10485.857a132.636,132.636,0,0,1-31.446-3.755c-48.039-11.746-87.157-45.166-119.088-76.308l3.473-3.56c31.449,30.672,69.92,63.573,116.8,75.038a127.747,127.747,0,0,0,69.332-2.53c23.523-7.732,41.587-21.833,52.238-40.777,10.075-17.92,14.129-40.373,12.758-70.66a313.736,313.736,0,0,0-33.507-127.1c-23.543-46.31-58.319-86.082-91.951-124.543-6.191-7.082-13.209-15.108-22.2-19.119-8.035-3.581-19.278-3.451-25.227,3.729a12.215,12.215,0,0,0-2.6,7.6q.563.218,1.1.464c6.286,2.869,9.923,8.177,9.731,14.2l-.085,2.658-2.646-.263c-5.141-.51-9.366-3.906-11.591-9.32a19.415,19.415,0,0,1-1.145-3.922c-4.126-.829-8.937-.279-12.322,2.85-5.51,5.1-6.585,12.992-4.815,20.21,4.746,2.831,6.622,7.465,4.9,12.181l-1.585,4.339-2.749-3.713a32.088,32.088,0,0,1-4.7-9.318c-4.15-1.665-9.713-1.276-12.446,2.167-5.732,7.211-3.72,17.9-.693,28.382,8.432,29.183,17.775,58.527,27.769,87.214l-4.7,1.637c-10.024-28.772-19.394-58.2-27.85-87.47-5.765-19.952-2.439-27.8,1.576-32.857,3.565-4.488,9.714-5.683,15.084-4.6-1.1-7.923.736-16.181,6.835-21.821,4.379-4.049,10.2-5.062,15.442-4.3a17,17,0,0,1,3.668-9.488c7.531-9.085,21.335-9.442,31.082-5.1,9.992,4.455,17.391,12.919,23.92,20.387,33.832,38.69,68.816,78.7,92.641,125.563a318.793,318.793,0,0,1,34.042,129.128c1.414,31.257-2.842,54.556-13.392,73.323-11.27,20.045-30.3,34.936-55.02,43.063a130.616,130.616,0,0,1-40.621,6.39m-70.14-375.723a10.37,10.37,0,0,0,3.982,4.737,10.612,10.612,0,0,0-3.982-4.737" transform="translate(-22319.766 5922.996)" fill="#360484"></path>
    <path id="Path_128448" data-name="Path 128448" d="M2106.346,10128.866l-.4-4.957c40.63-3.282,74.319-31.662,108.1-62.977,9.883-9.161,20.1-18.634,26.125-30.778a42.811,42.811,0,0,0,4.61-21.047q-.583.582-1.176,1.151c-6.9,6.653-13.712,8.832-19.183,6.138a10.7,10.7,0,0,1-5.74-7.387c-1.234-5.139.437-11.935,4.158-16.911,3.481-4.659,9.281-8.826,15.117-6.532a13.181,13.181,0,0,1,5.579,4.767,31.309,31.309,0,0,1,4.22,8.164,108.207,108.207,0,0,0,24.865-72.523l4.969-.191a113.218,113.218,0,0,1-28.345,78.6,46.518,46.518,0,0,1-4.619,27.979c-6.429,12.961-17.463,23.189-27.2,32.214-34.449,31.932-68.866,60.876-111.081,64.287m128.278-138.95c-2.711,0-5.741,2.4-7.8,5.16-2.84,3.8-4.2,9.051-3.3,12.773a5.8,5.8,0,0,0,3.1,4.086c4.658,2.293,10.479-2.309,13.534-5.257q1.915-1.844,3.729-3.789a27.354,27.354,0,0,0-4.369-9.635,8.244,8.244,0,0,0-3.373-3.06,4.113,4.113,0,0,0-1.516-.279" transform="translate(-22319.766 5922.996)" fill="#360484"></path>
    <path id="Path_128449" data-name="Path 128449" d="M2077.92,10384.817c-13.712,0-26.6-3.481-37.06-10.4-7.134-4.724-12.09-10.684-14.26-16.966-8.269-.606-16.734-4.216-24.284-10.431-10.707-8.812-18.495-23.886-18.26-38.7-19.537-5.514-30.061-25.879-33.144-41.755-6.1-31.418,6.136-67.487,33.569-98.959,15.614-17.915,34.338-33.084,52.445-47.755,9-7.288,18.3-14.826,27.082-22.59,32.571-28.8,51.19-56.678,56.921-85.237l4.875.979c-5.95,29.662-25.087,58.442-58.5,87.985-8.861,7.834-18.208,15.406-27.245,22.728-17.942,14.536-36.5,29.568-51.828,47.158-26.417,30.308-38.239,64.841-32.434,94.744,2.76,14.216,11.9,32.338,28.665,37.633a35.658,35.658,0,0,1,4.809-13.458,13.985,13.985,0,0,1,4.182-4.659,9.444,9.444,0,0,1,8.756-.592,11.231,11.231,0,0,1,6.758,7.6c1.338,5.708-2.022,12.267-7.815,15.258a21.087,21.087,0,0,1-12.167,1.912c.08,12.937,7.042,26.085,16.493,33.864,6.287,5.175,13.219,8.327,19.991,9.164-.043-.427-.071-.854-.088-1.282-.226-6.183,2.806-12.468,8.112-16.813s12.069-6.081,18.084-4.639a7.187,7.187,0,0,1,2.646,1.117c2.226,1.619,2.92,4.724,1.857,8.3-2.936,9.885-12.831,17.387-24.171,18.39,2.827,6.377,8.757,10.9,11.7,12.851,22.082,14.624,50.738,10.354,70.19,1.479a108.133,108.133,0,0,0,31.087-175.348l3.494-3.54a113.111,113.111,0,0,1-32.516,183.414,92.049,92.049,0,0,1-37.941,8.545m-30.636-50.738a17.026,17.026,0,0,0-10.642,4.015c-4.11,3.366-6.463,8.146-6.292,12.784a16.512,16.512,0,0,0,.143,1.652c.183-.008.366-.021.548-.033,9.381-.664,17.906-6.925,20.27-14.886.431-1.449.327-2.616-.016-2.865a3.378,3.378,0,0,0-.878-.3,13.48,13.48,0,0,0-3.133-.363m-57.98-29.743a16.459,16.459,0,0,0,9.564-1.354c3.3-1.705,6.17-5.8,5.255-9.7a6.283,6.283,0,0,0-3.782-4.126,4.554,4.554,0,0,0-4.2.166,9.311,9.311,0,0,0-2.622,3.059,31.013,31.013,0,0,0-4.215,11.958" transform="translate(-22319.766 5922.996)" fill="#360484"></path>
    <path id="Path_128450" data-name="Path 128450" d="M2291.5,10041.061a32.087,32.087,0,0,1-5-.444,30.484,30.484,0,0,1-10.867-3.392,14.141,14.141,0,0,1-7.18-10.055c-.775-6.156,4.035-12.5,10.718-14.152,5.192-1.283,11.216-.02,16.955,3.556l-1.18,1.9,3.01-2.24c2,2.692,4.274,5.743,5.377,9.4,1.335,4.429.5,8.969-2.165,11.848-2.611,2.815-6.24,3.587-9.668,3.587m-8.191-23.564a12.287,12.287,0,0,0-2.947.349c-3.78.932-7.485,4.653-6.976,8.707a9.182,9.182,0,0,0,4.764,6.384,26.107,26.107,0,0,0,9.13,2.769c5.2.825,8.458.312,10.242-1.612,1.454-1.566,1.864-4.324,1.05-7.03a25.647,25.647,0,0,0-4.321-7.479l-.754,1.211a20.266,20.266,0,0,0-10.188-3.3" transform="translate(-22319.766 5922.996)" fill="#360484"></path>
    <path id="Path_128451" data-name="Path 128451" d="M2295.263,10020.8c-1.056-1.021-2.91-.7-3.974.317a7.812,7.812,0,0,0-1.867,3.923,11.684,11.684,0,0,0-.374,5.209,4.7,4.7,0,0,0,3.314,3.721c2.621.559,4.981-2.045,5.485-4.676a9.188,9.188,0,0,0-4.874-9.712" transform="translate(-22319.766 5922.996)" fill="#360484"></path>
    <path id="Path_128452" data-name="Path 128452" d="M2293.07,10036.532a5.835,5.835,0,0,1-1.226-.129,7.106,7.106,0,0,1-5.227-5.627,13.929,13.929,0,0,1,.39-6.325,10.019,10.019,0,0,1,2.566-5.131,6.04,6.04,0,0,1,4.317-1.627l.168-.348a10.517,10.517,0,0,1,.957.528,4.618,4.618,0,0,1,1.977,1.141l-.215.223a11.768,11.768,0,0,1,3.513,10.526,9.023,9.023,0,0,1-3.686,5.667,6.394,6.394,0,0,1-3.534,1.1m.192-13.781a.9.9,0,0,0-.257.168,5.912,5.912,0,0,0-1.168,2.715,9.623,9.623,0,0,0-.358,4.092,2.32,2.32,0,0,0,1.4,1.814,1.19,1.19,0,0,0,.973-.254,4,4,0,0,0,1.552-2.459,6.752,6.752,0,0,0-2.144-6.076" transform="translate(-22319.766 5922.996)" fill="#360484"></path>
    <path id="Path_128453" data-name="Path 128453" d="M2286.856,10082.981c-5.518,0-11.037-3.076-16.422-9.155a65.019,65.019,0,0,1-15.8-35.548l4.942-.556a60,60,0,0,0,14.585,32.807c4.575,5.165,9.018,7.655,13.2,7.467l.252,4.966c-.25.013-.5.02-.75.02" transform="translate(-22319.766 5922.996)" fill="#360484"></path>
    <path id="Path_128454" data-name="Path 128454" d="M2676.938,9881.9a33.35,33.35,0,0,1-9.955-6.769c-2.36,2.06-6.34,2.759-11.372,1.89a577.238,577.238,0,0,1-92.7-24.149,8.873,8.873,0,0,1-4.795,3.551,10.994,10.994,0,0,1-10.555-1.96,14.4,14.4,0,0,1-4.563-9.746,17.808,17.808,0,0,1-6.281,2.358,16.538,16.538,0,0,1-13.16-3.082,15.257,15.257,0,0,1-3.654-4.238,13.484,13.484,0,0,1-10.6,3.056,9.145,9.145,0,0,1-7.152-5.164l4.531-2.05a4.239,4.239,0,0,0,3.39,2.3,8.3,8.3,0,0,0,7.085-2.4,11.566,11.566,0,0,0,.764-.943,18.623,18.623,0,0,1-.348-2.682,16.538,16.538,0,0,1,4.593-12.713l4.732-4.71-.5,6.658c-.313,4.188-.719,9.6-3.115,14.191a10.72,10.72,0,0,0,3.365,4.8,12.295,12.295,0,0,0,17.183-3l7.869-12.7-3.331,14.566c-.881,3.855-.692,8.971,2.481,11.771a6.11,6.11,0,0,0,5.714.964,3.6,3.6,0,0,0,2.559-2.473l.6-2.765,2.665.949a572.25,572.25,0,0,0,94.076,24.71c2.608.453,7.188.61,7.816-1.662l1.268-4.595,3.042,3.67a28.35,28.35,0,0,0,10.354,7.813Z" transform="translate(-22319.766 5922.996)" fill="#fff"></path>
    <path id="Path_128455" data-name="Path 128455" d="M2635.872,9957.39A424.621,424.621,0,0,1,2553.2,9936.1l-.761-.279c-4.375-1.617-8.507-3.144-12.83-3.541-1.278-.118-2.579-.137-3.957-.158a31.257,31.257,0,0,1-8.058-.834,12.638,12.638,0,0,1-7.909-6.3c-4.917,2.911-11.306,4.219-16.876,1.412a12.982,12.982,0,0,1-6.367-7.976,24.034,24.034,0,0,1-7.625,3.7c-6.848,1.948-14.007.8-19.142-3.054l2.986-3.978c3.9,2.933,9.433,3.772,14.8,2.247a18.3,18.3,0,0,0,8.79-5.419,9.68,9.68,0,0,1,3.4-5.31l7.2-5.667-3.342,8.526a19.2,19.2,0,0,1-2.588,4.587,7.589,7.589,0,0,0,.008,1.465,8.256,8.256,0,0,0,4.124,6.439c4.85,2.447,11.013.1,14.688-3.113l4.827-4.22-.719,6.371c-.277,2.448,2.423,4.76,5.082,5.5a27.116,27.116,0,0,0,6.8.653c1.411.021,2.871.043,4.34.178,4.974.458,9.612,2.171,14.1,3.828l.756.279a419.716,419.716,0,0,0,81.7,21.035Z" transform="translate(-22319.766 5922.996)" fill="#fff"></path>
    <path id="Path_128456" data-name="Path 128456" d="M2510.651,9988.966a438.324,438.324,0,0,0-46.826-11.487l.916-4.889a443.981,443.981,0,0,1,47.359,11.618Z" transform="translate(-22319.766 5922.996)" fill="#fff"></path>
    <rect id="Rectangle_4245" data-name="Rectangle 4245" width="4.973" height="20.632" transform="matrix(0.337, -0.942, 0.942, 0.337, -19768.93, 15921.483)" fill="#fff"></rect>
    <path id="Path_128457" data-name="Path 128457" d="M2405.783,10111.71l-12.485-11.334.972-1.728a58.691,58.691,0,0,1,8.839-11.854,18.839,18.839,0,0,1-8.735-3.129l-2.428-1.653,2.032-2.121a69.085,69.085,0,0,1,20.318-14.625,10.453,10.453,0,0,1-3.269-2.282,8.441,8.441,0,0,1-1.194-9.313,5.842,5.842,0,0,1,5.994-3.5l-.561,4.941c-.152-.015-.566-.064-.974.76a3.528,3.528,0,0,0,.317,3.662c2,2.075,5.666,2.206,9.239,2.161l16.973-.211-16.2,5.07a64.1,64.1,0,0,0-24.693,14.438,14.006,14.006,0,0,0,9.711.12l14.574-5.313-12.183,9.6a53.765,53.765,0,0,0-12.427,13.984l9.52,8.643Z" transform="translate(-22319.766 5922.996)" fill="#fff"></path>
    <path id="Path_128458" data-name="Path 128458" d="M2815.591,9941.05l-3.842-3.156c18.051-21.97,35.325-45.031,51.343-68.543l4.109,2.8c-16.1,23.633-33.464,46.813-51.61,68.9" transform="translate(-22319.766 5922.996)" fill="#f04e98"></path>
    <path id="Path_128459" data-name="Path 128459" d="M2842.358,9935.817l-3.512-3.521a256.562,256.562,0,0,0,30.727-37.036l4.109,2.8a261.472,261.472,0,0,1-31.324,37.757" transform="translate(-22319.766 5922.996)" fill="#f04e98"></path>
    <path id="Path_128460" data-name="Path 128460" d="M2870.114,9927.485a369.36,369.36,0,0,1-37.955-35.646l3.652-3.375a364.388,364.388,0,0,0,37.442,35.164Z" transform="translate(-22319.766 5922.996)" fill="#f04e98"></path>
    <path id="Path_128461" data-name="Path 128461" d="M2875.314,9912.284a390.008,390.008,0,0,0-28.978-31.689l3.479-3.553a395.037,395.037,0,0,1,29.349,32.094Z" transform="translate(-22319.766 5922.996)" fill="#f04e98"></path>
    <rect id="Rectangle_4246" data-name="Rectangle 4246" width="4.974" height="34.043" transform="matrix(0.671, -0.742, 0.742, 0.671, -19509.762, 15827.112)" fill="#f04e98"></rect>
    <path id="Path_128462" data-name="Path 128462" d="M2873.412,9855.872l-4.773-1.391a9.343,9.343,0,0,1,8.647-6.592l.076,4.974a4.382,4.382,0,0,0-3.95,3.009" transform="translate(-22319.766 5922.996)" fill="#f04e98"></path>
    <rect id="Rectangle_4247" data-name="Rectangle 4247" width="8.53" height="4.973" transform="translate(-19439.787 15790.304) rotate(-49.316)" fill="#f04e98"></rect>
    <path id="Path_128463" data-name="Path 128463" d="M2741.781,9688.364l-.691-4.924,14.447-2.03c9.831-1.381,20.973-2.948,31.6-.743l-1.009,4.869c-9.784-2.029-20.012-.592-29.905.8Z" transform="translate(-22319.766 5922.996)" fill="#6ad1e3"></path>
    <path id="Path_128464" data-name="Path 128464" d="M2744.416,9706l-.93-4.885c13.246-2.519,26.758-4.6,40.159-6.182l.584,4.939c-13.287,1.568-26.681,3.631-39.813,6.127" transform="translate(-22319.766 5922.996)" fill="#6ad1e3"></path>
    <rect id="Rectangle_4248" data-name="Rectangle 4248" width="30.289" height="4.972" transform="matrix(0.984, -0.18, 0.18, 0.984, -19560.447, 15643.067)" fill="#6ad1e3"></rect>
    <path id="Path_128465" data-name="Path 128465" d="M2780.061,9728.055a412.445,412.445,0,0,0-13.191-47.969l4.707-1.607a417.3,417.3,0,0,1,13.35,48.552Z" transform="translate(-22319.766 5922.996)" fill="#6ad1e3"></path>
    <path id="Path_128466" data-name="Path 128466" d="M2801.8,9719.845a110.488,110.488,0,0,1-4.647-32.194l4.973.021a105.453,105.453,0,0,0,4.438,30.748Z" transform="translate(-22319.766 5922.996)" fill="#6ad1e3"></path>
    <rect id="Rectangle_4249" data-name="Rectangle 4249" width="4.973" height="7.905" transform="translate(-19497.32 15630.859) rotate(-19.861)" fill="#6ad1e3"></rect>
    <rect id="Rectangle_4250" data-name="Rectangle 4250" width="12.027" height="4.973" transform="translate(-19600.652 15628.523)" fill="#6ad1e3"></rect>
    <path id="Path_128467" data-name="Path 128467" d="M2536.8,10214.121l-3.472-3.563a12.471,12.471,0,0,0,3.735-8.539l4.97.129a17.488,17.488,0,0,1-5.233,11.974" transform="translate(-22319.766 5922.996)" fill="#f04e98"></path>
    <path id="Path_128468" data-name="Path 128468" d="M2543,10191.67c-.276,0-.553-.013-.828-.037l.447-4.953a4.709,4.709,0,0,0,3.583-1.243l3.42,3.611a9.735,9.735,0,0,1-6.622,2.622" transform="translate(-22319.766 5922.996)" fill="#f04e98"></path>
    <rect id="Rectangle_4251" data-name="Rectangle 4251" width="2.617" height="4.973" transform="translate(-19768.025 16129.8) rotate(-45.002)" fill="#f04e98"></rect>
    <path id="Path_128469" data-name="Path 128469" d="M2610.68,10142.864l-3.336-3.688a20.013,20.013,0,0,1,7.4-4.229l1.484,4.746a15.025,15.025,0,0,0-5.55,3.172" transform="translate(-22319.766 5922.996)" fill="#f04e98"></path>
    <path id="Path_128470" data-name="Path 128470" d="M2623.049,10152.661l-4.02-2.928a25.471,25.471,0,0,0,4.212-9.265l4.85,1.1a30.475,30.475,0,0,1-5.042,11.089" transform="translate(-22319.766 5922.996)" fill="#f04e98"></path>
    <path id="Path_128471" data-name="Path 128471" d="M2638.357,10117.714a3.183,3.183,0,0,0-3.619-1.86l-1.375-4.779a8.154,8.154,0,0,1,9.68,4.976Z" transform="translate(-22319.766 5922.996)" fill="#f04e98"></path>
    <path id="Path_128472" data-name="Path 128472" d="M2277.983,9874.135l-4.973-.071a208.008,208.008,0,0,0-2.745-36.792c-.755-4.574-1.89-9.115-5.063-11.352a7.7,7.7,0,0,0-6.278-.987,11.927,11.927,0,0,0-6.42,4.04q-.583.926-1.21,1.824l-4.226-2.606a14.867,14.867,0,0,1,1.345-2.053,47.078,47.078,0,0,0,3.551-42.1c-.8-1.922-1.953-4.262-3.812-5.3a3.523,3.523,0,0,0-2.683-.246,1.631,1.631,0,0,0-1.011.8l-4.545-2.017a6.5,6.5,0,0,1,3.983-3.5,8.443,8.443,0,0,1,6.68.617c3.194,1.783,4.874,5.07,5.981,7.734a52.187,52.187,0,0,1,.256,38.227q.484-.146.977-.263a12.591,12.591,0,0,1,10.277,1.766c4.669,3.29,6.174,8.964,7.1,14.6a212.924,212.924,0,0,1,2.812,37.674" transform="translate(-22319.766 5922.996)" fill="#f04e98"></path>
    <path id="Path_128473" data-name="Path 128473" d="M2173.429,9865.685c-12.2-19.741-25.241-39.3-38.765-58.146l4.041-2.9c13.589,18.935,26.7,38.594,38.954,58.434Z" transform="translate(-22319.766 5922.996)" fill="#f04e98"></path>
    <rect id="Rectangle_4252" data-name="Rectangle 4252" width="4.973" height="50.288" transform="translate(-20251.275 15774.028) rotate(-50.599)" fill="#f04e98"></rect>
    <path id="Path_128474" data-name="Path 128474" d="M2354.232,9834.358l-4.867-1.023a473.511,473.511,0,0,1,13.953-51.623l4.719,1.568a468.57,468.57,0,0,0-13.805,51.078" transform="translate(-22319.766 5922.996)" fill="#f04e98"></path>
    <path id="Path_128475" data-name="Path 128475" d="M2085.063,9925.229a90.382,90.382,0,0,1-32.813-10.1l2.348-4.384a85.412,85.412,0,0,0,30.989,9.542Z" transform="translate(-22319.766 5922.996)" fill="#f04e98"></path>
    <rect id="Rectangle_4253" data-name="Rectangle 4253" width="13.878" height="4.974" transform="matrix(0.8, -0.6, 0.6, 0.8, -19926.445, 15802.027)" fill="#f04e98"></rect>
    <path id="Path_128476" data-name="Path 128476" d="M2742.994,10397.832l-4.875-.984a119.909,119.909,0,0,0-21.913-95.177l3.953-3.018a124.954,124.954,0,0,1,22.835,99.179" transform="translate(-22319.766 5922.996)" fill="#f04e98"></path>
    <path id="Path_128477" data-name="Path 128477" d="M2814.475,10383.9l-4.827-1.2c10.83-43.632,2.223-91.889-23.023-129.087l4.116-2.793c26.026,38.348,34.9,88.1,23.734,133.077" transform="translate(-22319.766 5922.996)" fill="#f04e98"></path>
  </g>
</svg>
