<?xml version="1.0" encoding="UTF-8"?>
<svg xmlns="http://www.w3.org/2000/svg" width="966.029" height="949.551" viewBox="0 0 966.029 949.551">
  <g id="Group_3691" data-name="Group 3691" transform="translate(16541.992 -15419.663)">
    <path id="Path_128277" data-name="Path 128277" d="M6058.12,9721.773a108.815,108.815,0,0,1-53.363-13.874c-11.35-6.4-25.818-17.713-30.286-35.219-2.367-9.27-1.728-19.821,1.954-32.26a124.806,124.806,0,0,1,64.512-75.832c13.244-6.377,33.3-12.775,53.624-7.046,21.911,6.178,37.206,24.551,49.278,41.708l-15.539,10.935c-10.662-15.153-22.753-29.8-38.9-34.354-14.6-4.117-29.935.923-40.223,5.877a105.494,105.494,0,0,0-54.537,64.108c-2.72,9.184-3.28,16.227-1.763,22.165,2.809,11.009,13.087,18.784,21.213,23.37,22.855,12.9,52.217,14.924,76.629,5.3l6.972,17.674a107.954,107.954,0,0,1-39.575,7.452" transform="translate(-22319.766 5922.996)" fill="#f04e98"></path>
    <path id="Path_128278" data-name="Path 128278" d="M6553.528,9785.338c-4.414,0-8.8-.169-13.109-.407a420.286,420.286,0,0,1-61.924-8.072l3.853-18.606a401.076,401.076,0,0,0,59.116,7.708c14.343.789,29.4.777,42.325-4.6,13.316-5.549,24.906-17.4,31.8-32.524,6.138-13.469,8.921-29.663,8.272-48.133-.6-17.206-4.38-29.655-11.544-38.059-10-11.729-28.741-16.747-47.741-12.784-18.808,3.921-35.833,14.978-51.66,25.968l-10.836-15.607c17.432-12.1,36.319-24.312,58.616-28.961,25.708-5.362,51.641,2.121,66.08,19.06,10.056,11.794,15.313,28.057,16.074,49.718.753,21.437-2.6,40.506-9.971,56.678-8.857,19.437-24.084,34.813-41.78,42.184-12.176,5.071-25,6.443-37.567,6.444" transform="translate(-22319.766 5922.996)" fill="#f04e98"></path>
    <path id="Path_128279" data-name="Path 128279" d="M6168.208,9529.318c-56.167,57.027-93.674,130.534-106.065,207.871-5.828,36.371-5.935,74.884,9.923,108.427,12.336,26.093,33.622,47.56,57.38,65.052,13.226,9.738,27.735,18.827,36.276,32.522s8.689,33.86-4.739,43.342c-23.4,16.524-59.426-12.905-84.528,1.171-15.216,8.532-17.445,30.124-8.739,44.766s25.088,23.5,41.388,29.964a258.48,258.48,0,0,0,96.076,18.041c22.59-.106,49.579-6.436,56.695-26.88,4.762-13.682-2.067-29.294-13.588-38.63-7.426-6.016-16.425-9.813-25.907-12.18a17.139,17.139,0,0,1-10.119-26.045c8.11-12.408,23.225-21.809,38.532-25.605,23.909-5.933,49.261-2.934,73.67-6.565,41.651-6.2,78.079-31.6,104.524-62.9s44.144-68.368,60.815-105.29c14.322-31.72,28.234-64.151,32.685-98.426s-1.563-71.108-23.794-98.372c-17.223-21.123-42.568-34.8-68.38-45.292-50.475-20.511-105.37-30.854-160.236-31.04-25.151-.085-90.612,6.4-105.06,26.032" transform="translate(-22319.766 5922.996)" fill="#6ad1e3"></path>
    <rect id="Rectangle_4190" data-name="Rectangle 4190" width="465.32" height="577.23" transform="translate(-16261.226 15426.246)" fill="none"></rect>
    <path id="Path_128280" data-name="Path 128280" d="M5919.741,10388.955c-36.745-13.5-69.454-38.945-94.589-73.57a248.468,248.468,0,0,1-45.007-112.919c-9.812-73.851,11.033-156.042,58.695-231.433,45.352-71.736,108.571-129.689,164.433-176.918,33.278-28.138,62.032-50.514,94.192-68.259,12.651-6.98,26.424-13.33,41.251-12.636,14.043.669,29.556,10,32.607,24.648a22.047,22.047,0,0,1,3.437,1.392c13.711,6.979,18.778,23.572,17.168,37.489a37.941,37.941,0,0,1,10.69,6.073,45.577,45.577,0,0,1,15.471,23.758c11.823,45.865-30.328,102.01-55.513,135.554l-.577.771c-16.2,21.585-35.376,43.789-60.335,69.874-3.508,3.665-7.059,7.3-10.5,10.823-16.769,17.185-32.607,33.415-45.088,53.963-14.489,23.854-21.524,48.249-20.344,70.549,1.656,31.268,21.933,74.6,73.881,102.454a291.772,291.772,0,0,0,145.438,34.452c22.547-.607,43.735-4.665,61.275-11.734,20.65-8.325,36.182-20.622,46.162-36.55,21.444-34.229,13.723-79.652,3.342-119.57-4.284-16.476-9.054-32.154-20.2-42.88-19-18.287-49.524-15.215-66.025-11.756-40.486,8.485-78.045,32.319-105.759,67.115s-42.546,76.731-41.762,118.092l-6,.112c-.812-42.752,14.483-86.06,43.066-121.943s67.372-60.479,109.223-69.249c17.66-3.7,50.425-6.9,71.415,13.3,12.275,11.814,17.339,28.356,21.848,45.7,10.7,41.156,18.589,88.1-4.065,124.265-10.666,17.025-27.153,30.122-49,38.93-18.2,7.334-40.1,11.541-63.356,12.167-2.65.071-5.3.106-7.951.106a297.748,297.748,0,0,1-140.483-35.269,163.083,163.083,0,0,1-52.331-43.95c-15-19.608-23.548-41.558-24.708-63.477-1.244-23.507,6.09-49.088,21.207-73.979,12.837-21.133,28.908-37.6,45.923-55.037,3.425-3.509,6.967-7.14,10.453-10.783,24.79-25.909,43.816-47.937,59.872-69.328l.578-.77c24.537-32.683,65.6-87.382,54.5-130.454-2.788-10.818-11.133-21.209-21.492-25.366a64.182,64.182,0,0,1-9.462,19.859c-4.8,7.021-12.885,7.132-18.384,3.607-5.467-3.5-8.726-10.847-4.377-18.109,4.125-6.892,10.484-11.554,17.448-12.8a29.856,29.856,0,0,1,10.055-.06c1.112-11.59-3.041-25.015-14.027-30.6-.114-.06-.229-.116-.345-.171a24.719,24.719,0,0,1-11.665,17.81c-6.727,4.185-14.218,4.43-20.044.663l-1.214-.787-.141-1.438c-.719-7.323,2.834-14.231,9.747-18.948a28.1,28.1,0,0,1,16.4-4.934c-3.1-8.716-12.817-16.945-26.349-17.589-13.356-.638-26.189,5.341-38.068,11.9-31.727,17.5-60.211,39.679-93.217,67.586-55.512,46.934-118.317,104.493-163.234,175.543-46.913,74.2-67.447,154.975-57.82,227.435a242.466,242.466,0,0,0,43.916,110.187c24.433,33.658,56.179,58.37,91.8,71.463Zm261.5-608.145a23.753,23.753,0,0,0-4.176.369c-5.254.939-10.122,4.571-13.354,9.973-2.511,4.191-.571,8.031,2.465,9.976,3.065,1.964,7.41,2.127,10.2-1.945a58.259,58.259,0,0,0,8.632-18.076,24.253,24.253,0,0,0-3.764-.3m-36.7-22.214c5.107,2.4,10.235-.148,12.316-1.441,5.231-3.256,8.686-8.891,8.936-14.266a22.053,22.053,0,0,0-14.037,3.8c-4.546,3.1-7.114,7.377-7.215,11.9" transform="translate(-22319.766 5922.996)" fill="#360484"></path>
    <path id="Path_128281" data-name="Path 128281" d="M6526.925,10446.218l-2.123-5.611c36.519-13.811,69.908-37.293,96.554-67.909s45.3-66.924,53.94-105c5.6-24.667,7.843-51.645,7.28-87.472a769.486,769.486,0,0,0-37.147-223.375,785.933,785.933,0,0,0-99.557-203.547c-8.531-12.465-17.95-25.25-31-32.592-11.833-6.66-29.434-8.226-40.171,1.67a19.126,19.126,0,0,0-4.372,6.167,27.376,27.376,0,0,1,13.125,7.161c5.189,5.138,7.492,11.748,6.314,18.138-.722,3.917-2.684,6.737-5.524,7.944a10.265,10.265,0,0,1-7.532-.182c-7.116-2.524-12.182-8.781-13.9-17.164a30.33,30.33,0,0,1-.3-10.35c-.237.035-.471.075-.7.12-12.336,2.4-20.247,14.635-22.614,25.688a54.074,54.074,0,0,0-1.087,8.445,23.614,23.614,0,0,1,5.944,2.141c6.538,3.4,10.942,10.837,11.217,18.938.221,6.464-2.236,11.959-6.782,15.293a4.364,4.364,0,0,1-3.856,2.994c-3.81.275-8.611-4.075-9.4-8.463-1.437-7.981-3-16.637-3.2-25.4a27.206,27.206,0,0,0-19.7,9.746c-7.851,9.027-10.72,21.793-12.343,31.908-8.282,51.636,2.492,104.485,15.261,158.6l1.649,6.979c11.827,49.972,24.057,101.645,19.614,153.4-2.432,28.345-10.6,55.564-23.613,78.717-14.291,25.422-34.093,44.925-57.267,56.4l-2.662-5.378c51.118-25.31,73.584-83.879,77.563-130.253,4.361-50.8-7.756-102-19.473-151.508l-1.652-6.983c-12.91-54.723-23.8-108.207-15.344-160.928,1.749-10.9,4.893-24.721,13.739-34.895,5.683-6.536,14.947-11.627,24.324-11.859a59.8,59.8,0,0,1,1.2-9.153c2.779-12.983,12.311-27.394,27.332-30.321a21.731,21.731,0,0,1,3.409-.385,25.715,25.715,0,0,1,6.566-9.974c9.425-8.683,28.212-13.163,47.181-2.486,14.17,7.975,24.075,21.383,33,34.432a791.8,791.8,0,0,1,100.32,205.1,775.477,775.477,0,0,1,37.434,225.115c.57,36.325-1.722,63.741-7.429,88.894-8.858,39.039-27.969,76.251-55.264,107.611s-61.515,55.422-98.958,69.581m-88.862-671.657c.271,8.065,1.729,16.156,3.073,23.629a5.566,5.566,0,0,0,2.02,2.869l1.07-.7c3.371-2.059,5.212-5.97,5.048-10.729-.2-5.882-3.412-11.436-7.991-13.819a16.507,16.507,0,0,0-3.22-1.253m30.516-40.271a24.286,24.286,0,0,0,.118,8.954c1.283,6.274,4.938,10.908,10.024,12.713a4.756,4.756,0,0,0,3.181.312c.886-.375,1.64-1.72,1.971-3.508,1.11-6.033-2.429-10.6-4.637-12.785a21.252,21.252,0,0,0-10.657-5.686" transform="translate(-22319.766 5922.996)" fill="#360484"></path>
    <path id="Path_128282" data-name="Path 128282" d="M6357.775,10098.263a137.59,137.59,0,0,1-43.785-7.164,63.642,63.642,0,0,1-13.516-6.14,11.342,11.342,0,0,1-4.392,3.6c-3.4,1.546-7.108,1.448-10.612,1.113a102.214,102.214,0,0,1-63.13-30.533l4.328-4.153a96.146,96.146,0,0,0,59.372,28.715c3.093.295,5.562.306,7.558-.6a5.253,5.253,0,0,0,2.062-1.707,28.9,28.9,0,0,1-5.261-6.021c-.486-.749-2.021-3.408-1.428-6.149a5.028,5.028,0,0,1,2.231-3.244c2-1.288,4.726-1.015,7.1.713a12.577,12.577,0,0,1,4.729,11.525c-.041.4-.1.788-.168,1.172a55.791,55.791,0,0,0,13.05,6.025,131.436,131.436,0,0,0,49.306,6.631l.351,5.99q-3.88.227-7.794.226m-62.314-26.109c.276.426.568.84.872,1.24a5.426,5.426,0,0,0-.872-1.24" transform="translate(-22319.766 5922.996)" fill="#360484"></path>
    <path id="Path_128283" data-name="Path 128283" d="M6247.99,10148.127c-7.013,0-13.274-4.837-17.1-9.892a39.637,39.637,0,0,1-7.312-16.532c-1.031-5.5-.676-10.387,1.057-14.519,2.224-5.309,6.78-9.062,11.888-9.8,5.156-.734,10.511,1.423,16.383,6.615l-3.975,4.494c-4.472-3.954-8.255-5.641-11.553-5.17-2.987.43-5.818,2.854-7.21,6.177-1.271,3.033-1.5,6.766-.693,11.1a33.585,33.585,0,0,0,6.2,14.018c3.151,4.164,8.8,8.57,14.389,7.271,5.726-1.333,8.826-8.4,8.414-14.191-.483-6.819-4.388-13.306-7.833-19.028l5.142-3.094c3.793,6.3,8.091,13.442,8.676,21.7.6,8.425-4.114,18.382-13.038,20.459a15.17,15.17,0,0,1-3.438.4" transform="translate(-22319.766 5922.996)" fill="#360484"></path>
    <path id="Path_128284" data-name="Path 128284" d="M6243.814,10102.663a11.1,11.1,0,0,0-4.88,21.654,11.1,11.1,0,0,0,12.57-6.619,10.43,10.43,0,0,0-5.6-12.861" transform="translate(-22319.766 5922.996)" fill="#360484"></path>
    <path id="Path_128285" data-name="Path 128285" d="M6241.228,10127.581a13.005,13.005,0,0,1-2.979-.342,14.1,14.1,0,0,1,6.2-27.508l-1.266,5.865a8.1,8.1,0,0,0-3.56,15.8,8.157,8.157,0,0,0,9.069-4.739,7.465,7.465,0,0,0-3.9-9.033l2.217-5.576c6.257,2.488,9.672,10.285,7.309,16.688a14.113,14.113,0,0,1-13.091,8.844" transform="translate(-22319.766 5922.996)" fill="#360484"></path>
    <path id="Path_128286" data-name="Path 128286" d="M6306.326,10183.086c-7.012,0-13.273-4.837-17.1-9.892a39.637,39.637,0,0,1-7.312-16.533c-1.03-5.5-.673-10.387,1.058-14.518,2.224-5.309,6.78-9.062,11.889-9.8,5.151-.736,10.511,1.423,16.382,6.614l-3.975,4.494c-4.471-3.951-8.24-5.639-11.553-5.169-2.988.429-5.818,2.854-7.21,6.176-1.271,3.032-1.5,6.766-.693,11.1a33.6,33.6,0,0,0,6.2,14.017c3.152,4.167,8.815,8.57,14.388,7.272,5.727-1.333,8.826-8.4,8.415-14.191-.484-6.817-4.389-13.3-7.833-19.028l5.141-3.094c3.793,6.3,8.092,13.444,8.677,21.7.6,8.425-4.115,18.382-13.039,20.459a15.108,15.108,0,0,1-3.438.4" transform="translate(-22319.766 5922.996)" fill="#360484"></path>
    <path id="Path_128287" data-name="Path 128287" d="M6302.151,10137.623a11.1,11.1,0,0,0-4.88,21.654,11.1,11.1,0,0,0,12.57-6.619,10.429,10.429,0,0,0-5.6-12.861" transform="translate(-22319.766 5922.996)" fill="#360484"></path>
    <path id="Path_128288" data-name="Path 128288" d="M6299.566,10162.54a12.984,12.984,0,0,1-2.982-.343,14.1,14.1,0,0,1,6.2-27.507l-1.266,5.865a8.1,8.1,0,0,0-3.56,15.8,8.153,8.153,0,0,0,9.069-4.738,7.465,7.465,0,0,0-3.9-9.034l2.217-5.576c6.257,2.488,9.672,10.286,7.309,16.688a14.109,14.109,0,0,1-13.09,8.844" transform="translate(-22319.766 5922.996)" fill="#360484"></path>
    <path id="Path_128289" data-name="Path 128289" d="M6269.261,10183.088a194.273,194.273,0,0,1-31.454-3.158c-3.8-.7-4.423-3.118-4.514-4.126a4.953,4.953,0,0,1,1.379-3.672l6.248-7.428c-4.542-1.89-9.965-5.007-12.03-10.657l-1-2.724,35.15-14.217,2.25,5.562-29.271,11.839c2.457,2.881,6.839,4.618,10.918,6.046l4.1,1.437-10.391,12.354a188.523,188.523,0,0,0,28.72,2.746Z" transform="translate(-22319.766 5922.996)" fill="#360484"></path>
    <path id="Path_128290" data-name="Path 128290" d="M6265.843,9633.848l30.787-30.8a11.016,11.016,0,0,1,5.707-3.133c7.612-1.415,10.706,6.6,10.615,13.04-.078,5.518-1.284,11.467,1.472,16.249,3.653,6.341,12.131,7.353,19.268,8.971s15.35,6.849,13.925,14.026c-.99,4.991-6.3,7.839-11.234,9.076s-10.32,1.682-14.364,4.771c-7.324,5.595-6.706,16.629-5.207,25.723s2.589,19.95-4.312,26.061c-6.972,6.175-18.568,3.325-25.085-3.328s-9.412-15.922-12.751-24.617c-1.1-2.854-2.526-5.959-5.356-7.117-2.171-.889-4.636-.391-6.914.171a154.345,154.345,0,0,0-23.468,7.827c-5.769,2.455-11.795,5.338-18.171,3.074a8.755,8.755,0,0,1-5.654-5.977c-1.157-4.585,2.01-7.678,4.984-10.325q10.67-9.5,21.953-18.281a52.144,52.144,0,0,1-13.93-21.481,10.339,10.339,0,0,1,11.264-13.573,63.487,63.487,0,0,1,31.527,14.337" transform="translate(-22319.766 5922.996)" fill="#6ad1e3"></path>
    <rect id="Rectangle_4191" data-name="Rectangle 4191" width="132.92" height="121.5" transform="translate(-16104.906 15522.746)" fill="none"></rect>
    <path id="Path_128291" data-name="Path 128291" d="M6188.835,9585.561c-1.5-.059-5.089-.877-6.045-7.189l-5.41-35.687,5.932-.9,5.41,35.688a4.794,4.794,0,0,0,.739,2.239.7.7,0,0,0-.392-.146Z" transform="translate(-22319.766 5922.996)" fill="#f04e98"></path>
    <path id="Path_128292" data-name="Path 128292" d="M6208.832,9589.564c-2.076-18.565-3.909-37.414-5.449-56.022l5.98-.5c1.534,18.551,3.363,37.342,5.431,55.852Z" transform="translate(-22319.766 5922.996)" fill="#f04e98"></path>
    <path id="Path_128293" data-name="Path 128293" d="M6236.251,9578a169.733,169.733,0,0,0-6.451-46.111l5.771-1.64a175.735,175.735,0,0,1,6.68,47.744Z" transform="translate(-22319.766 5922.996)" fill="#f04e98"></path>
    <path id="Path_128294" data-name="Path 128294" d="M6160.715,9570.113l-1.459-5.82c10.7-2.683,21.229-7.2,31.413-11.568,15.386-6.6,31.295-13.422,48.452-14.3l.309,5.992c-16.087.827-30.81,7.14-46.4,13.826-10.4,4.461-21.156,9.073-32.319,11.873" transform="translate(-22319.766 5922.996)" fill="#f04e98"></path>
    <path id="Path_128295" data-name="Path 128295" d="M6175.87,9596.661l-2.493-5.457c27.839-12.713,56.351-24.923,84.746-36.29l2.23,5.57c-28.307,11.332-56.731,23.5-84.483,36.177" transform="translate(-22319.766 5922.996)" fill="#f04e98"></path>
    <rect id="Rectangle_4192" data-name="Rectangle 4192" width="12.022" height="6" transform="translate(-16095.043 15517.141) rotate(-21.42)" fill="#f04e98"></rect>
    <path id="Path_128296" data-name="Path 128296" d="M6310.159,9787.388l-3.08-5.147c24.681-14.764,50.172-28.881,75.768-41.961l2.73,5.341c-25.477,13.021-50.851,27.074-75.418,41.768" transform="translate(-22319.766 5922.996)" fill="#f04e98"></path>
    <rect id="Rectangle_4193" data-name="Rectangle 4193" width="56.679" height="6.001" transform="translate(-15995.068 15749.611) rotate(-32.129)" fill="#f04e98"></rect>
    <path id="Path_128297" data-name="Path 128297" d="M6343.206,9857.413l-2.671-5.373a83.659,83.659,0,0,0,18.581-12.595l4,4.471a89.68,89.68,0,0,1-19.912,13.5" transform="translate(-22319.766 5922.996)" fill="#f04e98"></path>
    <path id="Path_128298" data-name="Path 128298" d="M6351.406,9880.147c-8.927-33.121-18.625-66.528-28.829-99.291l5.728-1.785c10.228,32.838,19.948,66.318,28.894,99.515Z" transform="translate(-22319.766 5922.996)" fill="#f04e98"></path>
    <path id="Path_128299" data-name="Path 128299" d="M6368.433,9847.656a328.092,328.092,0,0,0-16.518-60.042l5.608-2.136a334.113,334.113,0,0,1,16.82,61.145Z" transform="translate(-22319.766 5922.996)" fill="#f04e98"></path>
    <path id="Path_128300" data-name="Path 128300" d="M6392.313,9790.109a9.506,9.506,0,0,1-2.146-.244,11.164,11.164,0,0,1-5.917-17.3l4.652,3.789a4.244,4.244,0,1,0,.686-.687l-3.791-4.649a10.6,10.6,0,0,1,14.2,15.739,10.936,10.936,0,0,1-7.679,3.348" transform="translate(-22319.766 5922.996)" fill="#f04e98"></path>
    <rect id="Rectangle_4194" data-name="Rectangle 4194" width="8.125" height="6.001" transform="translate(-16038.863 15768.37) rotate(-15.04)" fill="#f04e98"></rect>
    <path id="Path_128301" data-name="Path 128301" d="M6308.547,9873.578l-4.564-3.894a16.793,16.793,0,0,1,12.189-5.8l.145,6a10.708,10.708,0,0,0-7.77,3.7" transform="translate(-22319.766 5922.996)" fill="#f04e98"></path>
    <rect id="Rectangle_4195" data-name="Rectangle 4195" width="7.147" height="6" transform="matrix(0.629, -0.778, 0.778, 0.629, -16005.779, 15817.303)" fill="#f04e98"></rect>
    <path id="Path_128302" data-name="Path 128302" d="M6436.2,9659.444l-5.589-2.188a20.836,20.836,0,0,1,11.844-11.706l2.123,5.612a14.726,14.726,0,0,0-8.378,8.282" transform="translate(-22319.766 5922.996)" fill="#f04e98"></path>
    <path id="Path_128303" data-name="Path 128303" d="M5922.357,9936.968c-5.657-28.317-11.507-57.6-24.176-83.976-6.812-14.184-14.055-23.707-22.789-29.969a39.737,39.737,0,0,0-19.8-7.44c.983,7.33.973,14.688-1.706,21.563a25.424,25.424,0,0,1-14.309,14.16,17.552,17.552,0,0,1-14.438-.548l-.857-.445-.436-.862a24.758,24.758,0,0,1-.884-19.474,30.485,30.485,0,0,1,15.556-17.461,33.088,33.088,0,0,1,10-2.766c-.23-1.156-.474-2.316-.725-3.482-3.331-15.471-7.435-31.559-17.606-43.3-9.443-10.9-26.926-17.6-39.839-9.948l-3.059-5.163c15.61-9.246,36.376-1.579,47.434,11.182,11.1,12.811,15.441,29.731,18.936,45.963.321,1.5.638,3.009.928,4.527a45.447,45.447,0,0,1,24.3,8.614c9.586,6.872,17.436,17.119,24.7,32.247,13,27.057,18.922,56.716,24.652,85.4Zm-93.577-91.13a11.9,11.9,0,0,0,8.686-.146,19.525,19.525,0,0,0,10.833-10.727c2.325-5.965,2.248-12.5,1.261-19.309a27.341,27.341,0,0,0-8.526,2.309,24.367,24.367,0,0,0-12.4,13.985,19.1,19.1,0,0,0,.149,13.887" transform="translate(-22319.766 5922.996)" fill="#f04e98"></path>
    <path id="Path_128304" data-name="Path 128304" d="M5918.206,9736.78c-24.822-51.632-50.724-103.627-76.984-154.542l5.332-2.75c26.287,50.965,52.213,103.011,77.059,154.691Z" transform="translate(-22319.766 5922.996)" fill="#f04e98"></path>
    <rect id="Rectangle_4196" data-name="Rectangle 4196" width="6" height="76.983" transform="translate(-16394.85 15427.074) rotate(-16.858)" fill="#f04e98"></rect>
    <path id="Path_128305" data-name="Path 128305" d="M6546.183,9931.254q-.792,0-1.592-.077c-6.7-.654-13.255-5.131-17.527-11.976-7.52-12.045-7.116-29.059,1.028-43.344,5.827-10.223,15.325-19.318,28.984-27.741a66.867,66.867,0,0,1-2.785-33c4.226-24.667,21.846-47.718,47.133-61.658,20.336-11.213,45.257-17.078,76.186-17.933,7.543-.209,15.185-.126,22.575-.047l-.064,6c-7.333-.077-14.918-.161-22.345.045-29.949.827-53.977,6.449-73.455,17.188-23.7,13.068-40.2,34.532-44.115,57.418a60.925,60.925,0,0,0,2.125,28.9c17.2-9.554,32.327-12.29,45-8.138,9.186,3.013,17.114,11.653,19.727,21.5,2.1,7.916.562,15.254-4.332,20.665-8.834,9.769-24.01,9.1-35.13,4.105-12.509-5.618-22.4-16.367-28.267-29.382-12.3,7.718-20.828,15.938-26.021,25.046-7.067,12.4-7.518,27-1.151,37.2,3.292,5.274,8.159,8.707,13.019,9.182,4.617.442,10.326-2.641,11.067-7.448l5.929.912c-1.093,7.11-8.22,12.584-15.986,12.585m18.295-80.548c5.231,11.979,14.191,21.872,25.574,26.985,8.843,3.972,21.447,4.834,28.222-2.658,4.7-5.2,3.887-11.691,2.982-15.1-2.114-7.965-8.462-14.933-15.8-17.338-11.2-3.671-24.982-.942-40.98,8.11" transform="translate(-22319.766 5922.996)" fill="#f04e98"></path>
    <path id="Path_128306" data-name="Path 128306" d="M6619.695,9979.894l-3.108-5.133c38.692-23.418,77.523-47.764,115.419-72.36l3.267,5.032c-37.947,24.631-76.835,49.011-115.578,72.461" transform="translate(-22319.766 5922.996)" fill="#f04e98"></path>
    <path id="Path_128307" data-name="Path 128307" d="M6645.35,10057.507l-1.828-5.715c32.981-10.552,65.957-22.543,98.012-35.64l2.269,5.554c-32.2,13.156-65.323,25.2-98.453,35.8" transform="translate(-22319.766 5922.996)" fill="#f04e98"></path>
    <rect id="Rectangle_4197" data-name="Rectangle 4197" width="4.99" height="6" transform="matrix(0.883, -0.469, 0.469, 0.883, -15732.623, 16030.671)" fill="#f04e98"></rect>
    <rect id="Rectangle_4198" data-name="Rectangle 4198" width="9.472" height="6" transform="matrix(0.707, -0.707, 0.707, 0.707, -15719.869, 16064.825)" fill="#f04e98"></rect>
    <path id="Path_128308" data-name="Path 128308" d="M6626.4,10117.135l-4.086-4.393a11.185,11.185,0,0,0,3.461-8.766l5.986-.416a17.085,17.085,0,0,1-5.361,13.574" transform="translate(-22319.766 5922.996)" fill="#f04e98"></path>
    <path id="Path_128309" data-name="Path 128309" d="M6023.56,9894.825c-3.123,0-5.266-2.633-6.112-3.674l4.654-3.787c1.009,1.238,1.436,1.437,1.542,1.467a.385.385,0,0,0-.128,0c-.516.073-1.2.479-1.135,1.057a2.024,2.024,0,0,0,2.114,1.609l-.483-5.981a3.978,3.978,0,0,1,4.333,3.712,4.961,4.961,0,0,1-3.991,5.544,5.709,5.709,0,0,1-.794.058" transform="translate(-22319.766 5922.996)" fill="#f04e98"></path>
    <rect id="Rectangle_4199" data-name="Rectangle 4199" width="5.999" height="11.384" transform="translate(-16287.637 15793.052) rotate(-78.688)" fill="#f04e98"></rect>
    <rect id="Rectangle_4200" data-name="Rectangle 4200" width="4.465" height="6" transform="translate(-16271.422 15820.598)" fill="#f04e98"></rect>
    <rect id="Rectangle_4201" data-name="Rectangle 4201" width="60.071" height="6" transform="translate(-15771.641 15464.073) rotate(-47.671)" fill="#f04e98"></rect>
  </g>
</svg>
