<?xml version="1.0" encoding="UTF-8"?>
<svg xmlns="http://www.w3.org/2000/svg" width="964.715" height="703.684" viewBox="0 0 964.715 703.684">
  <g id="Group_3685" data-name="Group 3685" transform="translate(18279.512 -12455.697)">
    <path id="Path_127766" data-name="Path 127766" d="M4790.186,7079.872h-69.3l-30.237-90.159h69.3Z" transform="translate(-22319.766 5922.996)" fill="#360484"></path>
    <path id="Path_127767" data-name="Path 127767" d="M4794.091,7082.682h-75.23L4686.74,6986.9h75.23Zm-71.188-5.619h63.377l-28.352-84.54h-63.377Z" transform="translate(-22319.766 5922.996)" fill="#360484"></path>
    <path id="Path_127768" data-name="Path 127768" d="M4925.984,6997.457H4556.051l75.2-249.119h369.932Z" transform="translate(-22319.766 5922.996)" fill="#360484"></path>
    <path id="Path_127769" data-name="Path 127769" d="M4928.071,7000.267h-375.8l76.9-254.738h375.8Zm-368.237-5.62H4923.9l73.5-243.5H4633.339Z" transform="translate(-22319.766 5922.996)" fill="#360484"></path>
    <path id="Path_127770" data-name="Path 127770" d="M4901.634,6997.457H4531.7l75.2-249.119h369.932Z" transform="translate(-22319.766 5922.996)" fill="#6ad1e3"></path>
    <rect id="Rectangle_3973" data-name="Rectangle 3973" width="445.13" height="249.12" transform="translate(-17788.066 12671.336)" fill="none"></rect>
    <rect id="Rectangle_3974" data-name="Rectangle 3974" width="521.242" height="129.242" transform="translate(-17889.736 13027.328)" fill="#f04e98"></rect>
    <rect id="Rectangle_3975" data-name="Rectangle 3975" width="521.24" height="129.25" transform="translate(-17889.736 13027.326)" fill="none"></rect>
    <rect id="Rectangle_3976" data-name="Rectangle 3976" width="560.762" height="41.657" transform="translate(-17929.258 12981.4)" fill="#6ad1e3"></rect>
    <rect id="Rectangle_3977" data-name="Rectangle 3977" width="560.76" height="41.66" transform="translate(-17929.256 12981.396)" fill="none"></rect>
    <rect id="Rectangle_3978" data-name="Rectangle 3978" width="221.404" height="129.242" transform="translate(-17589.898 13027.328)" fill="#360484"></rect>
    <path id="Path_127771" data-name="Path 127771" d="M4954.08,7236.385H4727.058V7101.524H4954.08Zm-221.4-5.619h215.784V7107.143H4732.677Z" transform="translate(-22319.766 5922.996)" fill="#360484"></path>
    <rect id="Rectangle_3979" data-name="Rectangle 3979" width="238.19" height="41.657" transform="translate(-17606.684 12981.4)" fill="#360484"></rect>
    <path id="Path_127772" data-name="Path 127772" d="M4954.08,7102.87H4710.27V7055.6h243.81Zm-238.19-5.619h232.571v-36.037H4715.89Z" transform="translate(-22319.766 5922.996)" fill="#360484"></path>
    <path id="Path_127773" data-name="Path 127773" d="M4084.7,7233.423c-10.681-32.043-18.617-92.724-26.6-128.75-5.115-23.073-11.951-46.136-11.5-69.766s9.745-48.679,29.911-61.005c17.383-10.623,39.131-9.969,59.478-8.98l112.929,5.5c14.537.707,29.669,1.579,42.363,8.7,15.479,8.681,24.714,25.131,32.666,41a857.54,857.54,0,0,1,73.888,214.5" transform="translate(-22319.766 5922.996)" fill="#6ad1e3"></path>
    <rect id="Rectangle_3980" data-name="Rectangle 3980" width="351.26" height="270.2" transform="translate(-18273.195 12887.406)" fill="none"></rect>
    <path id="Path_127774" data-name="Path 127774" d="M4511.326,7026.208l-69.755-81.545c-18.58-21.722-41.7-48.754-72.476-58-18.5-5.559-38.545-4.33-57.928-3.142-7.5.461-15.265.936-22.878,1.021a224.348,224.348,0,0,1-91.49-18.557c-12.34-5.383-29.55-14.453-36.517-30.988-6.779-16.1-1.947-34.183,3.584-51.33,11.281-34.976,22.281-66.038,42.713-91.96,23.824-30.23,58.137-46.732,89.537-43.063,44.827,5.237,74.14,47.983,82.4,85.483,9.25,41.971-1.537,109.875-8.847,146.85.347.1.691.2,1.037.305,32.352,9.717,56.072,37.445,75.131,59.726l69.754,81.545Zm-175.31-149.321a130.025,130.025,0,0,1,28.2,2.708c7.224-36.608,17.821-103.392,8.814-144.257-11.2-50.811-48.06-77.663-77.57-81.11-23.1-2.7-57.425,6.644-84.472,40.96-19.852,25.188-30.665,55.755-41.777,90.207-5.422,16.813-9.79,33.09-3.753,47.421,6.184,14.681,22.129,23.022,33.585,28.02a218.489,218.489,0,0,0,89.18,18.089c7.472-.083,15.161-.554,22.6-1.009,8.322-.511,16.763-1.029,25.193-1.029" transform="translate(-22319.766 5922.996)" fill="#360484"></path>
    <path id="Path_127775" data-name="Path 127775" d="M4503.43,7156.79a191.546,191.546,0,0,1-31.514-2.406c-54.745-9.149-101.187-47.77-138.5-78.8l3.592-4.32c36.8,30.6,82.591,68.682,135.835,77.58,20.805,3.477,41.867,2.423,59.725.931,7.913-.661,15.583-1.5,22.442-4.4,10.119-4.279,18.1-13.033,24.565-21.032a257.047,257.047,0,0,0,52.4-112.829l.465-2.419,2.458.143a5.143,5.143,0,0,0,4.135-1.954,9.705,9.705,0,0,0,2.181-7.805c-.634-3.381-2.593-6.365-5.2-9.334a16.977,16.977,0,0,1-3.513,3.185l-1.819,1.23-1.634-1.467a7.115,7.115,0,0,1,4.986-12.037l.367.019a12.415,12.415,0,0,0-.574-7.725,13.058,13.058,0,0,0-13.653-7.357c-.246.058-.5.108-.752.148l-1.055-5.517c.216-.048.43-.092.646-.132,2.438-.638,3.287-2.989,3.578-4.389.727-3.488-.5-8.362-3.822-10.478-6.556-4.184-15.607-1.929-22.759.5a192.7,192.7,0,0,0-93.187,68.711l-4.548-3.3a198.345,198.345,0,0,1,95.927-70.733c8.343-2.836,19.016-5.389,27.589.079,5.628,3.591,7.43,10.949,6.3,16.363a13.152,13.152,0,0,1-1.3,3.6,17.779,17.779,0,0,1,12.224,24.227c3.327,3.563,6.709,7.99,7.716,13.364a15.391,15.391,0,0,1-3.485,12.553,11.078,11.078,0,0,1-6.17,3.683,262.744,262.744,0,0,1-53.134,113.2c-6.9,8.54-15.484,17.912-26.745,22.675-7.621,3.224-15.779,4.12-24.164,4.82-9.175.766-19.188,1.418-29.6,1.418" transform="translate(-22319.766 5922.996)" fill="#360484"></path>
    <path id="Path_127776" data-name="Path 127776" d="M4196.8,6870.461l-1.386-5.444c53.886-13.711,100.925-54,122.759-105.133a36.133,36.133,0,0,0,2.315-6.782q-.747.4-1.5.777a8.852,8.852,0,0,1-11.385-2.9,8.55,8.55,0,0,1,.97-11.308,9.444,9.444,0,0,1,4.876-2.517,10.637,10.637,0,0,1,11.367,5.923q.173.349.324.694c20.856-14.074,34.791-37.6,36.312-62.349l5.609.345c-1.672,27.19-17.332,52.992-40.621,67.868.122,4.386-1.461,8.634-3.1,12.461-22.508,52.711-70.995,94.238-126.541,108.37M4315.3,6742.594a4.3,4.3,0,0,0-.8.075,3.864,3.864,0,0,0-2.023,1.038,2.942,2.942,0,0,0-.295,4.011,3.275,3.275,0,0,0,4.273,1.145q1.947-.982,3.833-2.069a9.893,9.893,0,0,0-.507-1.226,5.14,5.14,0,0,0-4.485-2.974" transform="translate(-22319.766 5922.996)" fill="#360484"></path>
    <path id="Path_127777" data-name="Path 127777" d="M4353.742,6784.59a20.562,20.562,0,0,1-8.036-1.742c-4.5-1.919-7.7-4.993-9.015-8.654-1.6-4.445.03-10.521,5-12.48,3.207-1.265,6.6-.313,8.85.317l10.652,2.983-.186.665a6.4,6.4,0,0,1,5.1,1.817,8,8,0,0,1,2.413,6.925c-.557,3.34-3.027,6.261-6.954,8.225a18.44,18.44,0,0,1-5.014,1.7,16.2,16.2,0,0,1-2.813.24m-8.587-17.884a3.813,3.813,0,0,0-1.4.236c-1.663.656-2.524,3.256-1.771,5.351,1.054,2.935,4.169,4.634,5.932,5.386a13.928,13.928,0,0,0,7.67,1.136,12.8,12.8,0,0,0,3.475-1.195c1.061-.531,3.569-2,3.924-4.124a2.376,2.376,0,0,0-.728-1.915c-.119-.112-.424-.361-.673-.309l-.956-4.227-.947,3.38-10.652-2.983a15.424,15.424,0,0,0-3.869-.736" transform="translate(-22319.766 5922.996)" fill="#360484"></path>
    <path id="Path_127778" data-name="Path 127778" d="M4358.972,6779.294a5.376,5.376,0,0,1-4.3-2.023c-1.759-2.256-1.218-5.14-1.013-6.226a6.3,6.3,0,0,1,2.867-4.359,3.941,3.941,0,0,1,2.209-.469,4.861,4.861,0,0,1,2.781.756,7.135,7.135,0,0,1,3.011,8.9,6.09,6.09,0,0,1-4.856,3.384,6.257,6.257,0,0,1-.7.04m.079-6.19.182.518a.476.476,0,0,0,.209-.132,1.379,1.379,0,0,0-.294-1.2,7.489,7.489,0,0,0-.1.813" transform="translate(-22319.766 5922.996)" fill="#360484"></path>
    <path id="Path_127779" data-name="Path 127779" d="M4336.933,6816.317a36.2,36.2,0,0,1-11.237-22.023l5.58-.661a30.507,30.507,0,0,0,9.468,18.555Z" transform="translate(-22319.766 5922.996)" fill="#360484"></path>
    <path id="Path_127780" data-name="Path 127780" d="M4385.1,7229.833l-5.46-1.332a24.065,24.065,0,0,1,14.154-16.352l2.1,5.211a18.354,18.354,0,0,0-10.795,12.473" transform="translate(-22319.766 5922.996)" fill="#360484"></path>
    <path id="Path_127781" data-name="Path 127781" d="M4363.418,7224.007l-5.147-2.254a87.962,87.962,0,0,1,21.26-29.6l3.78,4.159a82.3,82.3,0,0,0-19.893,27.695" transform="translate(-22319.766 5922.996)" fill="#360484"></path>
    <path id="Path_127782" data-name="Path 127782" d="M4329.787,7223.146l-5.225-2.068a157.992,157.992,0,0,1,48.862-65.715l3.485,4.408a152.354,152.354,0,0,0-47.122,63.375" transform="translate(-22319.766 5922.996)" fill="#360484"></path>
    <path id="Path_127783" data-name="Path 127783" d="M4297.694,7226.742l-5.236-2.038a276.318,276.318,0,0,1,30.341-57.072l4.618,3.2a270.737,270.737,0,0,0-29.723,55.909" transform="translate(-22319.766 5922.996)" fill="#360484"></path>
    <rect id="Rectangle_3981" data-name="Rectangle 3981" width="5.619" height="4.56" transform="matrix(0.196, -0.981, 0.981, 0.196, -17989.775, 13076.035)" fill="#360484"></rect>
    <path id="Path_127784" data-name="Path 127784" d="M4373.179,7223.021c-10.49-11.214-21.616-22.091-33.07-32.328-3.424-3.061-6.558-5.671-10.221-6.609l1.392-5.443c4.887,1.25,8.736,4.433,12.574,7.862,11.579,10.349,22.826,21.344,33.428,32.68Z" transform="translate(-22319.766 5922.996)" fill="#360484"></path>
    <path id="Path_127785" data-name="Path 127785" d="M4379.193,7199.925c-10.045-11.142-19.808-22.8-29.018-34.646l4.437-3.45c9.126,11.742,18.8,23.292,28.755,34.332Z" transform="translate(-22319.766 5922.996)" fill="#360484"></path>
    <path id="Path_127786" data-name="Path 127786" d="M4331.076,7215.144a47.063,47.063,0,0,0-15.791-10.553l2.1-5.209a52.7,52.7,0,0,1,17.694,11.823Z" transform="translate(-22319.766 5922.996)" fill="#360484"></path>
    <rect id="Rectangle_3982" data-name="Rectangle 3982" width="5.726" height="5.619" transform="translate(-18038.891 13115.517) rotate(-51.574)" fill="#360484"></rect>
    <path id="Path_127787" data-name="Path 127787" d="M4346.8,7224l-3.97-3.977.891-.891,3.977,3.971Z" transform="translate(-22319.766 5922.996)" fill="#360484"></path>
    <rect id="Rectangle_3983" data-name="Rectangle 3983" width="5.059" height="5.619" transform="translate(-17970.777 13065.151) rotate(-45.299)" fill="#360484"></rect>
    <rect id="Rectangle_3984" data-name="Rectangle 3984" width="6.448" height="5.619" transform="translate(-18050.439 13147.156) rotate(-56.46)" fill="#360484"></rect>
    <path id="Path_127788" data-name="Path 127788" d="M4067.017,7022.978l-5.574-.707a43.806,43.806,0,0,1,23.87-33.44l2.48,5.043a38.648,38.648,0,0,0-20.776,29.1" transform="translate(-22319.766 5922.996)" fill="#f04e98"></path>
    <rect id="Rectangle_3985" data-name="Rectangle 3985" width="18.852" height="5.619" transform="matrix(0.571, -0.821, 0.821, 0.571, -18237.883, 12953.46)" fill="#f04e98"></rect>
    <path id="Path_127789" data-name="Path 127789" d="M4090.131,7068.961l-5.1-2.373a203.711,203.711,0,0,1,39.107-56.558l4.017,3.928a198.087,198.087,0,0,0-38.029,55" transform="translate(-22319.766 5922.996)" fill="#f04e98"></path>
    <path id="Path_127790" data-name="Path 127790" d="M4094.335,7078.363a143.18,143.18,0,0,1-31.022-39.241l4.947-2.664a137.652,137.652,0,0,0,29.809,37.707Z" transform="translate(-22319.766 5922.996)" fill="#f04e98"></path>
    <path id="Path_127791" data-name="Path 127791" d="M4118.983,7071.718a152.407,152.407,0,0,1-34.568-43.135l4.948-2.664a146.812,146.812,0,0,0,33.3,41.551Z" transform="translate(-22319.766 5922.996)" fill="#f04e98"></path>
    <path id="Path_127792" data-name="Path 127792" d="M4100.156,6991.5l-3.16-4.646a6.716,6.716,0,0,0,2.549-3.328l5.308,1.844a12.368,12.368,0,0,1-4.7,6.13" transform="translate(-22319.766 5922.996)" fill="#f04e98"></path>
    <rect id="Rectangle_3986" data-name="Rectangle 3986" width="5.961" height="5.619" transform="matrix(0.8, -0.6, 0.6, 0.8, -18215.645, 12923.152)" fill="#f04e98"></rect>
    <rect id="Rectangle_3987" data-name="Rectangle 3987" width="4.299" height="5.62" transform="translate(-18188.15 12913.447) rotate(-33.69)" fill="#f04e98"></rect>
    <rect id="Rectangle_3988" data-name="Rectangle 3988" width="5.619" height="30.538" transform="translate(-18213.672 12940.065) rotate(-38.521)" fill="#f04e98"></rect>
    <rect id="Rectangle_3989" data-name="Rectangle 3989" width="37.708" height="5.62" transform="translate(-17719.809 12707.938) rotate(-43.877)" fill="#f04e98"></rect>
    <path id="Path_127793" data-name="Path 127793" d="M4612.1,6813.148l-3.651-4.271c15.067-12.877,29.781-26.544,43.734-40.619l3.99,3.956c-14.061,14.184-28.889,27.957-44.073,40.934" transform="translate(-22319.766 5922.996)" fill="#f04e98"></path>
    <rect id="Rectangle_3990" data-name="Rectangle 3990" width="5.619" height="53.111" transform="matrix(0.809, -0.588, 0.588, 0.809, -17714.789, 12698.983)" fill="#f04e98"></rect>
    <path id="Path_127794" data-name="Path 127794" d="M4655.145,6802.481a307.12,307.12,0,0,1-31.5-42.314l4.779-2.957a301.6,301.6,0,0,0,30.926,41.54Z" transform="translate(-22319.766 5922.996)" fill="#f04e98"></path>
    <path id="Path_127795" data-name="Path 127795" d="M4655.964,6762.417a9.455,9.455,0,0,0-6.382-4.061l.833-5.558a15.168,15.168,0,0,1,10.232,6.514Z" transform="translate(-22319.766 5922.996)" fill="#f04e98"></path>
    <rect id="Rectangle_3991" data-name="Rectangle 3991" width="3.305" height="5.619" transform="translate(-17646.652 12686.334) rotate(-18.816)" fill="#f04e98"></rect>
    <rect id="Rectangle_3992" data-name="Rectangle 3992" width="6.611" height="5.619" transform="matrix(0.948, -0.319, 0.319, 0.948, -17712.514, 12758.441)" fill="#f04e98"></rect>
    <path id="Path_127796" data-name="Path 127796" d="M4711.446,7001.066l-1.732-5.345c48.421-15.683,106.28-26.589,161.591-36.036,1.517-.259,3.4-.581,4.34-1.5a8.651,8.651,0,0,0,1.586-3.38c31.165-98.642,64.31-188.089,95.977-259.035-46.9-.482-126.43,24.762-176.826,56.482-7.313,7.868-10.879,18.706-14.028,28.282-23,69.917-43.711,141.845-63.737,211.4l-5.4-1.555c20.04-69.61,40.763-141.59,63.8-211.606,2.653-8.07,5.847-17.774,11.613-25.871-1.078-2.252,1.392-4.283,3.407-5.937,1.9-1.561,4.208-3.457,6.141-2.41,47.825-28.6,129.065-56.57,179.444-54.288l4.131.188-1.7,3.771c-32.1,71.349-65.8,162.039-97.466,262.267a12.941,12.941,0,0,1-3.019,5.707c-2.189,2.139-5.154,2.645-7.321,3.015-55.1,9.412-112.723,20.269-160.8,35.842" transform="translate(-22319.766 5922.996)" fill="#f04e98"></path>
    <path id="Path_127797" data-name="Path 127797" d="M4714.535,6998.746l-4.892-2.766q.714-1.261,1.4-2.537l-2.113-1.593q3.491-4.633,7.324-8.96c8.723-19.323,14.135-40.327,19.4-60.766l.572-2.219c11.444-44.369,23.769-89.166,36.628-133.146,4.724-16.152,8.824-29.56,14.956-42.806,24.809-53.579,76.336-88.223,122.686-116.489l5.777-3.524-1.583,6.58c-21.657,89.99-47.068,180.276-75.526,268.351-.906,2.807-1.935,5.988-4.153,8.633-2.708,3.228-6.572,4.88-9.98,6.338l-.587.252c-12.415,5.333-23.989,12.379-36.749,20.367-25.7,16.087-48.7,31.3-66.653,51.474-1.988,4.353-4.147,8.631-6.51,12.811m193.1-362.934c-44.079,27.187-91.592,60.547-114.72,110.5-5.971,12.893-10.006,26.1-14.663,42.022-12.843,43.923-25.151,88.662-36.581,132.973l-.571,2.218c-4.161,16.143-8.41,32.631-14.311,48.476,16.894-16.029,37.058-29.239,57.928-42.3,12.962-8.114,24.731-15.276,37.513-20.767l.6-.255c3.106-1.329,6.038-2.583,7.884-4.783,1.515-1.805,2.327-4.319,3.112-6.75,27.717-85.781,52.54-173.671,73.814-261.331" transform="translate(-22319.766 5922.996)" fill="#f04e98"></path>
    <path id="Path_127798" data-name="Path 127798" d="M4445.237,6938.594l-5.619-.078a29.829,29.829,0,0,1,9.755-21.444,55.6,55.6,0,0,1,5.574-4.226,40.675,40.675,0,0,0,5.984-4.71,13.247,13.247,0,0,0,1.677-2.111,8.052,8.052,0,0,1-.807-.795,7.316,7.316,0,0,1-1.022-7.695,5.774,5.774,0,0,1,5.214-3.648l1.63-.025.831,1.4a11.04,11.04,0,0,1,1.363,7.271,9.323,9.323,0,0,0,1.546-.279,14.53,14.53,0,0,0,8.75-7.228,18.571,18.571,0,0,0,1.725-14.053c-2.436-8.173-10.665-14.938-20.475-16.834l-8.889-1.717,32.77-14.279c4.031-1.758,8.711-4.248,9.1-7.94.534-5.1-7.186-8.139-12.506-8.94-42.88-6.451-89.191,14.523-112.617,51.016l-4.729-3.035c12.127-18.893,29.9-34.026,51.393-43.762s44.592-13.119,66.79-9.775c9.23,1.389,18.146,6.592,17.259,15.081-.778,7.423-8.951,10.985-12.442,12.506l-17.553,7.649c8.432,3.664,14.894,10.391,17.289,18.425a24.3,24.3,0,0,1-2.2,18.4,20.1,20.1,0,0,1-12.2,9.917,13.913,13.913,0,0,1-4.952.464,18.661,18.661,0,0,1-2.927,3.92,45.4,45.4,0,0,1-6.8,5.4,50.925,50.925,0,0,0-5.023,3.791,24.123,24.123,0,0,0-7.887,17.338" transform="translate(-22319.766 5922.996)" fill="#360484"></path>
    <path id="Path_127799" data-name="Path 127799" d="M4110.976,6823.832a64.553,64.553,0,0,0-9.293-25.44,15.4,15.4,0,0,0-4.5-5.029,16.767,16.767,0,0,1-6.685,5.616l-2.518,1.165-1.2-2.5a6.729,6.729,0,0,1,.882-7.038,9.27,9.27,0,0,1,6.6-3.627,23.178,23.178,0,0,0,.6-14.2c-1.962-7.194-7.4-14.643-14.782-17.592.312,10.674-6.834,22.673-18.353,23.975a7.483,7.483,0,0,1-8.859-5.928c-1.625-5.379-.326-11.309,3.563-16.268a22.392,22.392,0,0,1,16.712-8.7c-1.88-5.66-5.733-11.428-11.514-17.221-4.1-4.106-12.08-10.6-19.523-7.99l-1.863-5.3c10.345-3.633,20.331,4.28,25.363,9.321,7.228,7.243,11.784,14.6,13.6,21.93,9.706,2.512,18.028,11.1,21.078,22.3a29.111,29.111,0,0,1-.532,17.061c3.048,1.733,5.2,4.692,6.675,7.029a70.2,70.2,0,0,1,10.107,27.672Zm-37.354-69.951a16.859,16.859,0,0,0-12.76,6.554c-2.744,3.5-3.693,7.572-2.6,11.176.409,1.353.864,1.735,1.041,1.837a3.151,3.151,0,0,0,1.808.131c8.474-.958,13.833-10.652,13.343-18.753-.018-.307-.043-.614-.074-.923l-.087,0c-.221-.012-.444-.018-.666-.018" transform="translate(-22319.766 5922.996)" fill="#f04e98"></path>
    <rect id="Rectangle_3993" data-name="Rectangle 3993" width="5.619" height="48.429" transform="translate(-18203.98 12535.966) rotate(-28.148)" fill="#f04e98"></rect>
    <rect id="Rectangle_3994" data-name="Rectangle 3994" width="5.619" height="51.724" transform="translate(-18107.553 12471.294) rotate(-14.354)" fill="#f04e98"></rect>
    <path id="Path_127800" data-name="Path 127800" d="M4379.376,6639.077l-5.515-1.078a97.157,97.157,0,0,0,1.645-24.2,15.7,15.7,0,0,1-7.38,1.063c-4.576-.466-8.876-4.1-10.457-8.833a9.3,9.3,0,0,1,2.229-10.067,9.812,9.812,0,0,1,7.4-2.475,13.186,13.186,0,0,1,9.1,4.621,17.88,17.88,0,0,1,3.288,6.2,31.719,31.719,0,0,0,2.786-3.156,49.5,49.5,0,0,0,9.911-27.747c-8.121,4.851-18.921,3.4-24.163-3.292-6.331-8.077-3.088-19.2.445-27.979.968-2.408,3.542-8.805,9.34-9.393,3.7-.374,7.179,1.72,10.357,6.224a53.892,53.892,0,0,1,8.839,21.1,35.453,35.453,0,0,0,3.106-8.479l5.475,1.268a35.867,35.867,0,0,1-7.628,15.692,55.6,55.6,0,0,1-11.237,36.045,34.123,34.123,0,0,1-6.011,6.091c.077.771.136,1.534.181,2.281a102.827,102.827,0,0,1-1.709,26.111m-12.823-39.991a4.114,4.114,0,0,0-2.842,1.006,3.862,3.862,0,0,0-.711,4.16c.875,2.622,3.323,4.78,5.695,5.022a10.85,10.85,0,0,0,6.129-1.318,14.09,14.09,0,0,0-2.74-6.241,7.675,7.675,0,0,0-5.151-2.617c-.12-.008-.247-.012-.38-.012m12.254-60.763c-.079,0-.159,0-.237.012-1.651.167-3.142,2.042-4.694,5.9-2.969,7.382-5.793,16.6-1.235,22.415,3.88,4.952,11.916,4.958,16.985,1.859a18.122,18.122,0,0,0,2.659-1.988,48.825,48.825,0,0,0-8.515-24.312c-1.269-1.8-3.136-3.885-4.963-3.885" transform="translate(-22319.766 5922.996)" fill="#f04e98"></path>
    <path id="Path_127801" data-name="Path 127801" d="M4471.146,6713.555l-4.68-3.112a497.8,497.8,0,0,0,53.922-107.17l5.288,1.9a503.494,503.494,0,0,1-54.53,108.381" transform="translate(-22319.766 5922.996)" fill="#f04e98"></path>
    <path id="Path_127802" data-name="Path 127802" d="M4525.858,6761.437l-3.628-4.291a37.772,37.772,0,0,0,11.583-17.547l5.372,1.65a43.465,43.465,0,0,1-13.327,20.188" transform="translate(-22319.766 5922.996)" fill="#f04e98"></path>
    <rect id="Rectangle_3995" data-name="Rectangle 3995" width="233.132" height="5.619" transform="translate(-17609.186 13027.219)" fill="#f04e98"></rect>
  </g>
</svg>
